<?xml version="1.0" standalone="no"?>
<!DOCTYPE svg PUBLIC "-//W3C//DTD SVG 1.1//EN" "http://www.w3.org/Graphics/SVG/1.1/DTD/svg11.dtd" >
<svg xmlns="http://www.w3.org/2000/svg">
<metadata>Generated by IcoMoon</metadata>
<defs>
<font id="dwIconFont" horiz-adv-x="1024">
<font-face units-per-em="1024" ascent="960" descent="-64" />
<missing-glyph horiz-adv-x="1024" />
<glyph unicode="&#x20;" horiz-adv-x="512" d="" />
<glyph unicode="&#xe600;" glyph-name="Success" d="M512 950.857c-282.77 0-512-229.23-512-511.998 0-282.77 229.23-512.002 512-512.002s512 229.232 512 512.002c0 282.768-229.23 511.998-512 511.998zM318.866 487.591l106.496-135.376 333.924 272.556 41.516-41.516-375.442-433.198-191.33 249.090 84.836 88.444z" />
<glyph unicode="&#xe601;" glyph-name="Warning" d="M512 950.857c-282.77 0-512-229.23-512-512s229.23-512 512-512 512 229.23 512 512-229.23 512-512 512zM572.796 138.385h-119.894v120.094h119.894v-120.094zM572.902 318.525h-120v419.86h120c-0.036-0.032 0-419.86 0-419.86z" />
<glyph unicode="&#xe602;" glyph-name="smart_connect" d="M742.4 330.857h-220.4v214.4h220.4c28.4 0 51.2 22.8 51.2 51.2s-22.8 51.2-51.2 51.2h-220.4v120.8h-392.8c-71.2 0-129.2-58-129.2-129.2v-401.2c0-71.2 58-129.2 129.2-129.2h392.8v119.2h220.4c28.4 0 51.2 22.8 51.2 51.2s-22.8 51.6-51.2 51.6zM852 872.857h172v-868h-172v868z" />
<glyph unicode="&#xe603;" glyph-name="scan" d="M914.208 679.303c6.872-18.932-2.91-39.848-21.842-46.714l-773.102-280.47c-18.932-6.868-39.846 2.912-46.714 21.846v0c-6.868 18.928 2.912 39.846 21.844 46.714l773.098 280.466c18.93 6.868 39.846-2.912 46.716-21.842v0zM117.118 327.677c-29.152 0-52.784 0-52.784 0v-155.738c0-29.144 23.63-52.778 52.784-52.778h789.77c29.148 0 52.782 23.632 52.782 52.778v155.738h-842.552zM879 179.419c-24.3 0-44 19.7-44 44s19.7 44 44 44 44-19.7 44-44-19.7-44-44-44z" />
<glyph unicode="&#xe604;" glyph-name="Question" d="M512 950.857c-282.77 0-512-229.23-512-512s229.23-512 512-512 512 229.23 512 512-229.23 512-512 512zM514.902 136.857h-120v119.998h120v-119.998zM694.904 496.855c0-66.168-53.84-120-120-120h-59.894c-0.038-0.034-0.074-0.070-0.108-0.116v-59.884h-120v60c0 66.168 53.832 120 120 120h59.892c0.042 0.030 0.074 0.070 0.11 0.104v119.79c-0.038 0.038-0.070 0.076-0.11 0.106h-240.794v120.002h240.904c66.16 0 120-53.832 120-120v-120.002z" />
<glyph unicode="&#xe605;" glyph-name="info2" d="M512 950.857c-282.77 0-512-229.23-512-512s229.23-512 512-512 512 229.23 512 512-229.23 512-512 512zM439.354 735.319h150.002v-149.996h-150.002v149.996zM664.352 135.319h-299.996v75.010h74.998v224.994h-74.998v75h224.99v-299.996h75.006v-75.008z" />
<glyph unicode="&#xe606;" glyph-name="import_v2" d="M0 954.857v-399.544h431.67v193.542l309.67-309.668-309.67-309.668v193.542h-431.67v-396.204h1024v1024z" />
<glyph unicode="&#xe607;" glyph-name="import2" d="M492 178.457l260.4 260.4-260.4 260.4v-162.8h-476v-195.2h476zM211.6 950.857v-282.8h107.6v175.2h582v-808.8h-582v175.2h-107.6v-282.8h797.2v1024z" />
<glyph unicode="&#xe608;" glyph-name="Help" d="M602.008 887.179c98.872 0 179.328-80.446 179.328-179.328v-179.334c0-98.88-80.458-179.328-179.328-179.328h-89.506c-0.054-0.052-0.114-0.106-0.162-0.172v-89.492h-179.328v89.664c0 98.882 80.446 179.328 179.328 179.328h89.504c0.062 0.046 0.116 0.108 0.164 0.156v179.014c-0.052 0.054-0.104 0.114-0.164 0.16h-359.844v179.332h360.008zM333.012 169.861h179.328v-179.324h-179.328v179.324z" />
<glyph unicode="&#xe609;" glyph-name="FolderStopped" d="M421.49 758.857l128-128h410.51v-576h-896v704h357.49M448 822.857h-448v-832h1024v704h-448l-128 128zM319.304 503.133h320v-320h-320v320z" />
<glyph unicode="&#xe60a;" glyph-name="FolderStarted" d="M421.49 758.857l128-128h410.51v-576h-896v704h357.49M448 822.857h-448v-832h1024v704h-448l-128 128zM320.1 567.539l320.568-192.34-320.568-192.342v384.682z" />
<glyph unicode="&#xe60b;" glyph-name="Error" d="M512 950.857c-282.77 0-512-229.23-512-512 0-282.772 229.23-512 512-512s512 229.228 512 512c0 282.77-229.23 512-512 512zM788.27 251.535l-84.852-84.852-190.418 190.418-190.418-190.418-84.854 84.852 190.418 190.418-192.224 192.224 84.854 84.852 192.224-192.224 192.224 192.224 84.852-84.854-192.224-192.224 190.418-190.416z" />
<glyph unicode="&#xe60c;" glyph-name="arrow_up" d="M0 340.857v-312l512 520 512-520v312l-512 512-512-512z" />
<glyph unicode="&#xe60d;" glyph-name="arrow_down" d="M1023.998 540.857v312l-512-520-512 520v-312l512-512 512 512z" />
<glyph unicode="&#xe60e;" glyph-name="xls" d="M0 694.509v-510h1023v510h-1023zM235.284 439.255l92.736-192.088h-73.548l-59.426 121.994-60.758-121.994h-69.020l96.2 191.822h-2.398l-92.736 192.088h73.55l59.424-121.994 60.758 121.994h69.018l-96.2-191.82h2.4zM645.132 246.899h-262.75v384.176h73.548v-318.364h189.202v-65.812zM961.182 565.263h-189.204v-94.974h189.204v-223.39h-262.752v65.812h193.732v94.974h-193.732v223.39h262.752v-65.812z" />
<glyph unicode="&#xe60f;" glyph-name="tiff" d="M0 694.509v-510h1023v510h-1023zM293.024 565.263h-78.78v-318.364h-64.52v318.364h-87.194v65.812h230.494v-65.812zM404.296 246.899h-64.52v384.176h64.52v-384.176zM681.544 565.263h-165.974v-94.974h165.974v-62.602h-165.974v-160.788h-64.52v384.176h230.494v-65.812zM958.792 565.263h-165.974v-94.974h165.974v-62.602h-165.974v-160.788h-64.52v384.176h230.494v-65.812z" />
<glyph unicode="&#xe610;" glyph-name="ppt" d="M455.41 565.263h120.186v-94.974h-120.186v94.974zM139.352 565.263h120.186v-94.974h-120.186v94.974zM0 694.509v-510h1023v510h-1023zM328.56 407.685h-189.208v-160.788h-73.55v384.178h262.758v-223.39zM644.618 407.685h-189.208v-160.788h-73.55v384.178h262.758v-223.39zM960.674 565.263h-89.806v-318.364h-73.552v318.364h-99.4v65.812h262.76v-65.812z" />
<glyph unicode="&#xe611;" glyph-name="png" d="M0 694.509v-510h1023v510h-1023zM328.56 407.685h-189.208v-160.788h-73.55v384.178h262.758v-223.39zM644.618 246.899h-69.022l-120.186 221.786v-221.786h-73.55v384.176h73.55l120.186-215.362v215.362h69.022v-384.176zM960.674 565.263h-189.208v-252.55h120.188v94.972h-76.216v62.602h145.238v-223.39h-262.76v384.178h262.76v-65.812zM139.352 565.263h120.186v-94.974h-120.186v94.974z" />
<glyph unicode="&#xe612;" glyph-name="pdf" d="M0 694.509v-510h1023v510h-1023zM328.56 407.685h-189.208v-160.788h-73.55v384.178h262.758v-223.39zM644.618 280.607l-27.45-33.708h-235.31v384.176h235.044l27.714-33.708v-316.76zM960.674 565.263h-189.208v-94.974h189.208v-62.602h-189.208v-160.788h-73.55v384.176h262.76v-65.812zM139.352 565.263h120.186v-94.974h-120.186v94.974zM455.41 565.263h120.186v-252.55h-120.186v252.55z" />
<glyph unicode="&#xe613;" glyph-name="otherFile" d="M-1 694.509v-510h1024v510zM316.5 343.857h-191.5v27.5h191.5zM603.75 343.857h-191.5v27.5h191.5zM891 343.857h-191.5v27.5h191.5z" />
<glyph unicode="&#xe614;" glyph-name="jpg" d="M0 694.509v-510h1023v510h-1023zM328.56 246.899h-262.758v165.604h73.55v-99.79h120.186v318.362h69.020v-384.176zM644.618 407.685h-189.208v-160.788h-73.55v384.178h262.758v-223.39zM960.674 565.263h-189.208v-252.55h120.188v94.972h-76.216v62.602h145.238v-223.39h-262.76v384.178h262.76v-65.812zM455.41 565.263h120.186v-94.974h-120.186v94.974z" />
<glyph unicode="&#xe615;" glyph-name="email" d="M534.156 463.867h58.512v-56.182h-58.512v56.182zM0 694.509v-510h1023v510h-1023zM683.964 359.529h-217.488v155.972h154.192v49.762h-218.974v-252.552h282.27v-65.81h-345.558v384.174h345.558v-271.546z" />
<glyph unicode="&#xe616;" glyph-name="doc" d="M455.41 565.263h120.186v-252.55h-120.186v252.55zM139.352 565.263h120.186v-252.55h-120.186v252.55zM0 694.509v-510h1023v510h-1023zM328.56 280.607l-27.448-33.708h-235.31v384.176h235.042l27.714-33.708v-316.76zM644.618 246.899h-262.76v384.176h262.758v-384.176zM960.674 565.263h-189.208v-252.55h189.208v-65.814h-262.76v384.176h262.76v-65.812z" />
<glyph unicode="&#xe617;" glyph-name="zoomArea" d="M965.34-14.339l-157.538 231.484c90.032 71.292 115.482 200.364 54.788 301.384-65.918 109.72-208.8 145.34-318.512 79.436-109.708-65.926-145.326-208.806-79.412-318.518 59.434-98.948 181.498-137.602 285.364-95.884l130.858-248.65c4.058-7.716 13.484-10.346 20.95-5.876l58.844 35.374c7.474 4.488 9.576 14.048 4.658 21.25zM744.87 263.785c-74.56-44.79-171.66-20.574-216.452 53.988-44.792 74.542-20.566 171.64 53.986 216.43 74.534 44.796 171.63 20.578 216.42-53.978 44.796-74.542 20.588-171.662-53.954-216.44zM63 887.857h128v-64h-128v64zM255 887.857h128v-64h-128v64zM447 887.857h128v-64h-128v64zM63 247.857h128v-64h-128v64zM255 247.857h128v-64h-128v64zM447 247.857h128v-64h-128v64zM639 887.857h128v-64h-128v64zM705 887.857h64v-128h-64v128zM705 695.857h64v-128h-64v128zM63 887.857h64v-128h-64v128zM63 695.857h64v-128h-64v128zM63 503.857h64v-128h-64v128zM63 311.857h64v-128h-64v128z" />
<glyph unicode="&#xe618;" glyph-name="upload" d="M511.67 950.857l-223.668-223.67h139.792v-223.67h167.752v223.67h139.792l-223.668 223.67zM1023.464 273.461l-212.21 422.014h-140.254v-74.112h75.138l150.090-311.688h-126.642l-106.578-135.798h-292.704l-113.736 135.798h-129.24l149.2 311.688h72.472v74.112h-136.794l-212.206-422.014v-348.604h1023.504z" />
<glyph unicode="&#xe619;" glyph-name="double-angle-up" horiz-adv-x="672" d="M614.272 201.129q0-7.424-5.728-13.152l-28.576-28.576q-5.728-5.728-13.152-5.728t-13.152 5.728l-224.576 224.576-224.576-224.576q-5.728-5.728-13.152-5.728t-13.152 5.728l-28.576 28.576q-5.728 5.728-5.728 13.152t5.728 13.152l266.272 266.272q5.728 5.728 13.152 5.728t13.152-5.728l266.272-266.272q5.728-5.728 5.728-13.152zM614.272 420.585q0-7.424-5.728-13.152l-28.576-28.576q-5.728-5.728-13.152-5.728t-13.152 5.728l-224.576 224.576-224.576-224.576q-5.728-5.728-13.152-5.728t-13.152 5.728l-28.576 28.576q-5.728 5.728-5.728 13.152t5.728 13.152l266.272 266.272q5.728 5.728 13.152 5.728t13.152-5.728l266.272-266.272q5.728-5.728 5.728-13.152z" />
<glyph unicode="&#xe61a;" glyph-name="double-angle-right" horiz-adv-x="576" d="M340 402.281q0-7.424-5.728-13.152l-266.272-266.272q-5.728-5.728-13.152-5.728t-13.152 5.728l-28.576 28.576q-5.728 5.728-5.728 13.152t5.728 13.152l224.576 224.576-224.576 224.576q-5.728 5.728-5.728 13.152t5.728 13.152l28.576 28.576q5.728 5.728 13.152 5.728t13.152-5.728l266.272-266.272q5.728-5.728 5.728-13.152zM559.424 402.281q0-7.424-5.728-13.152l-266.272-266.272q-5.728-5.728-13.152-5.728t-13.152 5.728l-28.576 28.576q-5.728 5.728-5.728 13.152t5.728 13.152l224.576 224.576-224.576 224.576q-5.728 5.728-5.728 13.152t5.728 13.152l28.576 28.576q5.728 5.728 13.152 5.728t13.152-5.728l266.272-266.272q5.728-5.728 5.728-13.152z" />
<glyph unicode="&#xe61b;" glyph-name="thumbnail_view" d="M94 950.857h386v-480h-386v480zM544 950.857h386v-480h-386v480zM94 406.857h386v-480h-386v480zM544 406.857h386v-480h-386v480z" />
<glyph unicode="&#xe61c;" glyph-name="search_continue" d="M758.87 381.987l190 190c14.84 14.838 14.84 38.9 0 53.74l-190 190c-14.84 14.84-38.9 14.84-53.74 0s-14.84-38.9 0-53.74l125.13-125.13h-364.26c-20.986 0-38-17.014-38-38s17.014-38 38-38h364.26l-125.13-125.13c-7.422-7.418-11.13-17.146-11.13-26.87s3.708-19.45 11.128-26.87c14.84-14.838 38.902-14.838 53.742 0zM776.176 12.365l-229.080 336.61c51.826 41.042 88.92 95.252 109.368 154.882h-117.574c-18.864-34.838-46.962-65.232-83.304-87.064-108.422-65.126-249.616-29.918-314.75 78.506-65.13 108.394-29.904 249.588 78.506 314.72 108.378 65.14 249.572 29.922 314.702-78.49 6.948-11.56 12.742-23.498 17.44-35.672h113.274c-7.892 31.414-20.46 62.198-37.988 91.37-95.858 159.548-303.63 211.344-463.162 115.51-159.53-95.866-211.324-303.632-115.478-463.166 86.426-143.884 263.924-200.092 414.958-139.432l190.286-361.566c5.9-11.222 19.606-15.046 30.458-8.546l85.568 51.44c10.874 6.524 13.928 20.426 6.776 30.898z" />
<glyph unicode="&#xe61d;" glyph-name="staple" d="M903.534 176.109c-1.804-0.944-852.162-0.652-853.336 0-20.878 11.592 23.572 138.984 56.576 138.984h820.34c15.622 0 28.29-14.362 28.29-32.076-0.008 0-9.438-84.87-51.87-106.908zM951.11 608.371c0 0-677.724 212.946-848.628 0-58.316-72.664-15.622-237.388 0-237.388h210.396c0 0 286.124 262.876 666.52 111.712 2.958-1.176 0 81.166 0 81.166-0.002 24.582-12.668 44.51-28.288 44.51zM916.964 480.915v-58.624c0-12.624-6.266-22.894-13.962-22.894h-494.188l-48.604-29.54h542.79c18.696 0 33.908 23.524 33.908 52.436v53.794l-19.944 4.828z" />
<glyph unicode="&#xe61e;" glyph-name="showAllPages" d="M382.986 886.857v-320h-255.986v320h255.986M446.986 950.857h-383.986v-448h383.986v448zM385 309.857v-320h-256v320h256M449 373.857h-384v-448h384v448zM897 886.857v-320h-256v320h256M961 950.857h-384v-448h384v448zM895 309.857v-320h-256v320h256M959 373.857h-384v-448h384v448z" />
<glyph unicode="&#xe61f;" glyph-name="SetAsUnread" d="M653.636 485.301l370.364-324.808v611.78zM495.742 489.711l16.516-12.784 446.5 345.964h-893.472l366.036-283.318zM0.002 772.293v-611.388l370.102 324.922zM512.282 375.777l-77.758 60.188-433.764-380.81h1022.062l-433.582 380.252z" />
<glyph unicode="&#xe620;" glyph-name="SetAsRead" d="M1021.448 643.997l-185.448 114.222v128.638h0.002v64h-644.002v-191.496l-189.444-115.342-2.556 1.978v-611.388l370.102 324.922-114.102 88.314v439.012h512v-439.236l-114.368-88.614 370.368-324.812v611.78l-2.552-1.978zM56.708 602.101l135.292 81.926v-186.644l-135.292 104.718zM836 500.309v182.88l131.322-81.126-131.322-101.754zM0 696.593v-0.032l0.028 0.032zM512.282 249.481l-77.758 60.188-433.766-380.812h1022.062l-433.582 380.252zM320 821.341h255.734v-64h-255.734v64zM320 695.367h383.51v-64h-383.51v64zM320 567.671h383.51v-64h-383.51v64z" />
<glyph unicode="&#xe621;" glyph-name="SendInquiry" d="M346.224 823.179c56.088 0 101.728-45.634 101.728-101.728v-101.73c0-56.092-45.64-101.728-101.728-101.728h-50.774c-0.032-0.030-0.064-0.060-0.092-0.098v-50.766h-101.728v50.864c0 56.094 45.634 101.728 101.728 101.728h50.774c0.034 0.026 0.064 0.060 0.092 0.088v101.55c-0.030 0.032-0.060 0.064-0.092 0.090h-204.132v101.73h204.224zM193.63 416.263h101.728v-101.726h-101.728v101.726zM722.492 310.809c116.258-0.026 210.516 128.896 210.532 287.958 0 0.032 0 0.058 0 0.094 0.020 159.052-94.208 288.020-210.458 288.042-116.25 0.028-210.51-128.892-210.528-287.954 0-0.036 0-0.062 0-0.092-0.018-159.060 94.204-288.022 210.454-288.048zM1027.148 244.347c-43.016 19.646-91.188 35.264-143.042 45.906-46.75-35.792-101.8-56.64-161.566-56.64-59.786 0-114.836 20.854-161.594 56.64-203.494-41.766-350.412-159.896-350.412-299.398h816.62l-0.006 253.492z" />
<glyph unicode="&#xe622;" glyph-name="Send" d="M0 822.857v-768h1025.338v768h-1025.338zM869.020 742.857l-356.488-272.75-360.332 272.75h716.82zM945.336 134.857h-865.336v557.3l432.802-327.606 432.534 330.93v-560.624z" />
<glyph unicode="&#xe623;" glyph-name="ReplyAll" d="M346.342 262.857l59.892 59.49c1.89 1.878 2.954 4.432 2.954 7.096v110.14c0 4.044-2.436 7.694-6.172 9.24-3.736 1.544-8.042 0.694-10.898-2.168l-250.336-250.334c-1.876-1.876-2.928-4.418-2.928-7.070 0-2.358 0.874-4.604 2.376-6.394 0.188-0.222 0.346-0.466 0.552-0.674l250.332-250.332c1.914-1.914 4.47-2.93 7.074-2.93 1.288 0 2.588 0.248 3.826 0.762 3.736 1.546 6.172 5.196 6.172 9.238v115.436c0 2.696-1.088 5.276-3.016 7.154l-132.432 129.23 72.604 72.116zM870.47 262.857c21.86 69.144 6.6 147.768-44.094 220.92-1.902 2.746-5 4.302-8.218 4.302-0.984 0-1.976-0.144-2.954-0.452-4.168-1.288-7.020-5.126-7.046-9.492-0.45-73.468-12.696-117.368-40.95-146.782-25.902-26.97-66.804-42.854-126.606-48.762v151.736c0 4.042-2.438 7.698-6.176 9.238-1.234 0.516-2.54 0.762-3.824 0.762-2.602 0-5.16-1.016-7.070-2.93l-248.744-248.736c-2.66-2.654-3.464-6.428-2.5-9.804 0.452-1.582 1.254-3.084 2.5-4.33l248.74-248.738c1.914-1.914 4.472-2.93 7.074-2.93 1.29 0 2.586 0.24 3.824 0.762 3.738 1.542 6.172 5.192 6.172 9.238v156.814c39.79 6.116 75.954 17.292 108.066 33.448 29.42 14.792 54.712 33.672 75.036 55.738 13.040 14.16 24.046 29.622 32.726 46.194 5.736 10.952 10.39 22.25 14.044 33.804zM1025.336 950.857h-1025.336v-768h80.184c-0.19 2.122-0.184 80-0.184 80v557.3l442.804-327.604 422.532 330.928v-640.624h80v768zM512.532 598.109l-360.332 272.748h716.82l-356.488-272.748zM373.772 179.755c0.302-0.428 0.632-0.844 1.016-1.228l84.326-84.326c-2.79 4.212-6.016 8.152-9.668 11.71l-75.674 73.844zM408.854 56.781c-0.448 1.782-1.346 3.43-2.682 4.73l-77.75 75.87c0.824-0.914 1.654-1.822 2.526-2.694l77.906-77.906z" />
<glyph unicode="&#xe624;" glyph-name="Reply" d="M739.364 486.683c-0.986 0-1.98-0.148-2.954-0.452-4.166-1.286-7.018-5.126-7.044-9.492-0.45-73.468-12.698-117.366-40.952-146.782-33.698-35.084-92.74-51.424-185.814-51.424-12.514 0-25.824 0.308-39.684 0.916v154.89c0 4.042-2.436 7.692-6.174 9.234-1.236 0.518-2.536 0.766-3.824 0.766-2.602 0-5.16-1.020-7.072-2.934l-248.74-248.74c-3.906-3.904-3.906-10.236-0.002-14.14l248.74-248.74c1.912-1.914 4.47-2.93 7.072-2.93 1.286 0 2.588 0.244 3.824 0.762 3.738 1.542 6.174 5.194 6.174 9.238v150.382c7.882-0.32 15.714-0.482 23.388-0.482 70.408 0 132.17 13.11 183.572 38.958 48.296 24.286 85.554 59.534 107.758 101.936 40.068 76.51 29.116 169.35-30.048 254.726-1.902 2.75-5.002 4.308-8.22 4.308zM486.312 96.751c-1.698 0-3.406 0.026-5.116 0.042 2.87-0.032 5.71-0.018 8.546 0-1.15-0.006-2.278-0.040-3.43-0.042zM609.88 113.075c10.26 2.974 20.124 6.324 29.572 10.032-9.448-3.708-19.312-7.058-29.572-10.032zM0 950.857v-768h130.242c-0.034 0.914-0.066 1.826-0.066 2.746 0.002 19.77 7.704 38.356 21.688 52.332l24.922 24.922h-96.786v557.3l432.804-327.606 432.532 330.93v-560.624h-87.048c-5.19-22.522-13.176-44.308-23.958-64.896-2.688-5.13-5.59-10.146-8.604-15.104h199.612v768h-1025.338zM512.532 598.107l-360.332 272.75h716.82l-356.488-272.75z" />
<glyph unicode="&#xe625;" glyph-name="OpenInViewer" d="M63.088 950.857v-1024h897.092v1024h-897.092zM127.088-9.141v895.998h507.798v-98.498h261.294v-797.502l-769.092 0.002zM639.012 627.915v-445.064h-320l-0.472 445.106M703.076 694.485h-447.658v-576.076h447.658v576.076z" />
<glyph unicode="&#xe626;" glyph-name="OpenInSeparateViewer" d="M0 950.857v-640h256.144v64h-192.144v512h349v-81h163v-112.080h64v257.080zM640 693.777h-383.856v-766.92h767.856v766.92h-384zM320.144-9.143v638.92h431.892v-97.736h207.964v-541.184h-639.856zM704 435.923v-317.066h-192l-0.472 317.11M768.062 502.495h-319.656v-448.076h319.654v448.076h0.002z" />
<glyph unicode="&#xe627;" glyph-name="OneClickIndexing_V2" d="M490.578 567.219l309.374-232.034-162.852-28.16 157.738-316.094-30.996 0.024-153.32 302.652-119.942-113.112v386.724M426.578 695.219v-663.042l165.55 156.12 132.376-261.31 173.836-0.13-165.558 331.764 224.226 38.772-530.43 397.826zM382.75 807.107h159.5l79.75-119.624v199.374h-558.25v-199.376l79.75 119.626h159.5v-478.5h-79.75v-79.75h239.248v79.75h-79.75v478.5z" />
<glyph unicode="&#xe628;" glyph-name="OneClickIndexing_V1" d="M0 441.795l124.348 447.638h123.726l121.862-447.636h-98.856l-24.87 99.2h-128.080l-25.492-99.2h-92.638zM180.926 803.253h-1.244l-42.9-193.438h89.53l-45.386 193.438zM383.128 441.795v447.638h166.624c71.504 0 130.566-20.46 130.566-115.94 0-51.46-25.488-88.66-76.472-98.58v-1.24c66.528-9.3 83.934-52.080 83.934-113.458 0-113.458-98.856-118.418-138.648-118.418h-166.004zM477.010 706.535h62.794c20.516 0 49.118 13.64 49.118 57.040 0 32.86-22.382 57.040-54.090 57.040h-57.822v-114.080zM477.010 510.615h52.224c19.894 0 64.664 0.62 64.664 63.24 0 39.68-14.926 63.86-62.176 63.86h-54.712v-127.1zM733.648 665.615c0 118.418-0.204 225.246 154.61 225.246 95.748 0 134.498-46.686 130.77-142.786h-92.020c0 59.52-10.568 81.84-38.546 81.84-52.848 0-59.686-49.6-59.686-164.298s6.838-164.298 59.686-164.298c43.522 0 41.656 55.8 42.898 91.14h92.64c0-119.66-47.876-158.1-135.54-158.1-154.812-0.004-154.812 114.076-154.812 231.256zM859.11 256.885l-472.442 354.334v-590.554l147.454 139.048 117.906-232.742 154.828-0.114-147.458 295.494 199.712 34.534z" />
<glyph unicode="&#xe629;" glyph-name="move2" d="M410.598 395.341c1.902-2.746 5.004-4.304 8.222-4.304 0.984 0 1.972 0.146 2.954 0.454 4.164 1.288 7.016 5.124 7.042 9.492 0.45 73.464 12.7 117.366 40.954 146.782 33.696 35.084 92.738 51.424 185.812 51.424 12.516 0 25.824-0.304 39.684-0.916v-154.89c0-4.042 2.436-7.696 6.174-9.236 1.236-0.516 2.536-0.764 3.824-0.764 2.602 0 5.16 1.018 7.072 2.932l248.74 248.74c3.904 3.898 3.904 10.23 0.002 14.134l-248.74 248.738c-1.912 1.914-4.47 2.93-7.072 2.93-1.292 0-2.588-0.242-3.824-0.762-3.738-1.542-6.174-5.194-6.174-9.238v-150.376c-7.884 0.32-15.716 0.482-23.39 0.482-70.408 0-132.17-13.112-183.568-38.958-48.292-24.286-85.554-59.534-107.758-101.936-40.068-76.51-29.118-169.352 30.046-254.728zM903.396 514.235l-70.676-70.676 63.508-131.884h-126.642l-106.578-135.798h-292.704l-113.736 135.798h-129.24l149.2 311.688 30.044 74.112h-94.366l-212.206-422.014v-348.604h1023.504l-0.040 348.604z" />
<glyph unicode="&#xe62a;" glyph-name="Forward" d="M831.296 186.477c-0.012 0.15-0.024 0.298-0.042 0.448-0.042 0.324-0.094 0.642-0.168 0.962-0.086 0.376-0.2 0.744-0.33 1.112-0.084 0.232-0.176 0.46-0.28 0.688-0.176 0.398-0.38 0.788-0.612 1.164-0.092 0.148-0.186 0.292-0.286 0.438-0.334 0.482-0.698 0.952-1.128 1.38l-248.74 248.738c-1.912 1.914-4.47 2.934-7.072 2.934-1.29 0-2.588-0.248-3.824-0.766-3.738-1.542-6.174-5.194-6.174-9.234v-154.89c-13.86-0.608-27.17-0.916-39.684-0.916-93.074 0-152.118 16.34-185.814 51.424-28.254 29.416-40.502 73.312-40.952 146.782-0.028 4.366-2.878 8.208-7.044 9.492-0.972 0.302-1.966 0.452-2.954 0.452-3.218 0-6.318-1.558-8.22-4.304-50.352-72.66-65.758-150.716-44.542-219.522v0c0.002-0.008 0.004-0.016 0.008-0.024 0.872-2.826 1.812-5.632 2.808-8.426 0.148-0.416 0.302-0.832 0.452-1.246 0.858-2.362 1.762-4.71 2.708-7.046 0.256-0.632 0.51-1.266 0.772-1.898 0.9-2.156 1.844-4.3 2.82-6.436 0.308-0.678 0.602-1.36 0.918-2.034 1.278-2.716 2.602-5.418 4.004-8.096 1.248-2.382 2.558-4.734 3.9-7.070 0.416-0.726 0.848-1.448 1.276-2.17 0.976-1.652 1.976-3.294 3-4.924 0.478-0.762 0.954-1.526 1.442-2.282 1.224-1.892 2.478-3.768 3.764-5.626 0.28-0.402 0.544-0.812 0.826-1.212 1.486-2.118 3.024-4.206 4.59-6.276 0.62-0.82 1.258-1.628 1.89-2.442 1.052-1.35 2.12-2.692 3.206-4.022 0.702-0.858 1.402-1.716 2.118-2.566 1.226-1.458 2.482-2.896 3.75-4.328 0.55-0.624 1.084-1.256 1.644-1.874 0-0.002 0.002-0.002 0.002-0.004v0c20.536-22.678 46.302-42.034 76.348-57.14 51.402-25.85 113.164-38.958 183.572-38.958 7.674 0 15.506 0.162 23.388 0.482v-150.384c0-4.044 2.436-7.696 6.174-9.238 1.236-0.518 2.54-0.762 3.824-0.762 2.602 0 5.16 1.016 7.072 2.93l248.74 248.74c1.246 1.246 2.048 2.748 2.5 4.33v0c0.002 0.004 0.002 0.008 0.002 0.012 0.342 1.18 0.454 2.394 0.348 3.608zM386.104 123.105c9.45-3.708 19.312-7.056 29.572-10.032-10.26 2.976-20.124 6.326-29.572 10.032zM539.242 96.751c-1.15 0.002-2.28 0.038-3.432 0.042 2.836-0.018 5.678-0.032 8.546 0-1.708-0.018-3.416-0.042-5.114-0.042zM0 950.857v-768h199.83c-3.012 4.958-5.916 9.972-8.602 15.104-10.784 20.588-18.77 42.376-23.958 64.896h-87.27v557.3l432.804-327.606 432.532 330.93v-560.624h-96.566l24.922-24.922c13.984-13.976 21.686-32.562 21.688-52.332 0-0.92-0.034-1.832-0.066-2.746h130.024v768h-1025.338zM512.532 598.107l-360.332 272.75h716.82l-356.488-272.75z" />
<glyph unicode="&#xe62b;" glyph-name="Overlays_5" d="M304 802.857l52 52h312l52-52-52-52h-312l-52 52zM304 464.855l-52 52v208.002l52 52 52-52v-208.002l-52-52zM720 100.857l-52 52v208l52 52 52-52v-208l-52-52zM304 438.857l52 52h312l52-52-52-52h-312l-52 52zM304 74.857l52 52h312l52-52-52-52h-312l-52 52z" />
<glyph unicode="&#xe62c;" glyph-name="Overlays_4" d="M734 470.857l-64 64v256l64 64 64-64v-256l-64-64zM286 470.855l-64 64v256.002l64 64 64-64v-256.002l-64-64zM734 22.857l-64 64v256l64 64 64-64v-256l-64-64zM286 438.857l64 64h320l64-64-64-64h-320l-64 64z" />
<glyph unicode="&#xe62d;" glyph-name="Overlays_3" d="M278 802.857l52 52h312l52-52-52-52h-312l-52 52zM694 464.857l-52 52v208l52 52 52-52v-208l-52-52zM694 100.857l-52 52v208l52 52 52-52v-208l-52-52zM278 438.857l52 52h312l52-52-52-52h-312l-52 52zM278 74.857l52 52h312l52-52-52-52h-312l-52 52z" />
<glyph unicode="&#xe62e;" glyph-name="Overlays_2" d="M305 802.857l52 52h312l52-52-52-52h-312l-52 52zM721 464.857l-52 52v208l52 52 52-52v-208l-52-52zM305 100.857l-52 52v208l52 52 52-52v-208l-52-52zM305 438.857l52 52h312l52-52-52-52h-312l-52 52zM305 74.857l52 52h312l52-52-52-52h-312l-52 52z" />
<glyph unicode="&#xe62f;" glyph-name="Overlays_1" d="M512 854.857l-64-64v-256l64-64 64 64v256l-64 64zM448 342.857v-256l64-64 64 64v256l-64 64-64-64z" />
<glyph unicode="&#xe630;" glyph-name="CurrentOverlay_5" d="M318 358.755v-143.018h143.020l386.146 386.148-143.018 143.020zM945.544 760.941l-82.342 82.34c-6.232 6.234-13.95 10.134-22.040 11.71-8.152 1.588-16.684 0.818-24.464-2.324-5.166-2.086-10.002-5.214-14.174-9.386l-50.106-50.108 143.018-143.018 50.108 50.108c16.686 16.686 16.686 43.99 0 60.678zM480 750.857l52 52-52 52h-312l-52-52 52-52zM168 516.855v208.002l-52 52-52-52v-208.002l52-52zM168 126.857l-52-52 52-52h312l52 52-52 52zM116 438.857l52-52h107.392l104 104h-211.392zM481.73 165.737h-1.73v-12.88l52-52 52 52v115.148l-87.624-87.624z" />
<glyph unicode="&#xe631;" glyph-name="CurrentOverlay_4" d="M947.544 759.691l-82.342 82.34c-6.232 6.234-13.95 10.134-22.040 11.71-8.152 1.588-16.684 0.818-24.464-2.324-5.166-2.086-10.002-5.214-14.174-9.386l-50.106-50.108 143.018-143.018 50.108 50.108c16.686 16.686 16.686 43.99 0 60.678zM576.32 613.827v0l-256.32-256.322v-143.018h143.020l386.146 386.148-143.018 143.020zM576.32 790.857l-64 64-64-64v-234.32l128 128.002zM192 534.855v256.002l-64 64-64-64v-256.002l64-64zM483.73 164.487h-35.41v-77.63l64-64 64 64v170.22l-77.944-77.946zM192 502.857l-64-64 64-64h78v3.36l124.642 124.64z" />
<glyph unicode="&#xe632;" glyph-name="CurrentOverlay_3" d="M318 357.125v-143.020h143.020l386.146 386.148-143.018 143.020zM945.544 759.309l-82.342 82.34c-16.686 16.686-43.99 16.686-60.678 0l-50.106-50.108 143.018-143.018 50.108 50.108c16.686 16.686 16.686 43.992 0 60.678zM428 722.857v-185.020l104 104v81.020l-52 52zM275.022 384.857l104 104h-263.022l-52-52 52-52zM428 748.857l52 52-52 52h-312l-52-52 52-52zM481.73 164.105h-53.73v-13.248l52-52 52 52v63.518l-35.624-35.624zM116 124.857l-52-52 52-52h312l52 52-52 52z" />
<glyph unicode="&#xe633;" glyph-name="CurrentOverlay_2" d="M318 357.821v-143.020h143.020l386.144 386.146-143.018 143.022zM531 438.857l-52 52h-25.964l-103.998-104h129.962zM167 126.857l-52-52 52-52h312l52 52-52 52zM583 724.857l-52 52-52-52v-123.184l104 104zM531 464.857l52 52v103.964l-103.98-103.982zM479 750.857l52 52-52 52h-312l-52-52 52-52zM167 152.857v208l-52 52-52-52v-208l52-52zM368.186 490.857h-201.186l-52-52 52-52h97.184l13.39 13.39zM945.544 760.003l-82.342 82.34c-16.686 16.686-43.99 16.686-60.678 0l-50.106-50.106 143.018-143.018 50.108 50.108c16.686 16.684 16.686 43.992 0 60.676z" />
<glyph unicode="&#xe634;" glyph-name="CurrentOverlay_1" d="M191.782 854.857l-64-64v-256l64-64 64 64v256l-64 64zM127.782 342.857v-256l64-64 64 64v256l-64 64-64-64zM847.166 602.113l-386.146-386.148h-143.020v143.020l386.148 386.148 143.018-143.020zM895.436 650.383l-143.018 143.018 50.106 50.108c16.688 16.686 43.992 16.686 60.678 0l82.342-82.34c16.688-16.688 16.688-43.992 0-60.678l-50.108-50.108z" />
<glyph unicode="&#xe635;" glyph-name="CreateDWRequest" d="M511 617.857c-39.702 0-72-32.298-72-72s32.298-72 72-72 72 32.298 72 72-32.298 72-72 72zM919.91 950.857h-815.82c-22.142 0-40.090-17.908-40.090-40v-944c0-22.092 17.948-40 40.090-40h815.82c22.14 0 40.090 17.908 40.090 40v944c0 22.092-17.948 40-40.090 40zM594.086 286.801l-183.2-204.76c-9.258-12.928-20.49-24.206-33.43-33.56-16.020-11.592-34.030-19.77-53.042-24.186l-2.338-2.34-22.57-1.236c-0.108-0.006-0.216-0.014-0.324-0.020l-1.648-0.090h-0.228c-2.102-0.088-4.218-0.134-6.312-0.134-47.166 0-91.836 22.824-119.496 61.054-47.66 65.892-32.83 158.278 33.128 205.992 1.992 1.438 4.080 2.858 6.336 4.308 3.006 2.108 6.15 3.984 9.398 5.612 6.756 3.692 13.806 6.854 21.022 9.434l86.056 38.268c-54.346 49.73-88.438 121.238-88.438 200.714 0 150.222 121.778 272 272 272s272-121.778 272-272c0-121.242-79.332-223.938-188.914-259.056zM580.952 379.747c-2.942 3.936-7.61 6.118-12.526 5.848-1.782-0.098-3.514-0.518-5.144-1.242l-178.602-79.422c0 0 0 0 0 0l-121.244-53.916c-5.356-1.778-10.566-4.098-15.496-6.89l-0.134-0.060c-1.076-0.474-2.11-1.108-3.094-1.878-1.914-1.198-3.504-2.26-4.986-3.328-39.086-28.276-47.882-83.074-19.61-122.164 1.066-1.474 2.176-2.906 3.32-4.298 0.384-0.468 0.796-0.91 1.19-1.37 0.776-0.906 1.55-1.816 2.358-2.688 0.49-0.526 1.004-1.024 1.504-1.538 0.746-0.764 1.488-1.534 2.258-2.268 0.552-0.526 1.126-1.024 1.692-1.536 0.752-0.68 1.5-1.362 2.274-2.014 0.6-0.506 1.22-0.986 1.832-1.474 0.768-0.614 1.536-1.226 2.322-1.81 0.64-0.476 1.294-0.93 1.948-1.388 0.79-0.552 1.582-1.106 2.388-1.632 0.672-0.44 1.356-0.858 2.040-1.278 0.814-0.502 1.632-0.996 2.462-1.47 0.7-0.398 1.408-0.78 2.118-1.158 0.84-0.45 1.684-0.886 2.538-1.306 0.724-0.358 1.454-0.7 2.186-1.038 0.866-0.396 1.736-0.778 2.614-1.144 0.742-0.312 1.488-0.614 2.24-0.904 0.892-0.346 1.792-0.672 2.696-0.988 0.756-0.264 1.512-0.522 2.276-0.766 0.92-0.292 1.85-0.564 2.782-0.826 0.764-0.216 1.528-0.432 2.298-0.626 0.952-0.24 1.912-0.454 2.876-0.662 0.766-0.166 1.53-0.338 2.3-0.482 0.988-0.188 1.982-0.342 2.976-0.494 0.762-0.118 1.52-0.244 2.288-0.34 1.030-0.13 2.068-0.222 3.104-0.318 0.742-0.066 1.482-0.148 2.228-0.198 1.094-0.072 2.198-0.1 3.3-0.13 0.698-0.020 1.392-0.058 2.094-0.060 0.128-0.002 0.254-0.012 0.382-0.012 1.624 0 3.248 0.044 4.882 0.134 0 0 0 0 0.002 0s0.002 0 0.006 0c16.72 0.92 32.766 6.618 46.398 16.48 8.456 6.114 15.666 13.588 21.436 22.218l216.426 241.898c4.502 5.030 4.948 12.616 1.106 18.138l-0.304 0.4z" />
<glyph unicode="&#xe636;" glyph-name="Invert" d="M704 394.857l-128-96-71.858 89.824-375.852-281.742 767.71-0.082zM800 490.857c53.018 0 96 42.978 96 96 0 32.208-15.882 60.696-40.224 78.11l-144.878-113.834c14.172-35.322 48.714-60.276 89.102-60.276zM0 810.857v-832h1024v832h-1024zM960 42.857h-895.952l64.242 64.082-0.29-0.082 192 512 184.138-230.176 206.756 162.452c-4.43 11.044-6.894 23.094-6.894 35.724 0 53.020 42.978 96 96 96 20.804 0 40.048-6.64 55.776-17.89l102.896 81.89h1.328v-704z" />
<glyph unicode="&#xe637;" glyph-name="unclip" d="M897.002 246.849v-247.532c0-4.78-4.938-8.816-10.782-8.816h-298.324c-5.844 0-10.782 4.036-10.782 8.816h0.002v31.546l-0.094-0.006v294.652h0.092v552.894h-0.266c-0.004 39.952-33.55 72.454-74.784 72.454h-363.19c-41.234 0-74.782-32.504-74.782-72.458v-56.584h-0.092v-64h0.092v-566.848c0-39.952 33.542-72.458 74.782-72.458h171.364c37.46 0 67.99 26.292 73.766 60.64v580.198h-63.004l-0.206-567.006c0-4.162-2.694-10.192-9.3-10.192h-172.62c-5.844 0-10.782 4.042-10.782 8.816v552.892h-0.092v103l0.096-0.006v31.548h-0.002c0 4.782 4.938 8.816 10.782 8.816h363.194c5.844 0 10.782-4.038 10.782-8.816v-55.542h0.264v-511.304h-0.092v-255.652h0.092v-56.584c0-39.956 33.546-72.458 74.782-72.458h298.322c41.234 0 74.782 32.504 74.784 72.458v247.532h-64.002z" />
<glyph unicode="&#xe638;" glyph-name="Unstaple" d="M465.642 293.659l-17.434 17.432v-0.46zM756.374 872.387h-301.264l-18.744-18.746-199.204-190.036h-237.162v-444.38h237.164l217.948-212.050h301.262l203.99 159.626-0.326 243.412h-64v-64.132h-92.792l-108.972-98.61h-167.978l-169.394 170.928v45.486l169.394 168.206h167.978l108.972-97.002h92.792v-62.132h64l0.326 62.132v179.28l-203.99 158.018zM720.782 696.089h-221l-206.882-205.696v-98.506l206.882-208.416h221l108.972 98.61h66.61v-88.77l-166.5-122.136h-248.244l-217.946 212.050h-199.674v-2.368 318.748h199.672l217.948 208.782h248.244l166.5-120.53v-88.77h-66.61l-108.972 97.002z" />
<glyph unicode="&#xe639;" glyph-name="EmailClipped" d="M800.334 625.657l-112.15-85.806v-105.766l112.15 85.806zM839.48 758.209v55.086c0 39.956-33.546 72.458-74.784 72.458h-106.106c-41.234 0-74.782-32.504-74.782-72.458v-55.086h-583.808v-768h1025.338v768h-185.858zM658.594 822.113h106.108c5.844 0 10.782-4.038 10.782-8.816v-55.086h-127.668v55.084h-0.002c-0.002 4.782 4.936 8.818 10.78 8.818zM945.336 70.209h-865.336v557.298l432.802-327.608 29.336 22.446v105.766l-29.608-22.652-360.33 272.75h431.748v-276.702c0-39.954 33.544-72.458 74.782-72.458h171.362c41.66 0 74.764 32.504 74.764 72.458v210.462l-0.042-0.008v34.532h-64.476v-47.936l-0.156-0.032 0.474-195.644c0-4.16-2.694-10.188-9.304-10.188h-172.62c-5.844 0-10.782 4.040-10.782 8.816v276.7l297.386 0.024v-47.404l0.002 0.002v-560.622zM840.636 598.619l-0.22-0.046v0.044l0.22 0.002z" />
<glyph unicode="&#xe63a;" glyph-name="EmptyViewer" d="M64 950.857v-1024h895v768l-256 256h-639zM859.87 692.989h-157.318v157.318l157.318-157.318zM128-9.143v896h510.544v-256h256.456v-640h-767z" />
<glyph unicode="&#xe63b;" glyph-name="double-angle-left" horiz-adv-x="576" d="M358.272 164.585q0-7.424-5.728-13.152l-28.576-28.576q-5.728-5.728-13.152-5.728t-13.152 5.728l-266.272 266.272q-5.728 5.728-5.728 13.152t5.728 13.152l266.272 266.272q5.728 5.728 13.152 5.728t13.152-5.728l28.576-28.576q5.728-5.728 5.728-13.152t-5.728-13.152l-224.576-224.576 224.576-224.576q5.728-5.728 5.728-13.152zM577.728 164.585q0-7.424-5.728-13.152l-28.576-28.576q-5.728-5.728-13.152-5.728t-13.152 5.728l-266.272 266.272q-5.728 5.728-5.728 13.152t5.728 13.152l266.272 266.272q5.728 5.728 13.152 5.728t13.152-5.728l28.576-28.576q5.728-5.728 5.728-13.152t-5.728-13.152l-224.576-224.576 224.576-224.576q5.728-5.728 5.728-13.152z" />
<glyph unicode="&#xe63c;" glyph-name="double-angle-down" horiz-adv-x="672" d="M614.272 457.129q0-7.424-5.728-13.152l-266.272-266.272q-5.728-5.728-13.152-5.728t-13.152 5.728l-266.272 266.272q-5.728 5.728-5.728 13.152t5.728 13.152l28.576 28.576q5.728 5.728 13.152 5.728t13.152-5.728l224.576-224.576 224.576 224.576q5.728 5.728 13.152 5.728t13.152-5.728l28.576-28.576q5.728-5.728 5.728-13.152zM614.272 676.585q0-7.424-5.728-13.152l-266.272-266.272q-5.728-5.728-13.152-5.728t-13.152 5.728l-266.272 266.272q-5.728 5.728-5.728 13.152t5.728 13.152l28.576 28.576q5.728 5.728 13.152 5.728t13.152-5.728l224.576-224.576 224.576 224.576q5.728 5.728 13.152 5.728t13.152-5.728l28.576-28.576q5.728-5.728 5.728-13.152z" />
<glyph unicode="&#xe63d;" glyph-name="angle-up" horiz-adv-x="672" d="M614.272 274.281q0-7.424-5.728-13.152l-28.576-28.576q-5.728-5.728-13.152-5.728t-13.152 5.728l-224.576 224.576-224.576-224.576q-5.728-5.728-13.152-5.728t-13.152 5.728l-28.576 28.576q-5.728 5.728-5.728 13.152t5.728 13.152l266.272 266.272q5.728 5.728 13.152 5.728t13.152-5.728l266.272-266.272q5.728-5.728 5.728-13.152z" />
<glyph unicode="&#xe63e;" glyph-name="angle-right" horiz-adv-x="352" d="M340 402.281q0-7.424-5.728-13.152l-266.272-266.272q-5.728-5.728-13.152-5.728t-13.152 5.728l-28.576 28.576q-5.728 5.728-5.728 13.152t5.728 13.152l224.576 224.576-224.576 224.576q-5.728 5.728-5.728 13.152t5.728 13.152l28.576 28.576q5.728 5.728 13.152 5.728t13.152-5.728l266.272-266.272q5.728-5.728 5.728-13.152z" />
<glyph unicode="&#xe63f;" glyph-name="angle-left" horiz-adv-x="352" d="M358.272 640.009q0-7.424-5.728-13.152l-224.576-224.576 224.576-224.576q5.728-5.728 5.728-13.152t-5.728-13.152l-28.576-28.576q-5.728-5.728-13.152-5.728t-13.152 5.728l-266.272 266.272q-5.728 5.728-5.728 13.152t5.728 13.152l266.272 266.272q5.728 5.728 13.152 5.728t13.152-5.728l28.576-28.576q5.728-5.728 5.728-13.152z" />
<glyph unicode="&#xe640;" glyph-name="angle-down" horiz-adv-x="672" d="M614.272 530.281q0-7.424-5.728-13.152l-266.272-266.272q-5.728-5.728-13.152-5.728t-13.152 5.728l-266.272 266.272q-5.728 5.728-5.728 13.152t5.728 13.152l28.576 28.576q5.728 5.728 13.152 5.728t13.152-5.728l224.576-224.576 224.576 224.576q5.728 5.728 13.152 5.728t13.152-5.728l28.576-28.576q5.728-5.728 5.728-13.152z" />
<glyph unicode="&#xe641;" glyph-name="zoom-out" d="M192 630.857h320v-64h-320zM637.536 393.001c41.792 57.888 66.464 128.992 66.464 205.856 0 194.4-157.6 352-352 352s-352-157.6-352-352 157.6-352 352-352c76.864 0 147.968 24.64 205.856 66.464l338.144-386.464 128 128-386.464 338.144zM352 342.857c-141.376 0-256 114.624-256 256s114.624 256 256 256 256-114.624 256-256-114.624-256-256-256z" />
<glyph unicode="&#xe642;" glyph-name="zoom-in" d="M384 758.857h-64v-128h-128v-64h128v-128h64v128h128v64h-128zM637.536 393.001c41.792 57.888 66.464 128.992 66.464 205.856 0 194.4-157.6 352-352 352s-352-157.6-352-352 157.6-352 352-352c76.864 0 147.968 24.64 205.856 66.464l338.144-386.464 128 128-386.464 338.144zM352 342.857c-141.376 0-256 114.624-256 256s114.624 256 256 256 256-114.624 256-256-114.624-256-256-256z" />
<glyph unicode="&#xe643;" glyph-name="wrench" d="M1015.776 814.633l-119.776-119.776-128 128 119.776 119.776c-17.664 5.344-36.384 8.224-55.776 8.224-106.048 0-192-85.952-192-192 0-19.392 2.88-38.112 8.224-55.776l-400.48-400.48c-17.664 5.344-36.352 8.224-55.776 8.224-106.048 0-192-85.952-192-192 0-19.392 2.88-38.112 8.224-55.776l119.776 119.776 128-128-119.776-119.776c17.664-5.344 36.384-8.224 55.776-8.224 106.048 0 192 85.952 192 192 0 19.392-2.88 38.112-8.224 55.776l400.48 400.48c17.664-5.344 36.384-8.224 55.776-8.224 106.048 0 192 85.952 192 192 0 19.392-2.88 38.112-8.224 55.776z" />
<glyph unicode="&#xe644;" glyph-name="wand" d="M256 758.857l-128 128h-64v-64l128-128zM320 950.857h64v-128h-64zM576 630.857h128v-64h-128zM640 822.857v64h-64l-128-128 64-64zM0 630.857h128v-64h-128zM320 374.857h64v-128h-64zM64 374.857v-64h64l128 128-64 64zM1010.016 68.841l-636.128 636.128c-18.656 18.656-49.216 18.656-67.872 0l-60.128-60.128c-18.656-18.656-18.656-49.216 0-67.872l636.128-636.128c18.656-18.656 49.216-18.656 67.872 0l60.128 60.128c18.656 18.656 18.656 49.216 0 67.872zM480 406.857l-192 192 64 64 192-192-64-64z" />
<glyph unicode="&#xe645;" glyph-name="user" d="M673.568 290.249c-46.752-35.776-101.792-56.64-161.568-56.64s-114.848 20.864-161.6 56.64c-203.488-41.76-350.4-159.904-350.4-299.392h1024c0 139.488-146.912 257.632-350.432 299.392zM301.504 598.857c0 159.072 94.24 288 210.496 288s210.496-128.928 210.496-288c0 0 0 0 0 0 0-159.072-94.24-288-210.496-288s-210.496 128.928-210.496 288c0 0 0 0 0 0z" />
<glyph unicode="&#xe646;" glyph-name="type" d="M64 950.857v-320l128 192h256v-832h-128l-64-64h512l-64 64h-128v832h256l128-192v320z" />
<glyph unicode="&#xe647;" glyph-name="transmission" d="M704 342.857v224h-704v128h704v224l288-288-288-288zM320 310.857h704v-128h-704v-224l-288 288 288 288v-224z" />
<glyph unicode="&#xe648;" glyph-name="stop" d="M128 822.857h768v-768h-768z" />
<glyph unicode="&#xe649;" glyph-name="star" d="M1024 553.801l-353.792 51.424-158.208 320.576-158.208-320.576-353.792-51.424 256-249.536-60.448-352.352 316.448 166.368 316.448-166.368-60.448 352.352 256 249.536z" />
<glyph unicode="&#xe64a;" glyph-name="stack" d="M1024 630.857l-512 256-512-256 512-256 512 256zM512 801.897l342.048-171.040-342.048-171.040-342.048 171.040 342.048 171.040zM921.44 490.121l102.56-51.264-512-256-512 256 102.56 51.264 409.44-204.736zM921.44 298.121l102.56-51.264-512-256-512 256 102.56 51.264 409.44-204.736z" />
<glyph unicode="&#xe64b;" glyph-name="square" d="M0 950.857h1024v-1024h-1024z" />
<glyph unicode="&#xe64c;" glyph-name="spinner" d="M1024 566.857h-384l143.52 143.52c-72.544 72.512-168.96 112.48-271.52 112.48s-199.008-39.936-271.52-112.48c-72.512-72.544-112.48-168.96-112.48-271.52s39.936-199.008 112.48-271.52c72.544-72.512 168.96-112.48 271.52-112.48s199.008 39.936 271.52 112.48c6.048 6.048 11.872 12.288 17.472 18.656l96.32-84.288c-93.856-107.168-231.648-174.848-385.312-174.848-282.784 0-512 229.216-512 512s229.216 512 512 512c141.376 0 269.376-57.312 362.016-149.984l149.984 149.984v-384z" />
<glyph unicode="&#xe64d;" glyph-name="sort" d="M384 694.857v-704h-128v704h-160l224 224 224-224zM640 182.857v704h128v-704h160l-224-224-224 224z" />
<glyph unicode="&#xe64e;" glyph-name="search2" d="M898.144 12.361l-229.088 336.608c130.912 103.68 167.936 291.36 79.68 438.24-95.84 159.552-303.616 211.328-463.168 115.52-159.52-95.872-211.328-303.648-115.488-463.168 86.432-143.872 263.936-200.096 414.944-139.424l190.272-361.568c5.888-11.232 19.616-15.040 30.464-8.544l85.568 51.456c10.88 6.528 13.92 20.416 6.784 30.912zM577.568 416.809c-108.416-65.12-249.6-29.92-314.752 78.496-65.12 108.384-29.888 249.6 78.496 314.72 108.384 65.152 249.568 29.92 314.688-78.496 65.152-108.384 29.952-249.632-78.464-314.72z" />
<glyph unicode="&#xe64f;" glyph-name="search" d="M320 950.857c176.736 0 320-143.264 320-320 0-65.248-19.552-125.92-53.056-176.512 0 0 0.032 0.032 0.032 0.032l70.368-70.368c34.88 19.232 67.68 22.816 84.448 6.080l271.52-271.52c24.992-24.992 4.736-85.792-45.248-135.776s-110.784-70.24-135.776-45.248l-271.52 271.52c-16.736 16.736-13.152 49.568 6.080 84.448l-70.368 70.368c0.032 0.032 0.096 0.064 0.128 0.096-50.624-33.568-111.296-53.12-176.576-53.12-176.736 0-320 143.264-320 320s143.264 320 320 320zM138.976 449.833c48.352-48.352 112.64-74.976 181.024-74.976s132.672 26.624 181.024 74.976c48.352 48.352 74.976 112.64 74.976 181.024s-26.624 132.672-74.976 181.024c-48.352 48.352-112.64 74.976-181.024 74.976s-132.672-26.624-181.024-74.976c-48.352-48.352-74.976-112.64-74.976-181.024s26.624-132.672 74.976-181.024zM512 630.857c0-28.8-6.336-56.096-17.696-80.608-14.528 133.984-120.928 240.384-254.912 254.912 24.512 11.36 51.808 17.696 80.608 17.696 106.048 0 192-85.952 192-192z" />
<glyph unicode="&#xe650;" glyph-name="screen" d="M0 886.857v-640h1024v640h-1024zM960 310.857h-896v512h896v-512zM672 182.857h-320l-32-128-64-64h512l-64 64z" />
<glyph unicode="&#xe651;" glyph-name="rotate2" d="M896 374.857c0 247.424-200.576 448-448 448s-448-200.576-448-448c0-173.376 98.496-323.744 242.56-398.208-106.624 65.984-178.56 190.912-178.56 334.208 0 212.064 157.6 384 352 384 174.4 0 319.168-138.4 347.072-320h-123.072l192-224 192 224h-128z" />
<glyph unicode="&#xe652;" glyph-name="rotate" d="M128 374.857c0 247.424 200.576 448 448 448s448-200.576 448-448c0-173.376-98.496-323.744-242.56-398.208 106.624 65.984 178.56 190.912 178.56 334.208 0 212.064-157.6 384-352 384-174.4 0-319.168-138.4-347.072-320h123.072l-192-224-192 224h128z" />
<glyph unicode="&#xe653;" glyph-name="remove" d="M800 822.857h-576c-53.024 0-96-42.976-96-96v-32h768v32c0 53.024-42.976 96-96 96zM632.32 886.857l14.112-100.992h-268.864l14.112 100.992h240.64zM640 950.857h-256c-26.4 0-50.976-21.376-54.656-47.552l-18.72-133.92c-3.648-26.144 14.944-47.552 41.344-47.552h320c26.4 0 45.024 21.376 41.344 47.552l-18.72 133.92c-3.648 26.144-28.256 47.552-54.656 47.552v0zM816 630.857h-608c-35.2 0-61.376-28.672-58.208-63.744l52.416-576.512c3.2-35.040 34.592-63.744 69.792-63.744h480c35.2 0 66.592 28.672 69.792 63.744l52.416 576.512c3.2 35.040-23.008 63.744-58.208 63.744zM384 54.857h-96l-32 448h128v-448zM576 54.857h-128v448h128v-448zM736 54.857h-96v448h128l-32-448z" />
<glyph unicode="&#xe654;" glyph-name="pushpin" d="M544 950.857l-96-96 96-96-224-256h-224l176-176-272-360.608v-39.392h39.392l360.608 272 176-176v224l256 224 96-96 96 96-480 480zM448 406.857l-64 64 224 224 64-64-224-224z" />
<glyph unicode="&#xe655;" glyph-name="print" d="M256 886.857h512v-128h-512zM960 694.857h-896c-35.2 0-64-28.8-64-64v-320c0-35.2 28.8-64 64-64h192v-256h512v256h192c35.2 0 64 28.8 64 64v320c0 35.2-28.8 64-64 64zM704 54.857h-384v320h384v-320zM974.4 598.857c0-25.632-20.768-46.4-46.4-46.4s-46.4 20.768-46.4 46.4 20.768 46.4 46.4 46.4c25.632 0 46.4-20.768 46.4-46.4z" />
<glyph unicode="&#xe656;" glyph-name="plus" d="M992 566.857h-352v352c0 17.664-14.336 32-32 32h-192c-17.664 0-32-14.336-32-32v-352h-352c-17.664 0-32-14.336-32-32v-192c0-17.664 14.336-32 32-32h352v-352c0-17.664 14.336-32 32-32h192c17.664 0 32 14.336 32 32v352h352c17.664 0 32 14.336 32 32v192c0 17.664-14.336 32-32 32z" />
<glyph unicode="&#xe657;" glyph-name="pencil" d="M448 246.857v-128l-67.2-28.8-217.6 217.6 28.8 67.2h128v-128zM134.4 240.457l179.2-179.2-313.6-134.4zM1024 662.857l-480-480h-32v64l416 416-48 48-400-400h-96v96l400 400-48 48-416-416h-64v32l480 480z" />
<glyph unicode="&#xe658;" glyph-name="page-break" d="M0 438.857h128v-64h-128zM192 438.857h192v-64h-192zM448 438.857h128v-64h-128zM640 438.857h192v-64h-192zM896 438.857h128v-64h-128zM880 950.857l16-448h-768l16 448h32l16-384h640l16 384zM144-73.143l-16 384h768l-16-384h-32l-16 320h-640l-16-320z" />
<glyph unicode="&#xe659;" glyph-name="move" d="M1024 438.857l-256 192v-128h-192v192h128l-192 256-192-256h128v-192h-192v128l-256-192 256-192v128h192v-192h-128l192-256 192 256h-128v192h192v-128z" />
<glyph unicode="&#xe65a;" glyph-name="minus" d="M0 534.857v-192c0-17.664 14.336-32 32-32h960c17.664 0 32 14.336 32 32v192c0 17.664-14.336 32-32 32h-960c-17.664 0-32-14.336-32-32z" />
<glyph unicode="&#xe65b;" glyph-name="menu" d="M896 182.857h-768c-70.4 0-128-57.6-128-128s57.6-128 128-128h768c70.4 0 128 57.6 128 128s-57.6 128-128 128zM896 566.857h-768c-70.4 0-128-57.6-128-128s57.6-128 128-128h768c70.4 0 128 57.6 128 128s-57.6 128-128 128zM128 694.857h768c70.4 0 128 57.6 128 128s-57.6 128-128 128h-768c-70.4 0-128-57.6-128-128s57.6-128 128-128z" />
<glyph unicode="&#xe65c;" glyph-name="marker" d="M456-33.143h568v16h-552zM488-1.143h536v16h-520zM424-65.143h600v16h-584zM584 94.857h440v16h-424zM552 62.857h472v16h-456zM520 30.857h504v16h-488zM938.976 865.833c-51.936 51.936-111.072 85.024-168.832 85.024-39.52 0-78.432-15.488-113.952-51.040l-495.744-492.512-160.448-416.448 64-64 416.448 160.448 492.544 495.744c87.488 87.488 53.472 195.296-34.016 282.784zM480.288 177.961l-229.184 229.184 403.616 400.992 226.56-226.56-400.992-403.616z" />
<glyph unicode="&#xe65d;" glyph-name="list2" d="M0 950.857h256v-256h-256zM384 886.857h640v-128h-640zM0 566.857h256v-256h-256zM384 502.857h640v-128h-640zM0 182.857h256v-256h-256zM384 118.857h640v-128h-640z" />
<glyph unicode="&#xe65e;" glyph-name="list" d="M0 950.857h256v-256h-256zM384 950.857h640v-256h-640zM0 566.857h256v-256h-256zM384 566.857h640v-256h-640zM0 182.857h256v-256h-256zM384 182.857h640v-256h-640z" />
<glyph unicode="&#xe65f;" glyph-name="link" d="M320 246.857c17.6-17.6 47.264-16.736 65.952 1.952l316.128 316.128c18.656 18.656 19.552 48.352 1.952 65.952s-47.264 16.736-65.952-1.952l-316.128-316.128c-18.656-18.656-19.552-48.352-1.952-65.952zM476.896 275.753c4.576-9.056 6.976-19.168 6.976-29.696 0-17.6-6.752-34.048-19.008-46.304l-163.392-163.392c-12.256-12.256-28.704-18.976-46.304-18.976s-34.048 6.752-46.304 18.976l-99.392 99.392c-12.256 12.256-19.008 28.704-19.008 46.304s6.752 34.048 19.008 46.304l163.392 163.392c12.256 12.256 28.704 19.008 46.304 19.008 10.528 0 20.64-2.432 29.696-6.976l65.344 65.344c-27.872 21.408-61.44 32.16-95.040 32.16-40 0-79.968-15.168-110.304-45.504l-163.392-163.392c-60.672-60.672-60.672-159.936 0-220.608l99.392-99.392c30.336-30.336 70.304-45.504 110.304-45.504s79.968 15.168 110.304 45.504l163.392 163.392c55.808 55.808 60.224 144.288 13.344 205.344l-65.344-65.344zM978.496 805.961l-99.392 99.392c-30.336 30.336-70.304 45.504-110.304 45.504s-79.968-15.168-110.304-45.504l-163.392-163.392c-55.808-55.808-60.224-144.288-13.344-205.344l65.344 65.344c-4.544 9.056-6.976 19.168-6.976 29.696 0 17.6 6.752 34.048 18.976 46.304l163.392 163.392c12.256 12.256 28.704 19.008 46.304 19.008s34.048-6.752 46.304-19.008l99.392-99.392c12.256-12.256 18.976-28.704 18.976-46.304s-6.752-34.048-18.976-46.304l-163.392-163.392c-12.256-12.256-28.704-19.008-46.304-19.008-10.528 0-20.64 2.432-29.696 6.976l-65.344-65.344c27.872-21.408 61.44-32.16 95.040-32.16 40 0 79.968 15.168 110.304 45.504l163.392 163.392c60.672 60.672 60.672 159.936 0 220.608z" />
<glyph unicode="&#xe660;" glyph-name="intelligent_indexing" d="M403.2 38.857c0 0 0-25.2 0-56s18.8-56 42-56h132c23.2 0 42 25.2 42 56s0 56 0 56h-216zM516.4 950.857c-215.6 0-328.4-169.6-328.4-324.4 0-173.2 176.8-358 178.8-528h286.8c0.4 170.4 180.8 359.6 180.8 529.2-0.4 145.2-102.8 323.2-318 323.2z" />
<glyph unicode="&#xe661;" glyph-name="key" d="M704 950.857c-176.736 0-320-143.264-320-320 0-20.032 1.856-39.616 5.376-58.624l-389.376-389.376v-192c0-35.36 28.64-64 64-64h64v64h128v128h128v128h128l83.040 83.040c34.016-12.32 70.688-19.040 108.96-19.040 176.736 0 320 143.264 320 320s-143.264 320-320 320zM799.872 630.729c-53.024 0-96 42.976-96 96s42.976 96 96 96 96-42.976 96-96-42.976-96-96-96z" />
<glyph unicode="&#xe662;" glyph-name="info" d="M512 950.857c-282.784 0-512-229.216-512-512s229.216-512 512-512 512 229.216 512 512-229.216 512-512 512zM512 22.857c-229.76 0-416 186.24-416 416s186.24 416 416 416 416-186.24 416-416-186.24-416-416-416zM448 694.857h128v-128h-128zM640 182.857h-256v64h64v192h-64v64h192v-256h64z" />
<glyph unicode="&#xe663;" glyph-name="highlight" d="M672 854.697l239.84-207.84 0.16 0.16-208 239.68 239.904-207.744 48.096-48.096-336.352-336.352c-29.6-29.6-75.168-34.176-109.696-13.664l46.048 46.208-208 239.68 239.84-207.84 0.16 0.16-208 239.68 239.84-207.84 0.16 0.16-208 239.68 239.84-207.84 0.16 0.16-208 239.68 239.84-207.84 0.16 0.16-208 239.68 239.84-207.84 0.16 0.16-208 239.68 239.84-207.84 0.16 0.16-208 239.68 239.84-207.84 0.16 0.16-208 239.68 239.84-207.84 0.16 0.16-208 239.68 239.84-207.84 0.16 0.16-208 239.68zM720.096 902.761l-398.112-397.952c-8.384 14.112-12.576 30.080-12.576 46.048 0 23.072 8.736 46.144 26.24 63.648l336.352 336.352 48.096-48.096zM321.952 504.809l224-224-161.952-161.952h-384v64z" />
<glyph unicode="&#xe664;" glyph-name="flag" d="M591.648 876.681c-22.624 67.296-289.664 46.368-371.136 44.384-7.744 17.568-24.48 29.824-43.744 29.824-26.624 0-48.416-23.264-48.416-51.712v-920.576c0-28.448 21.792-51.712 48.416-51.712s48.416 23.264 48.416 51.712v439.936c85.984 64.352 348.768 142.688 366.496 86.528 19.776-62.72 210.848-113.792 303.968-70.528 0 0 0 317.792 0 406.24-207.264-91.2-278.4-40.192-304 35.936zM225.184 441.449v448.64c28.64-67.168 81.664-237.984 0-448.64z" />
<glyph unicode="&#xe665;" glyph-name="file-remove" d="M64 886.857h576v-192h192v-320h64v320l-256 256h-640v-1024h576v64h-512v896zM922.496 118.857l101.504 101.504v90.496h-90.496l-101.504-101.504-101.504 101.504h-90.496v-90.496l101.504-101.504-101.504-101.504v-90.496h90.496l101.504 101.504 101.504-101.504h90.496v90.496z" />
<glyph unicode="&#xe666;" glyph-name="file-download" d="M576 502.857h-192v-320h-160l256-256 256 256h-160zM640 950.857h-576v-384l32-640 32 640v320h512v-192h192v-128l32-640 32 640v128z" />
<glyph unicode="&#xe667;" glyph-name="file2" d="M892.128 762.729l-120.224 120.224c-37.344 37.344-111.072 67.872-163.872 67.872h-448c-52.8 0-96-43.2-96-96v-832c0-52.8 43.2-96 96-96h704c52.8 0 96 43.2 96 96v576c0 52.8-30.56 126.56-67.872 163.872zM640 815.305c2.208-0.8 4.448-1.696 6.752-2.624 18.048-7.488 30.592-16.16 34.624-20.192l120.224-120.224c4.032-4.032 12.704-16.544 20.192-34.624 0.96-2.304 1.824-4.576 2.624-6.752h-184.448v184.448zM832 54.857h-640v768h384v-256h256v-512zM256 438.857h512v-64h-512zM256 310.857h512v-64h-512zM256 182.857h512v-64h-512z" />
<glyph unicode="&#xe668;" glyph-name="file" d="M704 950.857h-640v-1024h896v768l-256 256zM896-9.143h-768v896h576v-192h192v-704z" />
<glyph unicode="&#xe669;" glyph-name="eye" d="M512 758.857c-223.328 0-416.896-130.048-512-320 95.104-189.952 288.672-320 512-320s416.864 130.048 512 320c-95.104 189.952-288.672 320-512 320zM764.448 589.161c60.16-38.368 111.136-89.76 149.44-150.304-38.304-60.512-89.28-111.936-149.44-150.304-75.584-48.224-162.88-73.696-252.448-73.696s-176.864 25.472-252.448 73.696c-60.16 38.368-111.136 89.76-149.44 150.304 38.304 60.512 89.28 111.936 149.44 150.304 3.904 2.496 7.872 4.928 11.872 7.296-9.952-27.328-15.424-56.832-15.424-87.584 0-141.376 114.624-256 256-256s256 114.624 256 256c0 30.784-5.44 60.256-15.424 87.584 3.968-2.368 7.936-4.8 11.872-7.296zM512 540.841c0-53.024-42.976-96-96-96s-96 42.976-96 96 42.976 96 96 96 96-42.976 96-96z" />
<glyph unicode="&#xe66a;" glyph-name="basket" d="M1023.464 356.58l0.040-348.604h-1023.504v348.604l212.206 422.014h599.048l212.21-422.014zM127.328 392.794h129.24l113.736-135.798h292.704l106.578 135.798h126.642l-150.090 311.688h-469.61l-149.2-311.688z" />
<glyph unicode="&#xe66b;" glyph-name="disk" d="M896 950.857h-896v-1024h1024v896l-128 128zM512 822.857h128v-256h-128v256zM896 54.857h-768v768h64v-320h576v320h74.976l53.024-53.024v-714.976z" />
<glyph unicode="&#xe66c;" glyph-name="database" d="M512 950.857c-282.784 0-512-85.952-512-192v-640c0-106.048 229.216-192 512-192s512 85.952 512 192v640c0 106.048-229.216 192-512 192zM960 118.857c0-9.12-19.904-42.656-108.448-75.84-43.008-16.128-93.568-28.864-150.304-37.856-59.808-9.504-123.488-14.304-189.28-14.304-65.76 0-129.44 4.8-189.28 14.304-56.736 8.992-107.296 21.728-150.304 37.856-88.512 33.184-108.448 66.72-108.448 75.84v227.008c87.328-59.040 255.2-99.008 448-99.008s360.672 39.968 448 99.008v-227.008zM960 438.857c0-9.12-19.904-42.656-108.448-75.84-43.008-16.128-93.568-28.864-150.304-37.856-59.808-9.504-123.488-14.304-189.28-14.304-65.76 0-129.44 4.8-189.28 14.304-56.736 8.992-107.296 21.728-150.304 37.856-88.512 33.184-108.448 66.72-108.448 75.84v227.008c87.328-59.040 255.2-99.008 448-99.008s360.672 39.968 448 99.008v-227.008zM880.352 694.857c-8.672-3.936-18.24-7.872-28.768-11.84-43.008-16.128-93.568-28.864-150.304-37.856-59.808-9.472-123.488-14.304-189.28-14.304-65.76 0-129.44 4.8-189.28 14.304-56.736 8.992-107.296 21.728-150.304 37.856-10.56 3.968-20.096 7.904-28.768 11.84-64.16 28.992-79.648 55.968-79.648 64 0 9.12 19.936 42.656 108.448 75.84 43.008 16.128 93.568 28.864 150.304 37.856 59.808 9.472 123.488 14.304 189.28 14.304 65.76 0 129.44-4.8 189.28-14.304 56.736-8.992 107.296-21.728 150.304-37.856 88.512-33.184 108.448-66.72 108.448-75.84 0-8.032-15.488-35.008-79.648-64z" />
<glyph unicode="&#xe66d;" glyph-name="cursor" d="M647.648 465.129l-647.648 485.728v-809.536l202.144 190.624 202.144-405.056 171.744 85.856-202.144 405.056z" />
<glyph unicode="&#xe66e;" glyph-name="copy" d="M832 694.857h-192v64l-192 192h-448v-768h384v-256h640v576l-192 192zM832 604.361l101.504-101.504h-101.504v101.504zM448 860.361l101.504-101.504h-101.504v101.504zM64 886.857h320v-192h192v-448h-512v640zM960-9.143h-512v192h192v448h128v-192h192v-448z" />
<glyph unicode="&#xe66f;" glyph-name="cog" d="M1024 342.761v192.192l-146.784 24.448c-5.952 18.144-13.216 35.68-21.696 52.512l86.464 121.024-135.904 135.904-120.832-86.304c-16.896 8.544-34.528 15.904-52.768 21.888l-24.416 146.4h-192.192l-24.416-146.4c-18.24-6.016-35.872-13.344-52.768-21.888l-120.832 86.304-135.904-135.904 86.464-121.024c-8.48-16.832-15.744-34.368-21.696-52.512l-146.784-24.448v-192.192l147.104-24.512c5.952-17.952 13.216-35.36 21.632-52.032l-86.752-121.44 135.904-135.904 121.664 86.88c16.608-8.352 33.888-15.52 51.776-21.44l24.576-147.456h192.192l24.576 147.488c17.888 5.92 35.168 13.088 51.776 21.44l121.664-86.88 135.904 135.904-86.752 121.44c8.448 16.672 15.68 34.048 21.632 52.032l147.104 24.512zM512 310.857c-70.688 0-128 57.312-128 128s57.312 128 128 128c70.688 0 128-57.312 128-128s-57.312-128-128-128z" />
<glyph unicode="&#xe670;" glyph-name="close2" d="M761.248 280.105l-90.528-90.528-158.752 158.752-158.752-158.752-90.496 90.496 158.752 158.752-158.752 158.752 90.496 90.496 158.752-158.752 158.752 158.752 90.496-90.496-158.752-158.752 158.752-158.752zM512 802.857c-97.216 0-188.64-37.856-257.376-106.624-68.768-68.736-106.624-160.16-106.624-257.376s37.856-188.64 106.624-257.376c68.736-68.736 160.16-106.624 257.376-106.624s188.64 37.856 257.376 106.624c68.736 68.736 106.624 160.16 106.624 257.376s-37.856 188.64-106.624 257.376c-68.736 68.768-160.16 106.624-257.376 106.624zM512 886.857v0c247.424 0 448-200.576 448-448s-200.576-448-448-448c-247.424 0-448 200.576-448 448s200.576 448 448 448z" />
<glyph unicode="&#xe671;" glyph-name="close" d="M1014.656 128.201c0 0 0 0 0 0l-310.656 310.656 310.656 310.656c0 0 0 0 0 0 3.36 3.36 5.76 7.264 7.328 11.424 4.256 11.392 1.824 24.672-7.328 33.824l-146.752 146.752c-9.152 9.152-22.464 11.552-33.824 7.328-4.16-1.536-8.064-3.968-11.424-7.296 0 0 0 0 0 0l-310.656-310.656-310.656 310.656c0 0 0 0 0 0-3.36 3.328-7.264 5.76-11.424 7.296-11.392 4.256-24.672 1.824-33.824-7.328l-146.752-146.752c-9.152-9.152-11.552-22.464-7.328-33.824 1.568-4.16 3.968-8.064 7.328-11.424 0 0 0 0 0 0l310.656-310.656-310.656-310.656c0 0 0 0 0 0-3.328-3.36-5.76-7.264-7.328-11.424-4.256-11.36-1.824-24.672 7.328-33.824l146.752-146.752c9.152-9.152 22.464-11.552 33.824-7.328 4.16 1.568 8.064 3.968 11.424 7.328 0 0 0 0 0 0l310.656 310.656 310.656-310.656c0 0 0 0 0 0 3.36-3.36 7.264-5.76 11.424-7.328 11.392-4.256 24.672-1.824 33.824 7.328l146.752 146.752c9.152 9.152 11.584 22.464 7.328 33.824-1.568 4.16-3.968 8.064-7.328 11.424z" />
<glyph unicode="&#xe672;" glyph-name="clock" d="M658.752 201.609l-210.752 210.752v282.496h128v-229.504l173.248-173.248zM512 950.857c-282.784 0-512-229.216-512-512s229.216-512 512-512 512 229.216 512 512-229.216 512-512 512zM512 54.857c-212.064 0-384 171.936-384 384s171.936 384 384 384c212.064 0 384-171.936 384-384s-171.936-384-384-384z" />
<glyph unicode="&#xe673;" glyph-name="circle2" d="M0 438.857c0 282.784 229.216 512 512 512s512-229.216 512-512c0-282.784-229.216-512-512-512s-512 229.216-512 512z" />
<glyph unicode="&#xe674;" glyph-name="circle" d="M512 950.857c-282.784 0-512-229.216-512-512s229.216-512 512-512 512 229.216 512 512-229.216 512-512 512zM512-9.143c-247.424 0-448 200.576-448 448s200.576 448 448 448 448-200.576 448-448-200.576-448-448-448z" />
<glyph unicode="&#xe675;" glyph-name="checkmark" d="M983.072 886.857c-334.496-253.152-655.296-591.808-655.296-591.808l-231.168 207.808-96.576-98.368c95.008-89.312 315.168-325.184 389.632-413.632 209.6 350.176 427.488 611.328 634.368 850.144l-40.928 45.856z" />
<glyph unicode="&#xe676;" glyph-name="checkbox-unchecked" d="M896 822.857v-768h-768v768h768zM928 950.857h-832c-52.8 0-96-43.2-96-96v-832c0-52.8 43.2-96 96-96h832c52.8 0 96 43.2 96 96v832c0 52.8-43.2 96-96 96v0z" />
<glyph unicode="&#xe677;" glyph-name="certificate2" d="M64 950.857v-1024h896v1024h-896zM896-9.143h-768v896h768v-896zM192 758.857h320v-64h-320zM192 630.857h320v-64h-320zM192 502.857h320v-64h-320zM192 375.497h320v-64h-320zM192 246.857h320v-64h-320zM192 118.857h640v-64h-640zM768 502.857v-320l-64 96-64-96v320zM832 732.361l-37.504-37.504 37.504-37.504v-26.496h-64v-64h-26.496l-37.504 37.504-37.504-37.504h-26.496v64h-64v26.496l37.504 37.504-37.504 37.504v26.496h64v64h26.496l37.504-37.504 37.504 37.504h26.496v-64h64z" />
<glyph unicode="&#xe678;" glyph-name="cd" d="M512 534.377c-52.672 0-95.52-42.848-95.52-95.52s42.848-95.52 95.52-95.52c52.672 0 95.52 42.848 95.52 95.52s-42.848 95.52-95.52 95.52zM512 950.857c-282.784 0-512-229.216-512-512s229.216-512 512-512 512 229.216 512 512-229.216 512-512 512zM878.88 702.889c-3.84 5.344-7.808 10.592-11.872 15.776 4.096-5.184 8.032-10.432 11.872-15.776zM853.504 734.921c-2.272 2.624-4.576 5.216-6.944 7.808 2.336-2.592 4.64-5.184 6.944-7.808zM845.856 743.497c-2.24 2.464-4.512 4.928-6.816 7.328 2.304-2.432 4.576-4.864 6.816-7.328zM201.024 110.857c2.784-2.656 5.6-5.248 8.448-7.808-2.848 2.56-5.664 5.152-8.448 7.808zM209.856 102.697c2.944-2.624 5.888-5.216 8.896-7.776-3.008 2.56-5.952 5.152-8.896 7.776zM272.384 55.497c-3.84 2.4-7.616 4.864-11.36 7.36h15.968l-4.608-7.36zM287.008 78.857h-48.352c3.584-2.72 7.232-5.408 10.912-8.032-10.56 7.552-20.832 15.584-30.752 24.032h78.176l-10.016-16zM260.992 62.889c-3.776 2.528-7.52 5.12-11.232 7.776 3.712-2.656 7.456-5.248 11.232-7.776zM307.008 110.857h-105.984c-2.912 2.752-5.792 5.536-8.64 8.384-4.896 4.896-9.6 9.888-14.24 14.976 2.24-2.464 4.512-4.928 6.848-7.36h132l-10.016-16zM170.432 142.857c2.304-2.624 4.608-5.248 6.976-7.84-2.368 2.592-4.672 5.216-6.976 7.84zM327.008 142.857h-156.544c-8.928 10.304-17.376 20.96-25.312 31.968 3.904-5.408 7.904-10.72 12.032-15.968h179.84l-10.016-16zM347.008 174.857h-201.92c-5.728 7.968-11.232 16.096-16.448 24.384 1.76-2.816 3.584-5.6 5.44-8.384h222.944l-10.016-16zM367.008 206.857h-226.208l25.6 16h210.592l-10.016-16zM387.008 238.857h-195.008l25.6 16h179.392l-10.016-16zM847.904 648.809l9.696 6.048h-210.592l-10.016-16h195.008l-25.6-16h-179.392l-10.016-16h163.808l-25.6-16h-143.104c7.328-4.832 14.304-10.176 20.832-16h96.672l-25.6-16h-55.2c4.48-5.088 8.672-10.432 12.544-16h17.056l-12.032-7.52c17.504-27.968 27.648-61.024 27.648-96.48 0-100.512-81.472-182.016-182.016-182.016-35.424 0-68.512 10.144-96.48 27.648l-8.544-13.632h-163.808l25.6 16h143.104c-7.328 4.832-14.304 10.176-20.832 16h-96.672l63.232 39.52c-17.504 27.968-27.648 61.024-27.648 96.48 0 100.512 81.472 182.016 182.016 182.016 35.424 0 68.512-10.144 96.48-27.648l143.136 229.024c7.712-4.832 15.232-9.888 22.624-15.168-3.712 2.656-7.488 5.248-11.264 7.808h-15.968l-10.016-16h48.352c-3.616 2.752-7.264 5.44-10.944 8.064 10.592-7.552 20.832-15.584 30.784-24.064h-78.176l-10.016-16h105.984c-2.784 2.624-5.6 5.216-8.416 7.776 5.792-5.216 11.488-10.592 17.056-16.16 2.496-2.496 4.96-5.056 7.392-7.616h-132l-10.016-16h156.544c4.544-5.248 8.992-10.56 13.28-16h-179.84l-10.016-16h201.92c5.728-7.968 11.232-16.096 16.448-24.416l-47.456-29.664zM805.28 782.793c2.976-2.56 5.952-5.152 8.864-7.776-2.944 2.624-5.888 5.216-8.864 7.776zM667.008 686.857l-10.016-16h226.208l12.16 7.616c-1.76 2.816-3.584 5.6-5.44 8.384h-222.944zM345.6 334.857l-25.6-16h55.2c-4.48 5.088-8.672 10.432-12.544 16h-17.056z" />
<glyph unicode="&#xe679;" glyph-name="calendar" d="M320 566.857h128v-128h-128zM512 566.857h128v-128h-128zM704 566.857h128v-128h-128zM128 182.857h128v-128h-128zM320 182.857h128v-128h-128zM512 182.857h128v-128h-128zM320 374.857h128v-128h-128zM512 374.857h128v-128h-128zM704 374.857h128v-128h-128zM128 374.857h128v-128h-128zM832 950.857v-64h-128v64h-448v-64h-128v64h-128v-1024h960v1024h-128zM896-9.143h-832v704h832v-704z" />
<glyph unicode="&#xe67a;" glyph-name="file_cabinet1" d="M512 950.857c-282.8 0-512-71.6-512-160v-128c0-88.4 229.2-160 512-160s512 71.6 512 160v128c0 88.4-229.2 160-512 160zM512 406.857c-282.8 0-512 71.6-512 160v-192c0-88.4 229.2-160 512-160s512 71.6 512 160v192c0-88.4-229.2-160-512-160zM512 118.857c-282.8 0-512 71.6-512 160v-192c0-88.4 229.2-160 512-160s512 71.6 512 160v192c0-88.4-229.2-160-512-160z" />
<glyph unicode="&#xe67b;" glyph-name="bubble2" d="M512 886.857c282.784 0 512-186.24 512-416s-229.216-416-512-416c-27.168 0-53.824 1.728-79.84 5.056-109.984-109.984-241.248-129.696-368.16-132.608v26.912c68.544 33.568 128 94.752 128 164.64 0 9.76-0.768 19.328-2.176 28.704-115.808 76.256-189.824 192.768-189.824 323.296 0 229.76 229.216 416 512 416z" />
<glyph unicode="&#xe67c;" glyph-name="bubble" d="M192 694.857h640v-64h-640zM192 566.857h512v-64h-512zM192 438.857h256v-64h-256zM928 886.857h-832c-52.8 0-96-43.2-96-96v-512c0-52.8 43.2-96 96-96h160v-256l307.2 256h364.8c52.8 0 96 43.2 96 96v512c0 52.8-43.2 96-96 96zM896 310.857h-379.136l-196.864-174.72v174.72h-192v448h768v-448z" />
<glyph unicode="&#xe67d;" glyph-name="attachment" d="M697.824 623.817l-64.96 64.928-324.8-324.736c-53.824-53.792-53.824-141.056 0-194.848 53.792-53.792 141.056-53.792 194.88 0l389.76 389.696c89.728 89.664 89.728 235.072 0 324.736-89.664 89.696-235.104 89.696-324.768 0l-409.216-409.184c-0.288-0.288-0.608-0.576-0.864-0.832-125.088-125.088-125.088-327.84 0-452.896 125.056-125.056 327.872-125.056 452.992 0 0.288 0.288 0.512 0.576 0.832 0.864l0.032-0.032 279.328 279.296-64.992 64.928-279.328-279.264c-0.288-0.256-0.576-0.576-0.832-0.832-89.088-89.056-233.984-89.056-323.072 0-89.056 89.056-89.056 233.92 0 322.976 0.32 0.288 0.608 0.576 0.896 0.832l-0.032 0.064 409.28 409.152c53.696 53.728 141.152 53.728 194.88 0 53.696-53.728 53.696-141.152 0-194.848l-389.76-389.696c-17.92-17.92-47.040-17.92-64.96 0-17.888 17.888-17.888 47.040 0 64.928l324.8 324.768z" />
<glyph unicode="&#xe67e;" glyph-name="arrow-up-right" d="M832.032 822.857c0 0-0.032 0-0.032 0h-383.968c-35.36 0-64-28.64-64-64s28.64-64 64-64h229.504l-530.752-530.752c-24.992-24.992-24.992-65.504 0-90.496 12.512-12.512 28.864-18.752 45.248-18.752s32.768 6.24 45.248 18.752l530.752 530.752v-229.504c0-35.36 28.64-64 64-64s64 28.64 64 64v448h-63.968z" />
<glyph unicode="&#xe67f;" glyph-name="arrow-up" d="M768 310.857l-256 256-256-256z" />
<glyph unicode="&#xe680;" glyph-name="arrow-right" d="M384 182.857l256 256-256 256z" />
<glyph unicode="&#xe681;" glyph-name="arrow-left" d="M640 694.857l-256-256 256-256z" />
<glyph unicode="&#xe682;" glyph-name="arrow-down-left" d="M512-73.143c282.784 0 512 229.216 512 512s-229.216 512-512 512-512-229.216-512-512 229.216-512 512-512zM512 854.857c229.76 0 416-186.24 416-416s-186.24-416-416-416-416 186.24-416 416 186.24 416 416 416zM640 182.857c35.36 0 64 28.64 64 64s-28.64 64-64 64h-165.472l274.752 274.752c24.992 24.992 24.992 65.504 0 90.528-12.48 12.48-28.864 18.752-45.248 18.752s-32.768-6.24-45.248-18.752l-274.752-274.752v165.504c0 35.36-28.64 64-64 64s-64-28.64-64-64v-384h384z" />
<glyph unicode="&#xe683;" glyph-name="arrow-down" d="M256 566.857l256-256 256 256z" />
<glyph unicode="&#xe684;" glyph-name="arrow" d="M658.752 228.105l-82.752-82.752v586.976l82.752-82.752c12.512-12.48 28.864-18.752 45.248-18.752s32.768 6.24 45.248 18.752c24.992 24.992 24.992 65.504 0 90.496l-192 192c-24.992 24.992-65.504 24.992-90.496 0l-192-192c-24.992-24.992-24.992-65.504 0-90.496s65.504-24.992 90.496 0l82.752 82.752v-586.976l-82.752 82.752c-24.992 24.992-65.504 24.992-90.496 0s-24.992-65.504 0-90.528l192-192c12.512-12.48 28.864-18.752 45.248-18.752s32.768 6.24 45.248 18.752l192 192c24.992 24.992 24.992 65.504 0 90.528-24.992 24.992-65.504 24.992-90.528 0z" />
<glyph unicode="&#xe685;" glyph-name="cancel-circle" d="M512 950.857c-282.784 0-512-229.216-512-512s229.216-512 512-512 512 229.216 512 512-229.216 512-512 512zM512 54.857c-212.064 0-384 171.936-384 384s171.936 384 384 384c212.064 0 384-171.936 384-384s-171.936-384-384-384zM704 337.353v-90.496h-90.496l-101.504 101.504-101.504-101.504h-90.496v90.496l101.504 101.504-101.504 101.504v90.496h90.496l101.504-101.504 101.504 101.504h90.496v-90.496l-101.504-101.504z" />
<glyph unicode="&#xe686;" glyph-name="Anchor" d="M896 374.857v-132.196c-80.524-82.246-193.040-161.65-320-182.508v378.704h192v64l-192 74.942c74.562 26.36 128 97.462 128 181.058 0 106.040-85.96 192-192 192-106.042 0-192-85.96-192-192 0-83.596 53.43-154.7 128-181.058v-0.012l-192-74.93v-64h192v-378.704c-126.968 20.858-239.484 100.262-320 182.508v132.196h-128v-64c0-128 256-384 512-384s512 256 512 384v64h-128zM576 758.857c0-35.346-28.654-64-64-64s-64 28.654-64 64 28.654 64 64 64 64-28.654 64-64z" />
<glyph unicode="&#xe687;" glyph-name="ImportDW" d="M568.258 629.867c-44.514 28.036-90.256 38.864-168.708 38.864h-80.55v-400.874h79.318c81.158 0 120.752 8.854 166.498 38.37 59.262 37.87 91.486 93.942 91.486 161.326 0 68.618-30.742 125.676-88.044 162.314v0zM535.73 353.689c-32.218-20.414-76.666-28.778-132.002-28.778l-22.352 0.608v286.774l22.352-0.376c55.336 0 101.998-8.36 132.002-28.284 38.854-25.33 61.97-67.874 61.97-114.848 0.002-47.708-22.378-89.028-61.97-115.096v0zM996.020 497.487l-54.68 27.864c-12.352-27.046-19.148-51.134-21.802-84.986-0.714-9.214 0.328-21.082 1.034-29.918l-5.788 10.024-65.686 110.596-100.674-167.682v278.004h-56.21v-373.466h57.714l99.078 158.906 99.548-158.906 75.446-0.066c-29.842 30.542-53.794 75.708-53.794 128.546 0 38.080 7.62 73.672 25.814 101.084v0zM255.954 471.287l-160.282 160.28v-100.174h-95.672v-120.212h95.672v-100.176z" />
<glyph unicode="&#xe688;" glyph-name="Table" d="M0 325.211h63.938v-144.818h-63.938v144.818zM63.938 139.013h-63.938v-144.82h1v-2.984h139.862v63.938h-76.924zM0 511.407h63.938v-144.82h-63.938v144.82zM0 697.605h63.938v-144.82h-63.938v144.82zM1024 137.597h-64.526v-82.45h-59.352v-63.938h123.878v63.938zM959.474 324.149h64.528v-145.094h-64.528v145.094zM959.474 697.251h64.528v-145.096h-64.528v145.096zM959.474 510.697h64.528v-145.094h-64.528v145.094zM180.824 887.063h139.864v-63.938h-139.864v63.938zM1 883.799h-1v-144.818h63.938v84.144h76.924v63.938h-139.862zM540.474 887.063h139.864v-63.938h-139.864v63.938zM720.298 887.063h139.864v-63.938h-139.864v63.938zM900.122 887.063v-63.938h59.352v-84.42h64.526v148.358zM360.648 887.063h139.864v-63.938h-139.864v63.938zM540.474 55.147h139.864v-63.938h-139.864v63.938zM360.648 55.147h139.864v-63.938h-139.864v63.938zM180.824 55.147h139.864v-63.938h-139.864v63.938zM720.298 55.147h139.864v-63.938h-139.864v63.938zM895.778 700.741v56.004h-767.554v-633.478h4.146v-1.008l762.67 0.008v1h0.738v577.474zM831.778 350.877h-164.31v108.866h164.31v-108.866zM603.468 350.877h-184.218v108.866h184.218v-108.866zM192.224 459.741h163.026v-108.866h-163.026v108.866zM419.248 523.741v113.002h184.218v-113.002h-184.218zM355.248 523.741h-163.024v113.002h163.026v-113.002zM192.224 286.877h163.026v-100.618l-163.026-0.002v100.62zM419.248 286.877h184.218v-100.614l-184.218-0.004v100.618zM667.468 286.877h164.31v-100.612l-164.31-0.002v100.614zM831.778 523.741h-164.31v113.002h164.31v-113.002z" />
<glyph unicode="&#xe689;" glyph-name="ButtonOK" d="M951.52 622.615v-367.504h-879.52v367.504h879.52zM974.070 695.181h-924.624c-27.308 0-49.446-24.336-49.446-54.356v-403.924c0-30.020 22.134-54.356 49.446-54.356h924.624c27.308 0 49.45 24.336 49.45 54.356v403.924c0 30.020-22.138 54.356-49.45 54.356v0zM282.582 485.951c5.44 15.524 13.26 29.070 23.458 40.63 10.204 11.558 22.722 20.624 37.57 27.2 14.844 6.572 31.562 9.86 50.15 9.86 18.812 0 35.584-3.288 50.32-9.86 14.73-6.576 27.2-15.64 37.4-27.2s18.020-25.108 23.458-40.63c5.442-15.528 8.16-32.358 8.16-50.49 0-17.68-2.718-34.17-8.16-49.466-5.44-15.3-13.26-28.622-23.458-39.954-10.204-11.336-22.67-20.226-37.4-26.69-14.736-6.458-31.508-9.69-50.32-9.69-18.588 0-35.306 3.226-50.15 9.69-14.848 6.458-27.37 15.354-37.57 26.69-10.2 11.332-18.020 24.65-23.458 39.954-5.442 15.296-8.16 31.79-8.16 49.466 0 18.132 2.722 34.962 8.16 50.49zM331.372 405.711c2.38-9.634 6.174-18.306 11.39-26.010 5.208-7.708 12.012-13.886 20.4-18.53 8.38-4.648 18.582-6.97 30.6-6.97 12.012 0 22.208 2.322 30.6 6.97 8.382 4.642 15.184 10.818 20.4 18.53 5.208 7.704 9.010 16.376 11.39 26.010 2.376 9.632 3.568 19.55 3.568 29.75 0 10.652-1.192 20.962-3.568 30.942-2.38 9.97-6.182 18.87-11.39 26.69-5.216 7.82-12.018 14.050-20.4 18.7-8.388 4.644-18.588 6.97-30.6 6.97-12.018 0-22.216-2.326-30.6-6.97-8.388-4.648-15.192-10.878-20.4-18.7-5.216-7.82-9.010-16.718-11.39-26.69-2.376-9.978-3.568-20.29-3.568-30.942 0-10.2 1.188-20.118 3.568-29.75zM585.862 557.861v-100.64l94.86 100.64h66.64l-94.86-95.878 104.040-146.88h-66.98l-73.1 109.14-30.6-30.942v-78.202h-53.376v242.76h53.376z" />
<glyph unicode="&#xe68a;" glyph-name="ReadInfo" d="M0 421.025h63.938v-144.816h-63.938v144.816zM63.938 234.829h-63.938v-147.804h140.862v63.938h-76.924zM0 604.109h63.938v-144.82h-63.938v144.82zM1024 233.411h-64.526v-82.448h-59.352v-63.938h123.878v63.938zM959.474 419.965h64.528v-145.094h-64.528v145.094zM959.474 603.755h64.528v-145.096h-64.528v145.096zM180.822 793.567h139.864v-63.938h-139.864v63.938zM0.998 790.305h-0.998v-144.818h63.938v84.144h76.924v63.936h-139.864zM540.474 793.567h139.864v-63.938h-139.864v63.938zM720.298 793.567h139.864v-63.938h-139.864v63.938zM900.122 793.567v-63.936h59.352v-84.42h64.526v148.356zM360.646 793.567h139.864v-63.938h-139.864v63.938zM540.474 150.963h139.864v-63.938h-139.864v63.938zM360.646 150.963h139.864v-63.938h-139.864v63.938zM180.822 150.963h139.864v-63.938h-139.864v63.938zM720.298 150.963h139.864v-63.938h-139.864v63.938zM831 596.361v-318.504h-640v318.504h640zM895 660.361h-768v-446.504h768v446.504zM258.258 329.957l62.276 224.19h61.966l61.032-224.19h-49.51l-12.458 49.684h-64.146l-12.766-49.684h-46.394zM348.87 510.985h-0.624l-21.484-96.882h44.838l-22.73 96.882zM450.138 329.957v224.19h83.452c35.808 0 65.39-10.248 65.39-58.066 0-25.772-12.766-44.404-38.298-49.372v-0.62c33.32-4.658 42.038-26.084 42.038-56.822 0-56.828-49.51-59.31-69.44-59.31h-83.142zM497.156 462.547h31.452c10.274 0 24.596 6.83 24.596 28.566 0 16.456-11.208 28.568-27.090 28.568h-28.958v-57.134zM497.156 364.423h26.156c9.964 0 32.384 0.31 32.384 31.674 0 19.872-7.476 31.98-31.14 31.98h-27.4v-63.654zM625.686 442.051c0 59.308-0.102 112.81 77.434 112.81 47.956 0 67.366-23.382 65.496-71.51h-46.088c0 29.808-5.292 40.984-19.304 40.984-26.47 0-29.89-24.838-29.89-82.282s3.42-82.286 29.89-82.286c21.794 0 20.862 27.946 21.482 45.644h46.398c0-59.93-23.978-79.18-67.882-79.18-77.536 0-77.536 57.136-77.536 115.82z" />
<glyph unicode="&#xe68b;" glyph-name="arrow-up3" d="M512.002 950.857l-512.002-512h320v-511.998l384-0.002v512h320z" />
<glyph unicode="&#xe68c;" glyph-name="folder4" d="M421.49 758.857l128-128h410.51v-576h-896v704h357.49zM448 822.857h-448v-832h1024v704h-448l-128 128z" />
<glyph unicode="&#xe68d;" glyph-name="play4" d="M192 822.857l640-384-640-384z" />
<glyph unicode="&#xe68e;" glyph-name="wave" d="M832 630.857h128v-384c0-34.502-6.786-68.042-20.17-99.686-12.9-30.5-31.342-57.866-54.81-81.334s-50.834-41.91-81.334-54.81c-31.644-13.384-65.182-20.17-99.686-20.17s-68.042 6.786-99.686 20.17c-30.5 12.9-57.866 31.342-81.334 54.81s-41.91 50.834-54.81 81.334c-13.384 31.644-20.17 65.182-20.17 99.686v384c0 70.692-57.308 128-128 128s-128-57.308-128-128v-384h-128v384c0 34.502 6.786 68.042 20.17 99.686 12.9 30.5 31.342 57.864 54.81 81.334 23.47 23.468 50.834 41.91 81.334 54.81 31.644 13.384 65.184 20.17 99.686 20.17s68.042-6.786 99.686-20.17c30.5-12.9 57.864-31.342 81.334-54.81 23.468-23.47 41.91-50.834 54.81-81.334 13.384-31.644 20.17-65.184 20.17-99.686v-384c0-70.694 57.308-128 128-128s128 57.308 128 128v384z" />
<glyph unicode="&#xe68f;" glyph-name="loop3" d="M512 742.857c-100.252 0-189.54-46.802-246.326-119.256l-76.776 57.582c74.32 95.764 191.494 157.674 323.102 157.674v112l160-160-160-160v112zM512 134.857c100.254 0 189.542 46.802 246.326 119.256l76.776-57.582c-74.32-95.764-191.494-157.674-323.102-157.674v-112l-160 160 160 160v-112zM201.6 438.857c0-100.364 49.928-189.508 126.724-244.902l-57.584-76.78c-100.108 72.928-165.14 189.966-165.14 321.682h-105.6l160 160 160-160h-118.4zM918.4 438.857h105.6l-160-160-160 160h118.4c0 100.364-49.928 189.508-126.724 244.902l57.584 76.778c100.108-72.926 165.14-189.962 165.14-321.68z" />
<glyph unicode="&#xe690;" glyph-name="copy3" d="M864 822.857c17.6 0 32-14.4 32-32v-608l-256-256h-480c-17.602 0-32 14.4-32 32v832c0 17.6 14.398 32 32 32h64v-64h-32v-768h384v256h256v512h-32v64h64zM768 822.857h-128v64c0 35.2-28.8 64-64 64h-128c-35.204 0-64-28.8-64-64v-64h-128v-128h512v128zM576 822.857h-128v63.886c0.034 0.038 0.072 0.078 0.114 0.114h127.768c0.042-0.036 0.082-0.076 0.118-0.114v-63.886z" />
<glyph unicode="&#xe691;" glyph-name="combine_layers_v2" d="M98 950.857h829.662v-62h-829.662v62zM100 820.857h829.662v-62h-829.662v62zM100 692.857h829.662v-62h-829.662v62zM100 83.857h829.662v-157h-829.662v157zM511.996 121.835l232.87 222.508h-145.542v222.514h-174.652v-222.514h-145.54l232.864-222.508z" />
<glyph unicode="&#xe692;" glyph-name="UserVoice" d="M344.158 620.201l-283.030-75.732c-8.536-2.284-13.32-11.984-10.728-21.652l74.708-278.424c2.594-9.666 11.592-15.652 20.124-13.37l283.032 75.732c8.48 2.268 13.324 11.958 10.732 21.624l-74.708 278.426c-2.592 9.668-11.65 15.664-20.13 13.396zM393.15 230.873l-173.866-46.582c-9.694-2.598-15.69-11.856-13.33-20.66l57.712-215.388c2.358-8.798 12.18-13.822 21.876-11.224l173.864 46.584c9.642 2.588 15.586 11.834 13.228 20.63l-57.716 215.39c-2.36 8.802-12.126 13.834-21.768 11.25zM789.182 946.323c-5.366 1.458-11.282-0.128-15.266-4.038l-345.394-315.94c-0.614-0.57-0.44-1.43-0.936-2.026-1.262-1.624-1.676-3.346-2.242-5.302-0.506-1.996-1.094-3.68-0.762-5.726 0.032-0.73-0.5-1.392-0.294-2.158l64.21-239.648c0.252-0.946 1.234-1.34 1.626-2.19 1.526-5.086 4.594-9.598 10.23-11.042l453.98-89.306c2.698-0.672 5.522-0.6 8.17 0.11 2.606 0.7 5.132 2.086 7.066 4.056 4.070 3.99 5.65 9.714 4.208 15.096l-173.398 647.148c-1.432 5.354-5.676 9.548-11.198 10.966z" />
<glyph unicode="&#xe693;" glyph-name="arrow-up-right5" d="M631.75 649.115l90.51-90.51-356.994-356.994-90.512 90.51zM0 950.857v-1024h1024v1024h-1024zM896 54.857h-768v768h768v-768zM768 310.857l-384 384h384z" />
<glyph unicode="&#xe694;" glyph-name="unlocked" d="M768 886.857c105.87 0 192-86.13 192-192v-192h-128v192c0 35.29-28.71 64-64 64h-128c-35.29 0-64-28.71-64-64v-192h16c26.4 0 48-21.6 48-48v-480c0-26.4-21.6-48-48-48h-544c-26.4 0-48 21.6-48 48v480c0 26.4 21.6 48 48 48h400v192c0 105.87 86.13 192 192 192h128z" />
<glyph unicode="&#xe695;" glyph-name="lock4" d="M592 502.857h-16v192c0 105.87-86.13 192-192 192h-128c-105.87 0-192-86.13-192-192v-192h-16c-26.4 0-48-21.6-48-48v-480c0-26.4 21.6-48 48-48h544c26.4 0 48 21.6 48 48v480c0 26.4-21.6 48-48 48zM192 694.857c0 35.29 28.71 64 64 64h128c35.29 0 64-28.71 64-64v-192h-256v192z" />
<glyph unicode="&#xe696;" glyph-name="checkbox-plus" d="M0 950.857v-1024h1024v1024h-1024zM960-9.143h-896v896h896v-896zM800 515.657h-211.2v211.2c0 10.603-8.597 19.2-19.2 19.2h-115.2c-10.603 0-19.2-8.597-19.2-19.2v-211.2h-211.2c-10.603 0-19.2-8.597-19.2-19.2v-115.2c0-10.603 8.597-19.2 19.2-19.2h211.2v-211.2c0-10.603 8.597-19.2 19.2-19.2h115.2c10.603 0 19.2 8.597 19.2 19.2v211.2h211.2c10.603 0 19.2 8.597 19.2 19.2v115.2c0 10.603-8.597 19.2-19.2 19.2z" />
<glyph unicode="&#xe697;" glyph-name="checkbox-minus" d="M0 950.857v-1024h1024v1024h-1024zM960-9.143h-896v896h896v-896zM204.8 496.457v-115.2c0-10.603 8.597-19.2 19.2-19.2h576c10.603 0 19.2 8.597 19.2 19.2v115.2c0 10.603-8.597 19.2-19.2 19.2h-576c-10.603 0-19.2-8.597-19.2-19.2z" />
<glyph unicode="&#xe698;" glyph-name="paragraph-left" d="M0 758.857h1024v-64h-1024zM0 630.857h704v-64h-704zM0 502.857h1024v-64h-1024zM0 374.857h704v-64h-704zM0 246.857h1024v-64h-1024zM0 118.857h704v-64h-704z" />
<glyph unicode="&#xe699;" glyph-name="menu7" d="M0 758.857h704v-192h-704zM0 502.857h704v-192h-704zM0 246.857h704v-192h-704zM1024 502.857l-160-192-160 192z" />
<glyph unicode="&#xe69a;" glyph-name="menu6" d="M64 758.857h896v-192h-896zM64 502.857h896v-192h-896zM64 246.857h896v-192h-896z" />
<glyph unicode="&#xe69b;" glyph-name="xlsClipped" d="M1024 821.409h-192.728v56.74c-0.006 40.092-33.552 72.708-74.788 72.708h-106.106c-41.234 0-74.79-32.616-74.79-72.708v-56.74h-575.588v-894.138h1023v509.38h1v384.758zM235.284 182.019v0l92.734-192.090h-73.546l-59.426 121.994-60.758-121.994h-69.020l96.202 191.822h-2.398l-92.738 192.086h73.55l59.424-121.992 60.758 121.992h69.018l-96.2-191.818h2.4zM645.132-10.341h-262.75v384.178h73.546v-318.366h189.204v-65.812zM961.184 308.025h-189.206v-94.974h189.206v-223.39h-262.754v65.812h193.732v94.974h-193.732v223.39h262.754v-65.812zM639.6 878.149c-0.002 4.796 4.944 8.846 10.788 8.846h106.106c5.844 0 10.786-4.052 10.786-8.846v-56.74h-127.68v56.74zM64 757.189h511.592v-183.52c0.004-40.088 33.55-72.708 74.79-72.708h171.362c41.66 0 74.77 32.616 74.77 72.708v120.304h-64.006l-0.202-118.926c0-4.176-2.696-10.224-9.304-10.224h-172.62c-5.844 0-10.79 4.054-10.79 8.848v120.542h0.008v62.976h320.4v-319.918h-896v319.918z" />
<glyph unicode="&#xe69c;" glyph-name="tiffClipped" d="M1024 821.631h-192.728v56.738c-0.006 40.094-33.552 72.708-74.788 72.708h-106.106c-41.234 0-74.79-32.616-74.79-72.708v-56.738h-575.588v-893.774h1023v509.016h1v384.758zM293.024 308.611h-78.782v-318.366h-64.52v318.366h-87.192v65.812h230.494v-65.812zM404.296-9.755h-64.52v384.178h64.52v-384.178zM681.544 308.611h-165.974v-94.974h165.974v-62.602h-165.974v-160.79h-64.52v384.178h230.494v-65.812zM958.792 308.611h-165.974v-94.974h165.974v-62.602h-165.974v-160.79h-64.52v384.178h230.494v-65.812zM639.6 878.369c-0.002 4.798 4.944 8.846 10.788 8.846h106.106c5.844 0 10.786-4.050 10.786-8.846v-56.738h-127.68v56.738zM64 757.411h511.592v-183.52c0.004-40.088 33.55-72.706 74.79-72.706h171.362c41.66 0 74.77 32.616 74.77 72.706v120.304h-64.006l-0.202-118.926c0-4.174-2.696-10.224-9.304-10.224h-172.62c-5.844 0-10.79 4.052-10.79 8.846v120.542h0.008v62.978h320.4v-319.554h-896v319.554z" />
<glyph unicode="&#xe69d;" glyph-name="pptClipped" d="M455.41 308.611h120.186v-94.974h-120.186v94.974zM139.352 308.611h120.188v-94.974h-120.188v94.974zM831.27 821.695v56.616c-0.004 40.002-33.55 72.546-74.786 72.546h-106.106c-41.234 0-74.79-32.544-74.79-72.546v-56.614h-575.588v-383.82l213.802-0.018h-213.802v-510h1023v509.928h1v383.908h-192.73zM639.6 878.311c-0.002 4.786 4.944 8.828 10.788 8.828h106.106c5.844 0 10.786-4.044 10.786-8.828v-56.614h-127.68v56.614zM64 437.875v319.742h511.592v-183.114c0.004-40 33.55-72.546 74.79-72.546h171.362c41.66 0 74.77 32.544 74.77 72.546v120.038h-64.006l-0.202-118.664c0-4.166-2.696-10.202-9.304-10.202h-172.62c-5.844 0-10.79 4.042-10.79 8.828v120.274h0.008v62.84h320.4v-319.742h-896zM328.56 151.033h-189.208v-160.788h-73.55v384.178h262.758v-223.39zM644.618 151.033h-189.208v-160.788h-73.55v384.178h262.758v-223.39zM960.678 308.611v0h-89.808v-318.366h-73.552v318.366h-99.4v65.812h262.762v-65.812z" />
<glyph unicode="&#xe69e;" glyph-name="pngClipped" d="M139.352 310.263h120.188v-94.974h-120.188v94.974zM1023.5 821.855h-192.726v56.544c-0.008 39.954-33.552 72.458-74.79 72.458h-106.106c-41.234 0-74.79-32.504-74.79-72.458v-56.544h-575.588v-383.346h0.5v-509h1023v508.91h0.5v383.436zM328.56 152.685h-189.208v-160.788h-73.55v384.178h262.758v-223.39zM644.618-8.101h-69.024l-120.186 221.788v-221.788h-73.548v384.176h73.548l120.186-215.364v215.364h69.024v-384.176zM960.678 310.263v0h-189.21v-252.55h120.188v94.972h-76.214v62.602h145.238v-223.39h-262.764v384.18h262.762v-65.814zM639.102 878.399c-0.004 4.78 4.942 8.816 10.786 8.816h106.106c5.844 0 10.786-4.038 10.786-8.816v-56.544h-127.676v56.544zM575.094 757.855v-182.89c0.004-39.95 33.55-72.456 74.79-72.456h171.36c41.66 0 74.77 32.504 74.77 72.458v119.89h-64.004l-0.204-118.518c0-4.162-2.696-10.19-9.304-10.19h-172.618c-5.844 0-10.79 4.040-10.79 8.816v120.128h0.008v62.762h320.398v-318.346h-896v318.346h511.594z" />
<glyph unicode="&#xe69f;" glyph-name="pdfClipped" d="M139.352 310.263h120.188v-94.974h-120.188v94.974zM455.41 310.263h120.186v-252.55h-120.186v252.55zM1024 821.855h-192.73v56.544c-0.004 39.954-33.552 72.458-74.786 72.458h-106.106c-41.234 0-74.79-32.504-74.79-72.458v-56.544h-575.588v-892.346h1023v508.91h1v383.436zM328.56 152.685h-189.208v-160.788h-73.55v384.178h262.758v-223.39zM617.168-8.101h-235.31v384.176h235.042l27.714-33.708v-316.76h0.002l-27.448-33.708zM960.678 310.263v0h-189.21v-94.974h189.208v-62.602h-189.208v-160.79h-73.55v384.178h262.762v-65.812zM639.598 878.399c0 4.78 4.946 8.816 10.79 8.816h106.106c5.844 0 10.786-4.038 10.786-8.816v-56.544h-127.68v56.544zM64 757.855h511.59v-182.89c0.004-39.95 33.55-72.456 74.79-72.456h171.364c41.66 0 74.77 32.504 74.77 72.458v119.89h-64.008l-0.2-118.518c0-4.162-2.696-10.19-9.304-10.19h-172.622c-5.844 0-10.79 4.040-10.79 8.816v120.128h0.008v62.762h320.402v-318.346h-896v318.346z" />
<glyph unicode="&#xe6a0;" glyph-name="otherFileClipped" d="M1024 821.409h-192.728v56.74c-0.006 40.092-33.552 72.708-74.788 72.708h-106.106c-41.234 0-74.79-32.616-74.79-72.708v-56.74h-575.588v-383.552h-1v-510h1024v508.794h1zM639.6 878.149c-0.002 4.796 4.944 8.846 10.788 8.846h106.106c5.844 0 10.786-4.052 10.786-8.846v-56.74h-127.68zM64 757.189h511.592v-183.52c0.004-40.088 33.55-72.708 74.79-72.708h171.362c41.66 0 74.77 32.616 74.77 72.708v120.304h-64.006l-0.202-118.926c0-4.176-2.696-10.224-9.304-10.224h-172.62c-5.844 0-10.79 4.054-10.79 8.848v120.542h0.008v62.976h320.4v-319.332h-896zM316.5 87.205h-191.5v27.5h191.5zM603.75 87.205h-191.5v27.5h191.5zM891 87.205h-191.5v27.5h191.5z" />
<glyph unicode="&#xe6a1;" glyph-name="jpgClipped" d="M455.41 308.611h120.186v-94.974h-120.186v94.974zM1024 821.409h-192.728v56.74c-0.006 40.092-33.552 72.708-74.788 72.708h-106.106c-41.234 0-74.79-32.616-74.79-72.708v-56.74h-575.588v-893.552h1023v508.794h1v384.758zM65.802-9.755v165.606h73.548v-99.792h120.188v318.364h69.020v-384.178h-262.756zM644.618 151.033h-189.208v-160.788h-73.55v384.178h262.758v-223.39zM960.678 308.611v0h-189.21v-252.55h120.188v94.972h-76.214v62.602h145.238v-223.39h-262.764v384.18h262.762v-65.814zM639.6 878.149c-0.002 4.796 4.944 8.846 10.788 8.846h106.106c5.844 0 10.786-4.052 10.786-8.846v-56.74h-127.68v56.74zM64 757.189h511.592v-183.52c0.004-40.088 33.55-72.708 74.79-72.708h171.362c41.66 0 74.77 32.616 74.77 72.708v120.304h-64.006l-0.202-118.926c0-4.176-2.696-10.224-9.304-10.224h-172.62c-5.844 0-10.79 4.054-10.79 8.848v120.542h0.008v62.976h320.4v-319.332h-896v319.332z" />
<glyph unicode="&#xe6a2;" glyph-name="docClipped" d="M1024 821.855h-192.73v56.544c-0.004 39.954-33.55 72.458-74.786 72.458h-106.106c-41.234 0-74.788-32.504-74.788-72.458v-56.544h-575.59v-895.058l1024 0.060v894.998zM639.6 878.399c-0.002 4.78 4.942 8.816 10.786 8.816h106.106c5.844 0 10.784-4.038 10.784-8.816v-56.544h-127.676v56.544zM64 757.855h511.592v-182.89c0.004-39.95 33.55-72.456 74.788-72.456h171.362c41.66 0 74.768 32.504 74.768 72.458v119.89h-64.004l-0.202-118.518c0-4.162-2.696-10.19-9.304-10.19h-172.62c-5.844 0-10.788 4.040-10.788 8.816v120.128h0.008v62.762h320.4v-319.346h-896v319.346zM65.802-9.143v382.506h235.042l27.714-33.708 0.002-316.76-26.088-32.038h-236.67zM381.858-9.143v382.506h262.758l0.002-382.506h-262.76zM960 54.999v-64.142h-262.086v382.506h262.086v-65.812h-188.53v-252.55h188.53zM455.41 307.551h120.186v-252.55h-120.186v252.55zM139.352 307.551h120.192v-252.55h-120.192v252.55z" />
<glyph unicode="&#xe6a3;" glyph-name="eye-blocked" d="M839.322 654.441c77.644-55.030 141.37-129.092 184.678-215.584-95.122-189.958-288.686-320-512-320-62.566 0-122.792 10.212-179.178 29.084l77.956 77.956c33.058-7.3 66.972-11.040 101.222-11.040 89.558 0 176.854 25.486 252.446 73.704 60.162 38.376 111.144 89.776 149.436 150.298-37.052 58.566-86.014 108.55-143.65 146.494l69.090 69.088zM512 252.857c-22.724 0-44.752 2.976-65.728 8.534l313.186 313.184c5.562-20.972 8.542-42.994 8.542-65.718 0-141.384-114.616-256-256-256zM960 950.857h-53.738l-219.612-219.612c-55.076 17.924-113.754 27.612-174.65 27.612-223.318 0-416.882-130.042-512-320 42.658-85.192 105.128-158.308 181.194-213.068l-181.194-181.194v-53.738h53.738l906.262 906.262v53.738zM416 636.857c48.044 0 87.846-35.294 94.892-81.37l-109.524-109.524c-46.074 7.048-81.368 46.85-81.368 94.894 0 53.020 42.98 96 96 96zM110.116 438.857c38.292 60.524 89.274 111.924 149.434 150.296 3.918 2.5 7.876 4.922 11.858 7.3-9.958-27.328-15.408-56.822-15.408-87.596 0-58.524 19.65-112.448 52.698-155.562l-58.55-58.55c-56.072 37.642-103.754 86.772-140.032 144.112z" />
<glyph unicode="&#xe6a4;" glyph-name="minus-circle" d="M512 950.857c-282.77 0-512-229.23-512-512s229.23-512 512-512 512 229.23 512 512-229.23 512-512 512zM512 54.857c-212.078 0-384 171.922-384 384s171.922 384 384 384c212.078 0 384-171.922 384-384s-171.922-384-384-384zM256 502.857h512v-128h-512z" />
<glyph unicode="&#xe6a5;" glyph-name="plus-circle" d="M512 950.857c-282.77 0-512-229.23-512-512s229.23-512 512-512 512 229.23 512 512-229.23 512-512 512zM512 54.857c-212.078 0-384 171.922-384 384s171.922 384 384 384c212.078 0 384-171.922 384-384s-171.922-384-384-384zM768 374.857h-192v-192h-128v192h-192v128h192v192h128v-192h192z" />
<glyph unicode="&#xe6a6;" glyph-name="assign_data" horiz-adv-x="1498" d="M1498.172 726.857c0 28.41-10.050 70.76-57.916 111.178-28.44 24.012-67.39 44.95-115.776 62.23-91.348 32.626-211.494 50.592-338.308 50.592s-246.96-17.966-338.31-50.59c-48.384-17.28-87.336-38.218-115.774-62.23-47.868-40.42-57.916-82.77-57.916-111.18h-0.172v-576h0.172c0-28.41 10.048-70.762 57.916-111.18 28.438-24.012 67.39-44.952 115.774-62.23 91.348-32.626 211.496-50.59 338.31-50.59s246.96 17.964 338.308 50.59c48.382 17.282 87.338 38.218 115.776 62.23 47.866 40.418 57.916 82.77 57.916 111.18v576zM705.348 784.627c76.28 24.652 176.010 38.23 280.824 38.23 104.812 0 204.544-13.578 280.822-38.23 74.554-24.096 98.92-49.996 102.832-57.77-3.912-7.774-28.278-33.674-102.832-57.77-76.278-24.652-176.010-38.23-280.822-38.23-104.814 0-204.544 13.578-280.824 38.23-74.552 24.096-98.918 49.996-102.83 57.77 3.912 7.774 28.278 33.674 102.83 57.77zM1266.996 93.087c-76.28-24.656-176.010-38.23-280.824-38.23s-204.546 13.574-280.824 38.23c-74.554 24.094-98.918 49.996-102.83 57.77h-0.174v133.24c14.088-6.616 29.256-12.842 45.518-18.65 91.348-32.626 211.496-50.59 338.31-50.59s246.96 17.964 338.308 50.59c16.194 5.786 31.302 11.986 45.346 18.568v-133.158c-3.912-7.774-28.276-33.676-102.83-57.77zM1266.996 381.087c-76.28-24.654-176.010-38.23-280.824-38.23s-204.546 13.576-280.824 38.23c-74.554 24.096-98.918 49.996-102.83 57.77h-0.174v133.24c14.088-6.612 29.256-12.842 45.518-18.65 91.35-32.624 211.496-50.59 338.31-50.59s246.96 17.966 338.308 50.59c16.194 5.784 31.302 11.986 45.346 18.568v-133.158c-3.912-7.774-28.276-33.674-102.83-57.77zM225.67 813.065h-223.67v-167.752h223.67v-139.79l223.67 223.666-223.67 223.668z" />
<glyph unicode="&#xe6a7;" glyph-name="bullhorn" d="M344.16 617.461l-283.032-75.732c-8.536-2.284-13.32-11.984-10.728-21.652l74.708-278.424c2.594-9.664 11.592-15.652 20.124-13.372l283.032 75.734c8.48 2.266 13.324 11.958 10.732 21.624l-74.708 278.422c-2.59 9.672-11.65 15.668-20.128 13.4zM393.152 228.135l-173.866-46.582c-9.694-2.598-15.69-11.856-13.33-20.66l57.712-215.386c2.358-8.8 12.18-13.824 21.876-11.226l173.864 46.586c9.642 2.586 15.586 11.832 13.228 20.628l-57.716 215.39c-2.36 8.8-12.128 13.832-21.768 11.25zM789.184 943.583c-5.368 1.458-11.282-0.128-15.266-4.038l-345.396-315.94c-0.614-0.57-0.44-1.43-0.936-2.026-1.262-1.624-1.676-3.346-2.242-5.302-0.506-1.996-1.094-3.68-0.762-5.726 0.032-0.73-0.5-1.392-0.294-2.158l64.21-239.646c0.252-0.95 1.234-1.34 1.626-2.192 1.526-5.086 4.594-9.598 10.23-11.042l453.982-89.304c2.696-0.672 5.52-0.602 8.168 0.11 2.606 0.7 5.132 2.086 7.066 4.054 4.070 3.992 5.652 9.714 4.208 15.098l-173.396 647.146c-1.432 5.354-5.678 9.548-11.198 10.966z" />
<glyph unicode="&#xe6a8;" glyph-name="condition" d="M1023 334.063l-255.5 255.5v-159.688h-159.688v369.276h-191.624v-369.276h-159.688v159.688l-255.5-255.498 255.5-255.502v159.686h511v-159.686z" />
<glyph unicode="&#xe6a9;" glyph-name="end" d="M593.922 533.801v212.776h-159.578v-212.776h-132.978l212.768-212.772 212.776 212.772zM116.24 233.271h791.52v-102.132h-791.52v102.132z" />
<glyph unicode="&#xe6aa;" glyph-name="numeric" d="M310.218 257.095h-240.234v63.476h76.66v192.138h-76.66v59.326c11.23 0 22.376 0.732 33.448 2.198 11.066 1.464 19.936 3.822 26.612 7.080 7.812 3.906 13.874 9.156 18.188 15.748 4.31 6.592 6.794 14.77 7.446 24.536h79.59v-301.024h74.952v-63.478zM644.692 257.095h-267.092v59.324c22.622 17.902 42.928 34.828 60.912 50.782 17.984 15.95 33.814 31.086 47.486 45.41 17.738 18.714 30.598 35.158 38.576 49.318 7.972 14.16 11.96 28.724 11.96 43.702 0 16.926-5.046 29.908-15.136 38.94-10.092 9.034-24.168 13.55-42.236 13.55-9.278 0-18.028-1.14-26.244-3.418-8.22-2.282-16.564-5.21-25.026-8.79-8.3-3.746-15.38-7.568-21.24-11.474s-10.254-6.836-13.184-8.79h-7.080v79.346c10.254 4.882 26.284 9.888 48.096 15.014 21.808 5.126 42.804 7.69 62.988 7.69 43.128 0 75.804-9.606 98.022-28.808 22.214-19.208 33.324-46.226 33.324-81.054 0-21.484-5.046-42.522-15.136-63.11-10.094-20.592-26.856-42.686-50.292-66.284-14.648-14.488-28.89-27.386-42.722-38.696-13.836-11.316-23.846-19.332-30.030-24.050h154.054v-68.602zM954.016 367.201c0-17.742-3.296-33.934-9.886-48.582-6.594-14.648-16.234-27.102-28.93-37.356-12.86-10.254-27.958-18.106-45.29-23.558-17.336-5.454-38.454-8.18-63.356-8.18-28.32 0-52.614 2.364-72.876 7.082-20.266 4.718-36.742 10.008-49.438 15.868v78.86h8.79c13.344-8.464 29.012-15.79 46.996-21.972 17.984-6.188 34.382-9.278 49.196-9.278 8.79 0 18.348 0.77 28.684 2.32 10.336 1.542 19.004 4.918 26.004 10.128 5.532 4.066 9.968 9.074 13.304 15.016s5.004 14.364 5.004 25.27c0 10.742-2.36 19-7.078 24.782-4.722 5.774-10.988 9.964-18.8 12.57-7.812 2.766-17.172 4.312-28.074 4.64-10.906 0.324-20.508 0.488-28.808 0.488h-15.624v63.964h14.402c11.066 0 21.242 0.488 30.52 1.464s17.168 2.93 23.68 5.86c6.508 3.090 11.598 7.404 15.258 12.94 3.664 5.532 5.496 13.020 5.496 22.46 0 7.324-1.71 13.306-5.128 17.944s-7.652 8.258-12.696 10.864c-5.86 2.93-12.696 4.882-20.508 5.86s-14.488 1.464-20.020 1.464c-8.954 0-18.066-1.060-27.344-3.174-9.278-2.118-18.308-4.802-27.098-8.056-6.836-2.606-14-5.982-21.484-10.132-7.488-4.15-13.024-7.286-16.602-9.4h-7.57v77.88c12.532 5.372 29.418 10.536 50.66 15.502 21.238 4.962 42.926 7.446 65.062 7.446 21.644 0 40.406-1.874 56.274-5.616 15.872-3.746 29.422-9.198 40.652-16.358 12.368-7.652 21.644-17.376 27.832-29.174 6.184-11.802 9.278-25.108 9.278-39.916 0-20.672-5.984-38.78-17.946-54.322-11.964-15.544-27.71-25.596-47.242-30.152v-3.418c8.624-1.304 17.050-3.502 25.27-6.592 8.218-3.094 16.234-8.14 24.046-15.136 7.324-6.348 13.386-14.528 18.188-24.536 4.8-10.006 7.202-21.932 7.202-35.764z" />
<glyph unicode="&#xe6ab;" glyph-name="parallel_tasks" horiz-adv-x="1602" d="M409.572 695.317h-81.030v40.512c0 22.284-18.23 40.516-40.516 40.516h-81.026c-22.284 0-40.512-18.232-40.512-40.516v-40.512h-81.030v-81.032h324.114v81.032zM288.028 695.317h-81.028v40.442c0.022 0.026 0.044 0.046 0.074 0.072h80.88c0.026-0.026 0.050-0.046 0.072-0.072v-40.442zM474.562 695.317h-44.946v-40.516h12.384v-478.268h-389.616v478.268h12.818v40.516h-44.946c-11.14 0-20.256-9.116-20.256-20.258v-534.686c0-11.14 9.116-20.258 20.256-20.258h452.62c0.62 0 1.086 0.168 1.458 0.434l0.232-0.434c11.14 0 20.258 9.118 20.258 20.258v534.686c-0.006 11.142-9.118 20.258-20.262 20.258zM398.42 544.355c-0.152 0.058-0.294 0.102-0.45 0.156-0.31 0.11-0.622 0.21-0.93 0.294-0.17 0.044-0.334 0.086-0.5 0.124-0.292 0.064-0.582 0.122-0.874 0.162-0.156 0.026-0.316 0.050-0.476 0.068-0.316 0.038-0.632 0.052-0.946 0.060-0.094 0-0.19 0.018-0.282 0.018-0.026 0-0.042-0.004-0.064-0.004-0.47-0.002-0.932-0.036-1.39-0.098-0.118-0.012-0.234-0.040-0.35-0.056-0.358-0.058-0.712-0.132-1.058-0.22-0.124-0.032-0.244-0.060-0.37-0.1-0.44-0.124-0.872-0.27-1.304-0.446-0.034-0.018-0.072-0.036-0.11-0.054-0.392-0.162-0.78-0.352-1.162-0.552-0.12-0.064-0.238-0.128-0.354-0.196-0.332-0.188-0.658-0.388-0.982-0.6-0.086-0.056-0.17-0.106-0.25-0.162-0.394-0.268-0.78-0.554-1.158-0.856-0.094-0.072-0.182-0.15-0.274-0.226-0.298-0.244-0.592-0.496-0.876-0.76-0.104-0.092-0.208-0.188-0.312-0.286-0.36-0.34-0.714-0.686-1.058-1.048-5.208-5.486-11.674-12.278-19.006-19.962-11.746-12.322-25.74-26.97-40.468-42.384-53.51-55.968-116.662-121.87-116.662-121.87s-56.684 22.622-83.624 37.954c-0.31 0.172-0.658 0.368-1.010 0.566-0.086 0.046-0.17 0.094-0.254 0.14-0.768 0.426-1.63 0.878-2.56 1.324-0.108 0.050-0.216 0.102-0.328 0.156-0.468 0.218-0.95 0.438-1.45 0.64-0.020 0.012-0.036 0.016-0.056 0.028-0.468 0.188-0.95 0.368-1.436 0.536-0.132 0.042-0.26 0.090-0.39 0.128-0.516 0.168-1.034 0.328-1.558 0.458-0.038 0.004-0.078 0.016-0.112 0.024-0.49 0.118-0.98 0.208-1.472 0.278-0.138 0.028-0.278 0.040-0.416 0.058-0.526 0.062-1.056 0.114-1.582 0.114-0.010 0-0.022 0-0.032 0-0.252 0-0.504-0.024-0.758-0.040-0.126-0.012-0.25-0.008-0.376-0.020-0.29-0.028-0.576-0.082-0.86-0.132-0.102-0.024-0.202-0.032-0.298-0.050-0.322-0.070-0.636-0.164-0.946-0.27-0.064-0.024-0.128-0.032-0.188-0.054-0.374-0.128-0.742-0.29-1.102-0.48-5.878-2.992-7.732-9.382-4.1-14.246l106.214-151.208 196.744 298.428c3.316 4.996 0.952 10.98-4.986 14.042-0.476 0.236-0.94 0.442-1.398 0.624zM938.75 695.317h-81.030v40.512c0 22.284-18.23 40.516-40.514 40.516h-81.030c-22.286 0-40.514-18.232-40.514-40.516v-40.512h-81.028v-81.032h324.114v81.032zM817.208 695.317h-81.030v40.442c0.022 0.026 0.046 0.046 0.074 0.072h80.88c0.026-0.026 0.050-0.046 0.074-0.072v-40.442zM1003.74 695.317h-44.946v-40.516h12.382v-478.268h-389.614v478.268h12.818v40.516h-44.948c-11.138 0-20.256-9.118-20.256-20.258v-534.686c0-11.14 9.118-20.258 20.256-20.258h452.62c0.622 0 1.086 0.168 1.458 0.434l0.232-0.434c11.14 0 20.258 9.118 20.258 20.258v534.686c-0.002 11.142-9.118 20.258-20.26 20.258zM927.598 544.355c-0.152 0.058-0.294 0.102-0.45 0.156-0.31 0.11-0.622 0.21-0.93 0.294-0.17 0.044-0.334 0.086-0.5 0.124-0.292 0.064-0.582 0.122-0.874 0.162-0.156 0.026-0.316 0.050-0.476 0.068-0.316 0.038-0.632 0.052-0.946 0.060-0.094 0-0.19 0.018-0.282 0.018-0.026 0-0.042-0.004-0.064-0.004-0.47-0.002-0.932-0.036-1.388-0.098-0.12-0.012-0.236-0.040-0.352-0.056-0.358-0.058-0.712-0.132-1.058-0.22-0.124-0.032-0.244-0.060-0.37-0.1-0.44-0.124-0.872-0.27-1.302-0.446-0.036-0.018-0.074-0.036-0.112-0.054-0.39-0.162-0.78-0.352-1.162-0.552-0.118-0.064-0.238-0.128-0.354-0.196-0.332-0.188-0.658-0.388-0.982-0.6-0.084-0.056-0.17-0.106-0.25-0.162-0.394-0.268-0.78-0.554-1.158-0.856-0.094-0.072-0.182-0.15-0.272-0.226-0.298-0.244-0.592-0.496-0.876-0.76-0.104-0.092-0.208-0.188-0.31-0.286-0.362-0.34-0.716-0.686-1.060-1.048-5.208-5.486-11.674-12.278-19.006-19.962-11.746-12.322-25.74-26.97-40.468-42.384-53.51-55.968-116.662-121.87-116.662-121.87s-56.684 22.622-83.624 37.954c-0.31 0.172-0.656 0.368-1.010 0.566-0.086 0.046-0.17 0.094-0.256 0.14-0.766 0.426-1.628 0.878-2.558 1.324-0.108 0.050-0.216 0.102-0.33 0.156-0.466 0.218-0.95 0.438-1.45 0.64-0.020 0.012-0.036 0.016-0.056 0.028-0.466 0.188-0.95 0.368-1.436 0.536-0.13 0.042-0.26 0.090-0.39 0.128-0.516 0.168-1.034 0.328-1.558 0.458-0.038 0.004-0.076 0.016-0.112 0.024-0.49 0.118-0.98 0.208-1.472 0.278-0.136 0.028-0.276 0.040-0.416 0.058-0.526 0.062-1.054 0.114-1.582 0.114-0.010 0-0.022 0-0.032 0-0.252 0-0.504-0.024-0.76-0.040-0.124-0.012-0.248-0.008-0.376-0.020-0.29-0.028-0.576-0.082-0.862-0.132-0.102-0.024-0.202-0.032-0.298-0.050-0.32-0.070-0.634-0.164-0.946-0.27-0.064-0.024-0.128-0.032-0.188-0.054-0.376-0.128-0.742-0.29-1.102-0.48-5.878-2.992-7.732-9.382-4.102-14.246l106.214-151.208 196.744 298.428c3.316 4.996 0.952 10.98-4.986 14.042-0.47 0.236-0.934 0.442-1.392 0.624z" />
<glyph unicode="&#xe6ac;" glyph-name="start" d="M593.922 346.509v212.776h-159.578v-212.776h-132.978l212.768-212.774 212.776 212.774zM116.24 743.979h791.52v-102.132h-791.52v102.132z" />
<glyph unicode="&#xe6ad;" glyph-name="task_list" horiz-adv-x="1119" d="M1118.895 644.829v96.175l-73.448 12.241c-2.981 9.074-6.617 17.849-10.858 26.272l43.265 60.569-68.005 68.007-60.463-43.189c-8.463 4.281-17.285 7.95-26.408 10.959l-12.212 73.269h-96.171l-12.212-73.269c-9.124-3.009-17.944-6.681-26.407-10.961l-60.465 43.189-68.007-68.007 43.263-60.569c-4.237-8.421-7.873-17.197-10.854-26.27l-73.448-12.241v-96.175l73.621-12.269c2.983-8.993 6.612-17.688 10.83-26.037l-43.412-60.776 68.007-68.005 60.879 43.484c8.306-4.177 16.957-7.769 25.905-10.725l12.3-73.799h96.171l12.3 73.799c8.948 2.956 17.597 6.548 25.906 10.725l60.878-43.482 68.005 68.005-43.408 60.774c4.217 8.349 7.845 17.045 10.828 26.037l73.621 12.269zM862.679 628.862c-35.375 0-64.054 28.675-64.054 64.054 0 35.375 28.679 64.054 64.054 64.054 35.378 0 64.054-28.679 64.054-64.054 0-35.378-28.675-64.054-64.054-64.054zM501.217 692.053c0 41.386 6.957 81.142 19.735 118.187h-520.088v-220.846h515.13c-9.6 32.551-14.776 66.997-14.776 102.659zM863.542 329.728c-120.458 0-227.166 58.798-293.045 149.243h-569.634v-220.846h882.521v72.149c-6.57-0.355-13.183-0.547-19.842-0.547zM0.863 147.703h882.521v-220.846h-882.521v220.846z" />
<glyph unicode="&#xe6ae;" glyph-name="web_service" horiz-adv-x="1156" d="M676.016 728.549c74.792-74.796 115.984-174.242 115.984-280.018s-41.192-205.22-115.984-280.012c-74.796-74.796-174.24-115.984-280.016-115.984-105.774 0-205.218 41.188-280.014 115.984-74.794 74.794-115.986 174.238-115.986 280.012s41.19 205.222 115.986 280.016c74.794 74.796 174.24 115.988 280.014 115.988 105.776 0 205.218-41.192 280.016-115.986zM641.012 203.519c48.772 48.774 81.202 109.524 94.57 175.622-10.422-15.344-20.39-21.036-26.562 13.304-6.36 55.99-57.784 20.222-90.118 40.11-34.036-22.934-110.53 44.6-97.53-31.574 20.056-34.356 108.288 45.982 64.31-26.714-28.056-50.754-102.592-163.144-92.896-221.402 1.224-84.878-86.73-17.7-117.032 10.458-20.386 56.398-6.948 154.976-60.25 182.598-57.854 2.512-107.51 7.774-129.932 72.45-13.492 46.272 14.358 115.158 63.948 125.792 72.584 45.606 98.516-53.406 166.588-55.248 21.136 22.116 78.75 29.148 83.524 53.948-44.666 7.878 56.67 37.556-4.274 54.438-33.622-3.958-55.284-34.864-37.41-61.072-65.152-15.192-67.242 94.286-129.868 59.752-1.592-54.596-102.266-17.7-34.832-6.626 23.168 10.124-37.792 39.458-4.86 34.126 16.178 0.878 70.64 19.964 55.902 32.794 30.328 18.826 55.81-45.084 85.494 1.454 21.43 35.786-8.988 42.392-35.85 24.254-15.144 16.958 26.74 53.578 63.68 69.406 12.312 5.274 24.072 8.148 33.062 7.334 18.608-21.494 53.020-25.216 54.82 2.586-46.080 22.066-96.89 33.726-149.496 33.726-75.504 0-147.314-23.998-206.744-68.366 15.97-7.316 25.038-16.424 9.65-28.074-11.956-35.62-60.46-83.436-103.040-76.666-22.11-38.126-36.672-80.132-42.894-124.16 35.664-11.798 43.888-35.152 36.226-42.962-18.174-15.846-29.344-38.31-35.096-62.9 11.608-71.028 44.99-136.492 96.886-188.39 65.446-65.446 152.458-101.484 245.014-101.484s179.564 36.040 245.010 101.486zM16 350.535c0 0 154-576 998-176 2-2 60-92 60-92l82 286-282 90 72-114c0 0-582-400-890 14l-40-8z" />
<glyph unicode="&#xe6af;" glyph-name="blocked" d="M0 438.857c0-282.77 229.23-512 512-512 282.772 0 512 229.23 512 512s-229.228 512-512 512c-282.77 0-512-229.23-512-512zM896 438.857c0-73.236-20.512-141.68-56.088-199.912l-527.822 527.824c58.23 35.578 126.674 56.088 199.91 56.088 212.076 0 384-171.922 384-384zM128 438.857c0 73.236 20.512 141.678 56.090 199.912l527.822-527.824c-58.234-35.578-126.676-56.088-199.912-56.088-212.076 0-384 171.922-384 384z" />
</font>
</defs>
</svg>
