<!-- Generated by IcoMoon.io -->
<svg version="1.1" xmlns="http://www.w3.org/2000/svg" width="32" height="32" viewBox="0 0 32 32">
<title>add_fill_area</title>
<path d="M27.793 24.822h2.534v-2.834h1.995v5.064h-4.529z"></path>
<path d="M24.669 27.052h-6.85v-2.231h6.85v2.231zM14.708 27.052h-6.85v-2.231h6.85v2.231z"></path>
<path d="M0.206 21.988h1.995v2.834h2.534v2.231h-4.529z"></path>
<path d="M0.206 13.276h1.995v5.99h-1.995v-5.99z"></path>
<path d="M0.206 5.49h4.529v2.231h-2.534v2.834h-1.995z"></path>
<path d="M24.669 7.721h-6.85v-2.231h6.85v2.231zM14.708 7.721h-6.85v-2.231h6.85v2.231z"></path>
<path d="M30.327 7.721h-2.534v-2.231h4.529v5.064h-1.995z"></path>
<path d="M30.327 13.276h1.995v5.99h-1.995v-5.99z"></path>
</svg>
