<!-- Generated by IcoMoon.io -->
<svg version="1.1" xmlns="http://www.w3.org/2000/svg" width="32" height="32" viewBox="0 0 32 32">
<title>arrow</title>
<path d="M20.586 22.586l-2.586 2.586v-18.343l2.586 2.586c0.391 0.39 0.902 0.586 1.414 0.586s1.024-0.195 1.414-0.586c0.781-0.781 0.781-2.047 0-2.828l-6-6c-0.781-0.781-2.047-0.781-2.828 0l-6 6c-0.781 0.781-0.781 2.047 0 2.828s2.047 0.781 2.828 0l2.586-2.586v18.343l-2.586-2.586c-0.781-0.781-2.047-0.781-2.828 0s-0.781 2.047 0 2.829l6 6c0.391 0.39 0.902 0.586 1.414 0.586s1.024-0.195 1.414-0.586l6-6c0.781-0.781 0.781-2.047 0-2.829-0.781-0.781-2.047-0.781-2.829 0z"></path>
</svg>
