<!-- Generated by IcoMoon.io -->
<svg version="1.1" xmlns="http://www.w3.org/2000/svg" width="47" height="32" viewBox="0 0 47 32">
<title>assign_data</title>
<path d="M46.818 7c0-0.888-0.314-2.211-1.81-3.474-0.889-0.75-2.106-1.405-3.618-1.945-2.855-1.020-6.609-1.581-10.572-1.581s-7.718 0.561-10.572 1.581c-1.512 0.54-2.729 1.194-3.618 1.945-1.496 1.263-1.81 2.587-1.81 3.474h-0.005v18h0.005c0 0.888 0.314 2.211 1.81 3.474 0.889 0.75 2.106 1.405 3.618 1.945 2.855 1.020 6.609 1.581 10.572 1.581s7.718-0.561 10.572-1.581c1.512-0.54 2.729-1.194 3.618-1.945 1.496-1.263 1.81-2.587 1.81-3.474v-18zM22.042 5.195c2.384-0.77 5.5-1.195 8.776-1.195s6.392 0.424 8.776 1.195c2.33 0.753 3.091 1.562 3.213 1.805-0.122 0.243-0.884 1.052-3.213 1.805-2.384 0.77-5.5 1.195-8.776 1.195s-6.392-0.424-8.776-1.195c-2.33-0.753-3.091-1.562-3.213-1.805 0.122-0.243 0.884-1.052 3.213-1.805zM39.594 26.805c-2.384 0.77-5.5 1.195-8.776 1.195s-6.392-0.424-8.776-1.195c-2.33-0.753-3.091-1.562-3.213-1.805h-0.005v-4.164c0.44 0.207 0.914 0.401 1.422 0.583 2.855 1.020 6.609 1.581 10.572 1.581s7.718-0.561 10.572-1.581c0.506-0.181 0.978-0.375 1.417-0.58v4.161c-0.122 0.243-0.884 1.052-3.213 1.805zM39.594 17.805c-2.384 0.77-5.5 1.195-8.776 1.195s-6.392-0.424-8.776-1.195c-2.33-0.753-3.091-1.562-3.213-1.805h-0.005v-4.164c0.44 0.207 0.914 0.401 1.422 0.583 2.855 1.020 6.609 1.581 10.572 1.581s7.718-0.561 10.572-1.581c0.506-0.181 0.978-0.375 1.417-0.58v4.161c-0.122 0.243-0.884 1.052-3.213 1.805z"></path>
<path d="M7.052 4.306h-6.99v5.242h6.99v4.368l6.99-6.99-6.99-6.99z"></path>
</svg>
