<!-- Generated by IcoMoon.io -->
<svg version="1.1" xmlns="http://www.w3.org/2000/svg" width="32" height="32" viewBox="0 0 32 32">
<title>assign_task</title>
<path d="M22.2 0c-7.6 5.7-14.9 13.4-14.9 13.4l-5.1-4.7-2.2 2.3c2.2 2 7.1 7.3 8.8 9.3 4.7-7.9 9.6-13.8 14.2-19.1l-0.8-1.2z"></path>
<path d="M23.9 23.5c3.1 0 5.6-3.4 5.6-7.7 0 0 0 0 0 0 0-4.2-2.5-7.7-5.6-7.7s-5.6 3.4-5.6 7.7c0 0 0 0 0 0 0 4.2 2.5 7.7 5.6 7.7z"></path>
<path d="M32 25.3c-1.1-0.5-2.4-0.9-3.8-1.2-1.2 1-2.7 1.5-4.3 1.5s-3.1-0.6-4.3-1.6c-5.4 1.1-9.3 4.3-9.3 8h21.7v-6.7z"></path>
</svg>
