<!-- Generated by IcoMoon.io -->
<svg version="1.1" xmlns="http://www.w3.org/2000/svg" width="32" height="32" viewBox="0 0 32 32">
<title>autoindex</title>
<path d="M12.941 27.458v4.538l-8.168-8.168 8.168-8.168v4.538h10.891v-4.538l8.168 8.168-8.168 8.168v-4.538h-10.891zM2.318 23.541h-2.318v-23.541h25.079v14.165l-1.568-1.568v-1.557h-1.557l-0.062-0.062v0.062h-4.652v4.693h4.652v1.567h-4.652v0.958h-1.567v-0.958h-0.795v-1.567h0.795v-4.693h-0.795v-0.062l-0.062 0.062h-5.414v4.693h0.721l-2.289 2.289v-0.722h-6.27v4.693h2.299l-1.548 1.548zM7.837 11.040h-6.27v4.693h6.27v-4.693zM7.837 4.761h-6.27v4.693h6.27v-4.693zM15.674 4.761h-6.27v4.693h6.27v-4.693zM23.511 4.761h-6.27v4.693h6.27v-4.693z"></path>
</svg>
