<!-- Generated by IcoMoon.io -->
<svg version="1.1" xmlns="http://www.w3.org/2000/svg" width="32" height="32" viewBox="0 0 32 32">
<title>ButtonOK</title>
<path d="M29.735 10.258v11.485h-27.485v-11.485h27.485zM30.44 7.99h-28.895c-0.853 0-1.545 0.761-1.545 1.699v12.623c0 0.938 0.692 1.699 1.545 1.699h28.895c0.853 0 1.545-0.761 1.545-1.699v-12.623c0-0.938-0.692-1.699-1.545-1.699v0z"></path>
<path d="M8.831 14.528c0.17-0.485 0.414-0.908 0.733-1.27s0.71-0.645 1.174-0.85c0.464-0.205 0.986-0.308 1.567-0.308 0.588 0 1.112 0.103 1.572 0.308s0.85 0.489 1.169 0.85c0.319 0.361 0.563 0.785 0.733 1.27s0.255 1.011 0.255 1.578c0 0.552-0.085 1.068-0.255 1.546s-0.414 0.894-0.733 1.249c-0.319 0.354-0.708 0.632-1.169 0.834s-0.985 0.303-1.572 0.303c-0.581 0-1.103-0.101-1.567-0.303s-0.855-0.48-1.174-0.834c-0.319-0.354-0.563-0.77-0.733-1.249s-0.255-0.993-0.255-1.546c0-0.567 0.085-1.093 0.255-1.578zM10.355 17.036c0.074 0.301 0.193 0.572 0.356 0.813s0.375 0.434 0.637 0.579c0.262 0.145 0.581 0.218 0.956 0.218s0.694-0.073 0.956-0.218c0.262-0.145 0.475-0.338 0.637-0.579s0.282-0.512 0.356-0.813c0.074-0.301 0.111-0.611 0.111-0.93 0-0.333-0.037-0.655-0.111-0.967s-0.193-0.59-0.356-0.834c-0.163-0.244-0.376-0.439-0.637-0.584s-0.581-0.218-0.956-0.218c-0.376 0-0.694 0.073-0.956 0.218s-0.475 0.34-0.637 0.584c-0.163 0.244-0.282 0.522-0.356 0.834s-0.111 0.634-0.111 0.967c0 0.319 0.037 0.629 0.111 0.93z"></path>
<path d="M18.308 12.281v3.145l2.964-3.145h2.082l-2.964 2.996 3.251 4.59h-2.093l-2.284-3.411-0.956 0.967v2.444h-1.668v-7.586h1.668z"></path>
</svg>
