<!-- Generated by IcoMoon.io -->
<svg version="1.1" xmlns="http://www.w3.org/2000/svg" width="32" height="32" viewBox="0 0 32 32">
<title>certificate</title>
<path d="M28.986 13.033c0-7.162-5.806-12.969-12.969-12.969s-12.969 5.806-12.969 12.969c0 4.843 2.655 9.065 6.588 11.292l-3.822 7.654 4.647-3.098 1.549 3.098 2.417-6.075c0.521 0.064 1.051 0.097 1.59 0.097 0.54 0 1.072-0.034 1.594-0.098l2.405 6.044 1.549-3.098 4.647 3.098-3.809-7.626c3.93-2.228 6.582-6.449 6.582-11.289zM9.145 19.905c-1.836-1.836-2.847-4.276-2.847-6.872s1.011-5.037 2.847-6.872c1.836-1.836 4.276-2.847 6.872-2.847s5.037 1.011 6.872 2.847c1.836 1.836 2.847 4.276 2.847 6.872s-1.011 5.037-2.847 6.872c-1.836 1.836-4.276 2.847-6.872 2.847s-5.037-1.011-6.872-2.847z"></path>
</svg>
