<!-- Generated by IcoMoon.io -->
<svg version="1.1" xmlns="http://www.w3.org/2000/svg" width="32" height="32" viewBox="0 0 32 32">
<title>checkbox-plus</title>
<path d="M0 0v32h32v-32h-32zM30 30h-28v-28h28v28z"></path>
<path d="M25 13.6h-6.6v-6.6c0-0.331-0.269-0.6-0.6-0.6h-3.6c-0.331 0-0.6 0.269-0.6 0.6v6.6h-6.6c-0.331 0-0.6 0.269-0.6 0.6v3.6c0 0.331 0.269 0.6 0.6 0.6h6.6v6.6c0 0.331 0.269 0.6 0.6 0.6h3.6c0.331 0 0.6-0.269 0.6-0.6v-6.6h6.6c0.331 0 0.6-0.269 0.6-0.6v-3.6c0-0.331-0.269-0.6-0.6-0.6z"></path>
</svg>
