<!-- Generated by IcoMoon.io -->
<svg version="1.1" xmlns="http://www.w3.org/2000/svg" width="32" height="32" viewBox="0 0 32 32">
<title>Circle3</title>
<path d="M21.449 3.099c0.839 0.355 1.635 0.787 2.382 1.293l1.436-1.436c-0.77-0.548-1.591-1.029-2.454-1.435l-1.517 1.517c0.051 0.021 0.102 0.041 0.152 0.062z"></path>
<path d="M19.99 2.577l1.58-1.58c-0.986-0.366-2.018-0.638-3.085-0.804l-1.823 1.823c1.137 0.052 2.25 0.24 3.328 0.561z"></path>
<path d="M3.099 10.551c0.705-1.667 1.715-3.164 3.001-4.451s2.784-2.296 4.451-3.001c1.377-0.582 2.823-0.935 4.313-1.054l2.021-2.021c-0.293-0.016-0.588-0.025-0.885-0.025-8.837 0-16 7.163-16 16 0 0.297 0.009 0.592 0.025 0.885l2.021-2.021c0.119-1.489 0.471-2.936 1.054-4.312z"></path>
<path d="M29.978 15.216l1.811-1.811c-0.173-1.061-0.451-2.087-0.822-3.067l-1.574 1.574c0.327 1.071 0.522 2.176 0.584 3.305z"></path>
<path d="M28.901 10.551c0.009 0.020 0.016 0.040 0.025 0.060l1.513-1.513c-0.411-0.859-0.897-1.675-1.449-2.44l-1.434 1.435c0.528 0.77 0.978 1.591 1.345 2.459z"></path>
<path d="M24.844 5.147c0.366 0.299 0.718 0.617 1.055 0.954 0.316 0.316 0.614 0.644 0.896 0.984l1.343-1.343 0.677 0.677c-0.918-1.226-2.008-2.316-3.234-3.234l0.612 0.612-1.349 1.349z"></path>
<path d="M29.965 16.997c-0.107 1.539-0.464 3.032-1.064 4.452-0.705 1.667-1.715 3.164-3.001 4.451s-2.784 2.296-4.451 3.001c-1.42 0.601-2.913 0.957-4.452 1.064l-2.003 2.003c0.333 0.021 0.668 0.032 1.006 0.032 8.837 0 16-7.163 16-16 0-0.338-0.012-0.673-0.032-1.006l-2.003 2.003z"></path>
<path d="M11.911 29.394l-1.574 1.574c0.98 0.371 2.006 0.648 3.067 0.822l1.811-1.811c-1.129-0.062-2.234-0.257-3.305-0.584z"></path>
<path d="M10.551 28.901c-0.868-0.367-1.689-0.817-2.459-1.345l-1.435 1.434c0.766 0.552 1.582 1.038 2.44 1.449l1.513-1.513c-0.020-0.008-0.040-0.016-0.060-0.025z"></path>
<path d="M3.099 21.449c-0.021-0.050-0.041-0.101-0.062-0.152l-1.517 1.517c0.407 0.863 0.887 1.684 1.435 2.454l1.436-1.436c-0.506-0.748-0.938-1.544-1.293-2.383z"></path>
<path d="M7.085 26.795c-0.34-0.282-0.669-0.58-0.984-0.896-0.337-0.337-0.655-0.689-0.954-1.055l-1.414 1.414-0.071-0.071c0.647 0.783 1.368 1.504 2.151 2.151l-0.136-0.136 1.407-1.407z"></path>
<path d="M2.016 16.662l-1.823 1.823c0.166 1.067 0.438 2.099 0.804 3.085l1.58-1.58c-0.321-1.079-0.509-2.192-0.561-3.328z"></path>
<path d="M16 2c-0.381 0-0.76 0.016-1.136 0.046l-12.818 12.818c-0.030 0.376-0.046 0.755-0.046 1.136 0 0.221 0.006 0.442 0.016 0.662l14.646-14.646c-0.22-0.010-0.44-0.016-0.662-0.016z"></path>
<path d="M16 2c0.221 0 0.442 0.006 0.662 0.016l1.823-1.823c-0.525-0.082-1.059-0.138-1.6-0.168l-2.021 2.021c0.376-0.030 0.755-0.046 1.136-0.046z"></path>
<path d="M2 16c0-0.381 0.016-0.76 0.046-1.136l-2.021 2.021c0.029 0.541 0.086 1.075 0.168 1.6l1.823-1.823c-0.010-0.22-0.016-0.44-0.016-0.662z"></path>
<path d="M19.99 2.577l-17.413 17.413c0.131 0.442 0.285 0.878 0.461 1.307l18.259-18.259c-0.429-0.176-0.865-0.329-1.307-0.461z"></path>
<path d="M21.297 3.037l1.517-1.517c-0.406-0.191-0.821-0.366-1.244-0.524l-1.58 1.58c0.442 0.131 0.878 0.285 1.307 0.461z"></path>
<path d="M2.577 19.99l-1.58 1.58c0.157 0.424 0.332 0.838 0.524 1.244l1.517-1.517c-0.176-0.429-0.329-0.865-0.461-1.307z"></path>
<path d="M23.831 4.392l-19.439 19.439c0.236 0.348 0.488 0.686 0.755 1.013l19.698-19.698c-0.327-0.267-0.665-0.519-1.013-0.755z"></path>
<path d="M24.844 5.147l1.349-1.349-0.612-0.612c-0.104-0.078-0.208-0.154-0.314-0.229l-1.436 1.436c0.348 0.236 0.686 0.488 1.013 0.755z"></path>
<path d="M5.147 24.844c-0.267-0.327-0.519-0.665-0.755-1.013l-1.436 1.436c0.224 0.315 0.46 0.622 0.706 0.92l0.071 0.071 1.414-1.414z"></path>
<path d="M26.795 7.085l-19.711 19.711c0.325 0.269 0.661 0.522 1.008 0.76l19.463-19.463c-0.238-0.346-0.491-0.683-0.76-1.008z"></path>
<path d="M28.815 6.419l-0.677-0.677-1.343 1.343c0.269 0.325 0.522 0.661 0.76 1.008l1.434-1.435"></path>
<path d="M7.085 26.795l-1.407 1.407 0.136 0.136c0.274 0.227 0.556 0.444 0.845 0.652l1.435-1.434c-0.346-0.238-0.683-0.491-1.008-0.76z"></path>
<path d="M28.925 10.612l-18.314 18.314c0.427 0.178 0.86 0.335 1.299 0.469l17.483-17.483c-0.134-0.439-0.29-0.873-0.469-1.299z"></path>
<path d="M10.612 28.925l-1.513 1.513c0.404 0.193 0.817 0.369 1.239 0.529l1.574-1.574c-0.439-0.134-0.872-0.29-1.299-0.469z"></path>
<path d="M29.394 11.911l1.574-1.574c-0.16-0.422-0.336-0.835-0.529-1.239l-1.513 1.513c0.178 0.427 0.334 0.86 0.469 1.299z"></path>
<path d="M29.978 15.216l-14.762 14.762c0.26 0.014 0.522 0.022 0.784 0.022 0.334 0 0.666-0.012 0.997-0.035l12.968-12.968c0.023-0.33 0.035-0.663 0.035-0.997 0-0.263-0.008-0.524-0.022-0.784z"></path>
<path d="M16 30c-0.263 0-0.524-0.008-0.784-0.022l-1.811 1.811c0.522 0.085 1.052 0.145 1.589 0.178l2.003-2.003c-0.33 0.023-0.663 0.035-0.997 0.035z"></path>
<path d="M30 16c0 0.334-0.012 0.666-0.035 0.997l2.003-2.003c-0.033-0.537-0.093-1.068-0.178-1.589l-1.811 1.811c0.014 0.26 0.022 0.522 0.022 0.784z"></path>
</svg>
