<!-- Generated by IcoMoon.io -->
<svg version="1.1" xmlns="http://www.w3.org/2000/svg" width="32" height="32" viewBox="0 0 32 32">
<title>clipboard4</title>
<path d="M24 4h-4v-2c0-1.1-0.9-2-2-2h-4c-1.1 0-2 0.9-2 2v2h-4v4h16v-4zM18 4h-4v-1.996c0.001-0.001 0.002-0.002 0.004-0.004h3.993c0.001 0.001 0.003 0.002 0.004 0.004v1.996zM27 4h-2v2h1v24h-20v-24h1v-2h-2c-0.55 0-1 0.45-1 1v26c0 0.55 0.45 1 1 1h22c0.55 0 1-0.45 1-1v-26c0-0.55-0.45-1-1-1zM8 12h16v2h-16zM8 18h16v2h-16zM8 24h16v2h-16z"></path>
</svg>
