<!-- Generated by IcoMoon.io -->
<svg version="1.1" xmlns="http://www.w3.org/2000/svg" width="32" height="32" viewBox="0 0 32 32">
<title>close2</title>
<path d="M23.789 20.961l-2.829 2.829-4.961-4.961-4.961 4.961-2.828-2.828 4.961-4.961-4.961-4.961 2.828-2.828 4.961 4.961 4.961-4.961 2.828 2.828-4.961 4.961 4.961 4.961zM16 4.625c-3.038 0-5.895 1.183-8.043 3.332-2.149 2.148-3.332 5.005-3.332 8.043s1.183 5.895 3.332 8.043c2.148 2.148 5.005 3.332 8.043 3.332s5.895-1.183 8.043-3.332c2.148-2.148 3.332-5.005 3.332-8.043s-1.183-5.895-3.332-8.043c-2.148-2.149-5.005-3.332-8.043-3.332zM16 2v0c7.732 0 14 6.268 14 14s-6.268 14-14 14c-7.732 0-14-6.268-14-14s6.268-14 14-14z"></path>
</svg>
