<!-- Generated by IcoMoon.io -->
<svg version="1.1" xmlns="http://www.w3.org/2000/svg" width="32" height="32" viewBox="0 0 32 32">
<title>cloud-upload</title>
<path d="M24.528 27.734h-18.394c-3.388 0-6.133-2.745-6.133-6.133 0-2.927 2.050-5.375 4.795-5.985-0.172-0.577-0.263-1.187-0.263-1.818 0-3.523 2.86-6.383 6.387-6.383 0.623 0 1.23 0.091 1.804 0.26 1.44-2.475 4.124-4.137 7.192-4.137 4.596 0 8.322 3.726 8.322 8.325 0 0.617-0.067 1.218-0.195 1.797 2.357 1.261 3.958 3.743 3.958 6.599 0 4.126-3.338 7.468-7.472 7.475zM8.267 20h4.833v7.733h5.801v-7.733h4.833l-7.733-7.733-7.733 7.733z"></path>
</svg>
