<!-- Generated by IcoMoon.io -->
<svg version="1.1" xmlns="http://www.w3.org/2000/svg" width="42" height="32" viewBox="0 0 42 32">
<title>cloud-product</title>
<path d="M31.992 31.56h-23.992c-4.419 0-8-3.58-8-8 0-3.818 2.674-7.011 6.255-7.807-0.225-0.752-0.344-1.548-0.344-2.371 0-4.595 3.73-8.326 8.33-8.326 0.813 0 1.605 0.119 2.353 0.339 1.878-3.228 5.379-5.396 9.381-5.396 5.994 0 10.854 4.86 10.854 10.858 0 0.805-0.088 1.588-0.255 2.344 3.074 1.645 5.163 4.882 5.163 8.607 0 5.383-4.356 9.743-9.746 9.75zM13.251 26.669c2.887-0.001 4.292-0.316 5.914-1.363 2.105-1.345 3.25-3.337 3.25-5.731 0-2.438-1.092-4.465-3.128-5.766-1.579-0.994-3.201-1.379-5.993-1.38h-2.861v14.24h2.817zM25.741 26.667l3.519-5.645 3.536 5.645 2.68 0.002c-1.060-1.085-1.911-2.689-1.911-4.566 0-1.352 0.271-2.617 0.917-3.591l-1.942-0.99c-0.439 0.961-0.68 1.816-0.774 3.019-0.026 0.328 0.011 0.749 0.036 1.063l-0.205-0.356-2.333-3.929-3.576 5.957v-9.875h-1.997v13.267h2.051zM18.132 23.62c-1.144 0.725-2.723 1.022-4.689 1.022l-0.794-0.022v-10.186l0.794 0.013c1.966 0 3.624 0.297 4.689 1.005 1.38 0.9 2.202 2.411 2.202 4.080 0 1.695-0.795 3.162-2.202 4.088z"></path>
</svg>
