<!-- Generated by IcoMoon.io -->
<svg version="1.1" xmlns="http://www.w3.org/2000/svg" width="32" height="32" viewBox="0 0 32 32">
<title>configurations</title>
<path d="M17.7 22.35c-3.5 0.938-7.113-1.137-8.050-4.65s1.137-7.113 4.65-8.050c3.5-0.938 7.112 1.137 8.050 4.65 0.938 3.5-1.137 7.1-4.65 8.050zM27.663 14.463c-0.075-0.5-0.15-1-0.288-1.5s-0.313-0.988-0.5-1.45l2.538-3.362c0.225-0.3 0.2-0.737-0.075-1.025l-4.438-4.438c-0.275-0.275-0.712-0.3-1.012-0.075l-3.387 2.525c-0.938-0.388-1.938-0.675-2.962-0.813l-1.637-3.862c-0.162-0.338-0.55-0.537-0.925-0.438l-6.063 1.625c-0.375 0.1-0.613 0.462-0.575 0.837l0.512 4.175c-0.825 0.638-1.537 1.363-2.162 2.175l-4.188-0.512c-0.375-0.037-0.738 0.2-0.837 0.575l-1.625 6.063c-0.1 0.375 0.087 0.762 0.438 0.925l3.875 1.65c0.075 0.5 0.15 1 0.287 1.5s0.313 0.975 0.5 1.45l-2.525 3.363c-0.225 0.3-0.2 0.738 0.075 1.025l4.438 4.45c0.275 0.275 0.713 0.313 1.012 0.075l3.362-2.538c0.938 0.387 1.938 0.663 2.963 0.813l1.65 3.863c0.15 0.337 0.538 0.537 0.913 0.438l6.063-1.625c0.375-0.1 0.613-0.462 0.575-0.837l-0.512-4.175c0.825-0.637 1.55-1.363 2.163-2.175l4.188 0.512c0.375 0.038 0.738-0.2 0.837-0.575l1.625-6.063c0.1-0.375-0.087-0.762-0.438-0.925l-3.863-1.65z"></path>
</svg>
