<!-- Generated by IcoMoon.io -->
<svg version="1.1" xmlns="http://www.w3.org/2000/svg" width="32" height="32" viewBox="0 0 32 32">
<title>connect_to_MFP</title>
<path d="M27.313 6.325l-9.975 0.025 9.613-3.45-0.35-0.988c-0.262-0.725-1.063-1.1-1.788-0.838l-8.4 3.013v-1.3c0.012-1.538-1.238-2.788-2.787-2.788h-8.9c-1.538 0-2.788 1.25-2.788 2.788v9.975h28.175v-3.637c0-1.55-1.262-2.8-2.8-2.8z"></path>
<path d="M20.913 14.7c-0.012 1.012-0.8 1.825-1.775 1.825h-4.463c-0.975 0-1.75-0.813-1.775-1.825h-10.963v7.675h28.175v-7.675h-9.2z"></path>
<path d="M20.9 24.288c-0.025 1-0.8 1.813-1.775 1.813h-4.463c-0.963 0-1.75-0.813-1.775-1.813h-10.95v7.712h28.175v-7.712h-9.213z"></path>
</svg>
