<!-- Generated by IcoMoon.io -->
<svg version="1.1" xmlns="http://www.w3.org/2000/svg" width="32" height="32" viewBox="0 0 32 32">
<title>connect_to_outlook</title>
<path d="M20 6.787v6.263l2.188 1.375c0.063 0.012 0.188 0.012 0.238 0l9.412-6.35c0-0.75-0.7-1.287-1.1-1.287h-10.738z"></path>
<path d="M20 15.375l2 1.375c0.275 0.212 0.625 0 0.625 0-0.337 0.212 9.225-6.15 9.225-6.15v11.5c0 1.25-0.8 1.775-1.7 1.775h-10.137l-0.012-8.5z"></path>
<path d="M9.668 12.506c-0.686 0-1.224 0.343-1.616 0.979s-0.588 1.469-0.588 2.547c0 1.077 0.196 1.91 0.588 2.547s0.931 0.93 1.567 0.93c0.686 0 1.224-0.294 1.616-0.882s0.588-1.42 0.588-2.498c0-1.126-0.196-2.008-0.588-2.596-0.392-0.735-0.931-1.028-1.567-1.028z"></path>
<path d="M0.167 3.593v24.487l18.61 3.918v-31.98l-18.61 3.575zM12.656 19.999c-0.784 1.028-1.812 1.567-3.085 1.567-1.224 0-2.253-0.49-3.036-1.518s-1.175-2.302-1.175-3.918c0-1.714 0.392-3.085 1.175-4.114s1.812-1.567 3.134-1.567c1.224 0 2.204 0.49 2.987 1.518s1.126 2.351 1.126 3.967c0.049 1.665-0.343 3.036-1.126 4.065z"></path>
</svg>
