<!-- Generated by IcoMoon.io -->
<svg version="1.1" xmlns="http://www.w3.org/2000/svg" width="32" height="32" viewBox="0 0 32 32">
<title>connect_to_mail</title>
<path d="M0 2.438v2.050l13.588 7.138 13.588-7.138v-2.050h-27.175zM0 6.938v13h14.35l3.375-5.912 1.613 0.925c0.175 0.1 0.375 0.15 0.575 0.15 0.4 0 0.762-0.213 0.962-0.563 0.1-0.175 0.15-0.363 0.15-0.55l-0.025-1.875 6.188-0.037v-5.138l-13.6 7.138-13.588-7.138z"></path>
<path d="M30.9 23.25c-0.825-1.413-0.35-3.238 1.075-4.075l-1.55-2.65c-0.438 0.262-0.95 0.413-1.488 0.413-1.637 0.012-2.988-1.325-2.988-2.975h-3.075c0.012 0.512-0.113 1.025-0.387 1.5-0.813 1.425-2.637 1.925-4.075 1.1l-1.525 2.675c0.45 0.25 0.825 0.613 1.1 1.087 0.825 1.413 0.35 3.238-1.075 4.075l1.55 2.65c0.438-0.262 0.938-0.413 1.488-0.413 1.637-0.012 2.975 1.313 2.988 2.962l3.075-0.012c0-0.5 0.125-1.012 0.387-1.488 0.813-1.425 2.625-1.913 4.063-1.113l1.525-2.675c-0.425-0.238-0.813-0.6-1.087-1.063zM24.462 24.95c-1.75 0.012-3.175-1.4-3.188-3.15s1.4-3.175 3.15-3.188c1.75-0.012 3.175 1.4 3.188 3.15s-1.4 3.175-3.15 3.188z"></path>
</svg>
