<!-- Generated by IcoMoon.io -->
<svg version="1.1" xmlns="http://www.w3.org/2000/svg" width="32" height="32" viewBox="0 0 32 32">
<title>CreateDWRequest</title>
<path d="M15.969 10.406c-1.241 0-2.25 1.009-2.25 2.25s1.009 2.25 2.25 2.25 2.25-1.009 2.25-2.25-1.009-2.25-2.25-2.25z"></path>
<path d="M28.747 0h-25.494c-0.692 0-1.253 0.56-1.253 1.25v29.5c0 0.69 0.561 1.25 1.253 1.25h25.494c0.692 0 1.253-0.56 1.253-1.25v-29.5c0-0.69-0.561-1.25-1.253-1.25zM18.565 20.752l-5.725 6.399c-0.289 0.404-0.64 0.756-1.045 1.049-0.501 0.362-1.063 0.618-1.658 0.756l-0.073 0.073-0.705 0.039c-0.003 0-0.007 0-0.010 0.001l-0.052 0.003h-0.007c-0.066 0.003-0.132 0.004-0.197 0.004-1.474 0-2.87-0.713-3.734-1.908-1.489-2.059-1.026-4.946 1.035-6.437 0.062-0.045 0.128-0.089 0.198-0.135 0.094-0.066 0.192-0.125 0.294-0.175 0.211-0.115 0.431-0.214 0.657-0.295l2.689-1.196c-1.698-1.554-2.764-3.789-2.764-6.272 0-4.694 3.806-8.5 8.5-8.5s8.5 3.806 8.5 8.5c0 3.789-2.479 6.998-5.904 8.095z"></path>
<path d="M18.155 17.847c-0.092-0.123-0.238-0.191-0.391-0.183-0.056 0.003-0.11 0.016-0.161 0.039l-5.581 2.482c0 0 0 0 0 0l-3.789 1.685c-0.167 0.056-0.33 0.128-0.484 0.215l-0.004 0.002c-0.034 0.015-0.066 0.035-0.097 0.059-0.060 0.037-0.109 0.071-0.156 0.104-1.221 0.884-1.496 2.596-0.613 3.818 0.033 0.046 0.068 0.091 0.104 0.134 0.012 0.015 0.025 0.028 0.037 0.043 0.024 0.028 0.048 0.057 0.074 0.084 0.015 0.016 0.031 0.032 0.047 0.048 0.023 0.024 0.046 0.048 0.071 0.071 0.017 0.016 0.035 0.032 0.053 0.048 0.024 0.021 0.047 0.043 0.071 0.063 0.019 0.016 0.038 0.031 0.057 0.046 0.024 0.019 0.048 0.038 0.073 0.057 0.020 0.015 0.040 0.029 0.061 0.043 0.025 0.017 0.049 0.035 0.075 0.051 0.021 0.014 0.042 0.027 0.064 0.040 0.025 0.016 0.051 0.031 0.077 0.046 0.022 0.012 0.044 0.024 0.066 0.036 0.026 0.014 0.053 0.028 0.079 0.041 0.023 0.011 0.045 0.022 0.068 0.032 0.027 0.012 0.054 0.024 0.082 0.036 0.023 0.010 0.046 0.019 0.070 0.028 0.028 0.011 0.056 0.021 0.084 0.031 0.024 0.008 0.047 0.016 0.071 0.024 0.029 0.009 0.058 0.018 0.087 0.026 0.024 0.007 0.048 0.014 0.072 0.020 0.030 0.008 0.060 0.014 0.090 0.021 0.024 0.005 0.048 0.011 0.072 0.015 0.031 0.006 0.062 0.011 0.093 0.015 0.024 0.004 0.047 0.008 0.072 0.011 0.032 0.004 0.065 0.007 0.097 0.010 0.023 0.002 0.046 0.005 0.070 0.006 0.034 0.002 0.069 0.003 0.103 0.004 0.022 0.001 0.043 0.002 0.065 0.002 0.004 0 0.008 0 0.012 0 0.051 0 0.101-0.001 0.153-0.004 0 0 0 0 0 0s0 0 0 0c0.522-0.029 1.024-0.207 1.45-0.515 0.264-0.191 0.49-0.425 0.67-0.694l6.763-7.559c0.141-0.157 0.155-0.394 0.035-0.567l-0.009-0.012z"></path>
</svg>
