<!-- Generated by IcoMoon.io -->
<svg version="1.1" xmlns="http://www.w3.org/2000/svg" width="32" height="32" viewBox="0 0 32 32">
<title>CurrentOverlay_5</title>
<path d="M9.938 18.503v4.469h4.469l12.067-12.067-4.469-4.469z"></path>
<path d="M29.548 5.935l-2.573-2.573c-0.195-0.195-0.436-0.317-0.689-0.366-0.255-0.050-0.521-0.026-0.764 0.073-0.161 0.065-0.313 0.163-0.443 0.293l-1.566 1.566 4.469 4.469 1.566-1.566c0.521-0.521 0.521-1.375 0-1.896z"></path>
<path d="M15 6.25l1.625-1.625-1.625-1.625h-9.75l-1.625 1.625 1.625 1.625z"></path>
<path d="M5.25 13.563v-6.5l-1.625-1.625-1.625 1.625v6.5l1.625 1.625z"></path>
<path d="M5.25 25.75l-1.625 1.625 1.625 1.625h9.75l1.625-1.625-1.625-1.625z"></path>
<path d="M3.625 16l1.625 1.625h3.356l3.25-3.25h-6.606z"></path>
<path d="M15.054 24.535h-0.054v0.402l1.625 1.625 1.625-1.625v-3.598l-2.738 2.738z"></path>
</svg>
