<!-- Generated by IcoMoon.io -->
<svg version="1.1" xmlns="http://www.w3.org/2000/svg" width="32" height="32" viewBox="0 0 32 32">
<title>CurrentOverlay_4</title>
<path d="M29.611 5.974l-2.573-2.573c-0.195-0.195-0.436-0.317-0.689-0.366-0.255-0.050-0.521-0.026-0.764 0.073-0.161 0.065-0.313 0.163-0.443 0.293l-1.566 1.566 4.469 4.469 1.566-1.566c0.521-0.521 0.521-1.375 0-1.896z"></path>
<path d="M18.010 10.532v0l-8.010 8.010v4.469h4.469l12.067-12.067-4.469-4.469z"></path>
<path d="M18.010 5l-2-2-2 2v7.322l4-4z"></path>
<path d="M6 13v-8l-2-2-2 2v8l2 2z"></path>
<path d="M15.117 24.574h-1.107v2.426l2 2 2-2v-5.319l-2.436 2.436z"></path>
<path d="M6 14l-2 2 2 2h2.438v-0.105l3.895-3.895z"></path>
</svg>
