<!-- Generated by IcoMoon.io -->
<svg version="1.1" xmlns="http://www.w3.org/2000/svg" width="32" height="32" viewBox="0 0 32 32">
<title>CurrentOverlay_3</title>
<path d="M9.938 18.554v4.469h4.469l12.067-12.067-4.469-4.469z"></path>
<path d="M29.548 5.986l-2.573-2.573c-0.521-0.521-1.375-0.521-1.896 0l-1.566 1.566 4.469 4.469 1.566-1.566c0.521-0.521 0.521-1.375 0-1.896z"></path>
<path d="M13.375 7.125v5.782l3.25-3.25v-2.532l-1.625-1.625z"></path>
<path d="M8.594 17.688l3.25-3.25h-8.219l-1.625 1.625 1.625 1.625z"></path>
<path d="M13.375 6.313l1.625-1.625-1.625-1.625h-9.75l-1.625 1.625 1.625 1.625z"></path>
<path d="M15.054 24.586h-1.679v0.414l1.625 1.625 1.625-1.625v-1.985l-1.113 1.113z"></path>
<path d="M3.625 25.813l-1.625 1.625 1.625 1.625h9.75l1.625-1.625-1.625-1.625z"></path>
</svg>
