<!-- Generated by IcoMoon.io -->
<svg version="1.1" xmlns="http://www.w3.org/2000/svg" width="32" height="32" viewBox="0 0 32 32">
<title>CurrentOverlay_2</title>
<path d="M9.938 18.532v4.469h4.469l12.067-12.067-4.469-4.469z"></path>
<path d="M16.594 16l-1.625-1.625h-0.811l-3.25 3.25h4.061z"></path>
<path d="M5.219 25.75l-1.625 1.625 1.625 1.625h9.75l1.625-1.625-1.625-1.625z"></path>
<path d="M18.219 7.063l-1.625-1.625-1.625 1.625v3.849l3.25-3.25z"></path>
<path d="M16.594 15.188l1.625-1.625v-3.249l-3.249 3.249z"></path>
<path d="M14.969 6.25l1.625-1.625-1.625-1.625h-9.75l-1.625 1.625 1.625 1.625z"></path>
<path d="M5.219 24.938v-6.5l-1.625-1.625-1.625 1.625v6.5l1.625 1.625z"></path>
<path d="M11.506 14.375h-6.287l-1.625 1.625 1.625 1.625h3.037l0.418-0.418z"></path>
<path d="M29.548 5.964l-2.573-2.573c-0.521-0.521-1.375-0.521-1.896 0l-1.566 1.566 4.469 4.469 1.566-1.566c0.521-0.521 0.521-1.375 0-1.896z"></path>
</svg>
