<!-- Generated by IcoMoon.io -->
<svg version="1.1" xmlns="http://www.w3.org/2000/svg" width="34" height="32" viewBox="0 0 34 32">
<title>database_field</title>
<path d="M0 0v32h34.091v-32h-34.091zM10.653 29.896h-8.523v-6.379h8.523v6.379zM10.653 21.387h-8.523v-6.379h8.523v6.379zM10.653 12.851h-8.523v-6.379h8.523v6.379zM21.307 29.896h-8.523v-6.379h8.523v6.379zM21.307 21.387h-8.523v-6.379h8.523v6.379zM21.307 12.851h-8.523v-6.379h8.523v6.379zM31.96 29.896h-8.523v-6.379h8.523v6.379zM31.96 21.387h-8.523v-6.379h8.523v6.379zM31.96 12.851h-8.523v-6.379h8.523v6.379z"></path>
</svg>
