<!-- Generated by IcoMoon.io -->
<svg version="1.1" xmlns="http://www.w3.org/2000/svg" width="28" height="32" viewBox="0 0 28 32">
<title>database4</title>
<path d="M20 0h-20v32h28v-24l-8-8zM26 30h-24v-28h18v6h6v22z"></path>
<path d="M14.063 13.438c-3.45 0-6.25 0.875-6.25 1.956v1.563c0 1.081 2.8 1.956 6.25 1.956s6.25-0.875 6.25-1.956v-1.563c0-1.081-2.8-1.956-6.25-1.956z"></path>
<path d="M14.063 20.081c-3.45 0-6.25-0.875-6.25-1.956v2.344c0 1.081 2.8 1.956 6.25 1.956s6.25-0.875 6.25-1.956v-2.344c0 1.081-2.8 1.956-6.25 1.956z"></path>
<path d="M14.063 23.594c-3.45 0-6.25-0.875-6.25-1.956v2.344c0 1.081 2.8 1.956 6.25 1.956s6.25-0.875 6.25-1.956v-2.344c0 1.081-2.8 1.956-6.25 1.956z"></path>
</svg>
