<!-- Generated by IcoMoon.io -->
<svg version="1.1" xmlns="http://www.w3.org/2000/svg" width="32" height="32" viewBox="0 0 32 32">
<title>deletion-policy</title>
<path d="M17.544 32h-13.043c-1.1 0-2.081-0.897-2.181-1.992l-1.638-18.016c-0.099-1.095 0.717-1.99 1.819-1.992h19c1.102 0.002 1.919 0.898 1.819 1.992l-0.122 1.338-0.204 0.007c-0.369 0.023-0.737 0.064-1.101 0.126-0.655 0.111-1.297 0.289-1.928 0.537h-3.964v2.717c-0.236 0.258-0.454 0.525-0.659 0.801-0.368 0.497-0.69 1.028-0.966 1.581l-0.376 0.852v-5.952h-4v14h4v-0.631l0.188 0.453c0.254 0.566 0.555 1.111 0.902 1.625 0.379 0.562 0.812 1.088 1.292 1.568 0.355 0.355 0.737 0.684 1.162 0.986zM23.009 15.34c0.212-0.015 0.426-0.023 0.643-0.023 1.156 0 2.239 0.22 3.248 0.661s1.89 1.037 2.643 1.789c0.752 0.753 1.349 1.633 1.789 2.643s0.661 2.092 0.661 3.248-0.22 2.239-0.661 3.248c-0.441 1.009-1.037 1.895-1.789 2.657s-1.634 1.358-2.643 1.789c-1.009 0.431-2.092 0.647-3.248 0.647s-2.239-0.216-3.248-0.647c-0.111-0.047-0.221-0.097-0.329-0.149l-0.004-0.002-0.004-0.002c-0.124-0.059-0.246-0.121-0.366-0.186l-0.002-0.001-0.002-0.001c-0.122-0.066-0.242-0.134-0.359-0.205l-0.001-0-0-0c-0.576-0.349-1.101-0.763-1.575-1.243-0.343-0.347-0.654-0.721-0.932-1.12l-0-0-0.003-0.004-0.020-0.029-0.003-0.004-0.001-0.002-0.012-0.017-0.012-0.018-0.001-0.002c-0.009-0.013-0.018-0.026-0.027-0.040l-0.028-0.042c-0.287-0.431-0.537-0.891-0.75-1.38-0.369-0.846-0.583-1.743-0.643-2.691v-0.001l-0-0c-0.011-0.183-0.017-0.369-0.017-0.556 0-0.036 0-0.072 0.001-0.108 0 0 0.001-0.054 0.001-0.054l0.001-0.023 0-0.007 0-0.005c0.014-0.636 0.095-1.25 0.245-1.841l0.001-0.005 0.003-0.011 0.007-0.028 0.004-0.015 0.002-0.007 0.002-0.007 0.005-0.021 0.009-0.032 0-0.001 0-0c0.069-0.254 0.15-0.504 0.244-0.749 0.043-0.112 0.088-0.223 0.137-0.334 0.441-1.009 1.037-1.89 1.79-2.643s1.633-1.349 2.643-1.79c0.308-0.134 0.622-0.248 0.944-0.341l0.001-0c0.535-0.155 1.089-0.254 1.662-0.296 0 0 0 0 0 0zM8 14h-4l1 14h3v-14zM24 8h-24v-1c0-1.655 1.339-2.996 3-3h2.941l0.351-2.514c0.115-0.816 0.879-1.483 1.708-1.486h7.998c0.829 0.003 1.594 0.671 1.708 1.486l0.351 2.514h2.943c1.685 0.029 3 1.361 3 3v1zM15.76 2h-7.52l-0.279 2h8.079l-0.28-2zM22.605 24.099l3.441 3.441 1.459-1.487-2.808-2.835v-3.716h-2.061l-0.031 0.342v4.255z"></path>
</svg>
