<!-- Generated by IcoMoon.io -->
<svg version="1.1" xmlns="http://www.w3.org/2000/svg" width="32" height="32" viewBox="0 0 32 32">
<title>docClipped</title>
<path d="M32 4.031h-6.023v-1.767c-0-1.249-1.048-2.264-2.337-2.264h-3.316c-1.289 0-2.337 1.016-2.337 2.264v1.767h-17.987v27.971l32-0.002v-27.969zM19.988 2.264c-0-0.149 0.154-0.276 0.337-0.276h3.316c0.183 0 0.337 0.126 0.337 0.276v1.767h-3.99v-1.767zM2 6.031h15.987v5.715c0 1.248 1.048 2.264 2.337 2.264h5.355c1.302 0 2.337-1.016 2.337-2.264v-3.747h-2l-0.006 3.704c0 0.13-0.084 0.318-0.291 0.318h-5.394c-0.183 0-0.337-0.126-0.337-0.275v-3.754h0v-1.961h10.012v9.98h-28v-9.98zM2.056 30v-11.953h7.345l0.866 1.053 0 9.899-0.815 1.001h-7.396zM11.933 30v-11.953h8.211l0 11.953h-8.211zM30 27.996v2.004h-8.19v-11.953h8.19v2.057h-5.892v7.892h5.892z"></path>
<path d="M14.232 20.103h3.756v7.892h-3.756v-7.892z"></path>
<path d="M4.355 20.103h3.756v7.892h-3.756v-7.892z"></path>
</svg>
