<!-- Generated by IcoMoon.io -->
<svg version="1.1" xmlns="http://www.w3.org/2000/svg" width="32" height="32" viewBox="0 0 32 32">
<title>DocuWare_Icons-WebServices</title>
<path d="M4.013 4.013h7.975v1.981h-7.975v-1.981z"></path>
<path d="M4.013 7.975h7.975v1.981h-7.975v-1.981z"></path>
<path d="M4.013 12.038h5.994v1.981h-5.994v-1.981z"></path>
<path d="M21.029 10.006c0 0 0 0 0 0s0 0 0 0 0 0 0 0c-1.829 0-3.505 0.457-4.978 1.219v-11.225h-16.051v21.943h5.994v1.981l2.997-2.997-2.997-2.997v1.981h-3.962v-17.93h11.987v10.514c-2.438 2.032-4.013 5.079-4.013 8.483 0 6.095 4.927 11.022 11.022 11.022 0 0 0 0 0 0s0 0 0 0 0 0 0 0c6.044 0 10.971-4.927 10.971-10.971s-4.927-11.022-10.971-11.022zM14.629 14.629c0.66-0.66 1.422-1.219 2.235-1.625-1.117 1.27-1.93 2.794-2.438 4.47-0.559-0.102-1.067-0.203-1.575-0.305 0.457-0.914 1.067-1.778 1.778-2.54zM12.241 23.111c-0.152-0.711-0.254-1.371-0.254-2.133 0-0.66 0.051-1.321 0.203-1.93 0.559 0.152 1.168 0.254 1.778 0.356-0.051 0.508-0.102 1.067-0.102 1.575 0 0.863 0.102 1.727 0.254 2.54-0.66-0.102-1.27-0.254-1.829-0.406 0 0.051 0 0-0.051 0zM14.629 27.378c-0.61-0.61-1.117-1.27-1.524-1.981 0.559 0.102 1.117 0.203 1.676 0.305 0.508 1.219 1.219 2.387 2.032 3.352-0.762-0.457-1.524-1.016-2.184-1.676zM19.962 29.003c-0.508-0.356-0.914-0.762-1.371-1.168-0.559-0.559-1.016-1.219-1.422-1.93 0.914 0.051 1.829 0.102 2.743 0.152v2.946zM19.962 24.076c-1.27-0.051-2.489-0.102-3.657-0.254-0.254-0.914-0.406-1.879-0.406-2.844 0-0.457 0.051-0.863 0.102-1.321 1.27 0.152 2.59 0.203 3.962 0.254v4.165zM19.962 17.981c-1.219-0.051-2.387-0.102-3.505-0.203 0.457-1.321 1.168-2.54 2.133-3.556 0.406-0.457 0.863-0.864 1.371-1.168v4.927zM27.378 14.629c0.762 0.762 1.321 1.575 1.778 2.489-0.508 0.102-1.016 0.203-1.524 0.305-0.508-1.676-1.321-3.149-2.438-4.419 0.762 0.457 1.524 1.016 2.184 1.625zM21.943 12.902c0.508 0.356 1.016 0.762 1.473 1.27 0.965 1.016 1.676 2.235 2.133 3.556-1.168 0.102-2.387 0.203-3.606 0.254v-5.079zM21.943 19.962c1.422-0.051 2.794-0.102 4.064-0.254 0.051 0.406 0.102 0.863 0.102 1.321 0 0.965-0.152 1.93-0.406 2.844-1.219 0.152-2.438 0.203-3.759 0.254v-4.165zM23.416 27.835c-0.457 0.457-0.965 0.914-1.473 1.27v-3.048c0.965 0 1.93-0.051 2.895-0.152-0.406 0.711-0.863 1.371-1.422 1.93zM27.378 27.378c-0.66 0.66-1.371 1.168-2.184 1.625 0.863-0.965 1.524-2.083 2.032-3.352 0.559-0.102 1.117-0.203 1.676-0.305-0.406 0.762-0.914 1.422-1.524 2.032zM29.613 23.162c-0.559 0.152-1.117 0.254-1.727 0.356 0.152-0.813 0.254-1.625 0.254-2.489 0-0.559-0.051-1.067-0.102-1.575 0.61-0.102 1.219-0.203 1.778-0.356 0.152 0.66 0.203 1.27 0.203 1.981s-0.102 1.422-0.254 2.083c-0.051-0.051-0.102-0.051-0.152 0z"></path>
</svg>
