<!-- Generated by IcoMoon.io -->
<svg version="1.1" xmlns="http://www.w3.org/2000/svg" width="32" height="32" viewBox="0 0 32 32">
<title>DocuWare_Icons-FileType_XML-Clipped</title>
<path d="M25.956 4.064v-1.778c0-0.61-0.254-1.168-0.711-1.625s-1.016-0.66-1.676-0.66h-3.251c-0.66 0-1.168 0.203-1.625 0.66s-0.66 0.965-0.66 1.625v1.778h-18.032v27.936h32v-27.936h-6.044zM20.013 2.286c0-0.102 0.051-0.152 0.102-0.203s0.152-0.102 0.203-0.102h3.302c0.102 0 0.203 0.051 0.254 0.102s0.102 0.102 0.102 0.203v1.778h-3.962c0 0 0-1.778 0-1.778zM7.365 24.025l2.895 5.994h-2.337l-1.829-3.81-1.93 3.81h-2.133l2.997-5.994h-0.051l-2.895-6.044h2.337l1.829 3.81 1.93-3.81h2.133l-2.997 5.994 0.051 0.051zM20.013 30.019h-1.981v-8.025l-1.981 4.013-1.981-4.064v8.076h-1.981v-12.038h1.981l1.981 4.013 1.981-4.013h1.981v12.038zM30.019 30.019h-8.076v-11.987h2.337v9.956h5.74v2.032zM30.019 16v0.051h-28.038v-10.006h16v5.74c0 0.61 0.203 1.168 0.66 1.625s1.016 0.66 1.625 0.66h5.384c0.66 0 1.219-0.203 1.676-0.66s0.711-0.965 0.711-1.625v-3.759h-1.981l-0.051 3.708c0 0.051 0 0.152-0.051 0.203s-0.102 0.102-0.203 0.102h-5.435c-0.102 0-0.152-0.051-0.203-0.102s-0.102-0.102-0.102-0.203v-5.74h10.006v10.006z"></path>
</svg>
