<!-- Generated by IcoMoon.io -->
<svg version="1.1" xmlns="http://www.w3.org/2000/svg" width="32" height="32" viewBox="0 0 32 32">
<title>DocuWare_Icons-WorkflowManager_AfterTime</title>
<path d="M14.019 5.994c6.603 0 11.987 5.384 11.987 11.987s-5.384 12.038-11.987 12.038-11.987-5.384-11.987-12.038 5.384-11.987 11.987-11.987zM14.019 4.013c-7.721 0-14.019 6.248-14.019 13.968 0 7.771 6.298 14.019 14.019 14.019s14.019-6.248 14.019-14.019c-0.051-7.721-6.298-13.968-14.019-13.968v0z"></path>
<path d="M6.654 1.321l-5.029 3.251 1.117 1.676 5.029-3.251-1.117-1.676z"></path>
<path d="M5.537 3.251l-1.676 1.067 2.184 3.352 1.676-1.067-2.184-3.352z"></path>
<path d="M16 0.102v2.032c7.873 1.016 13.968 7.721 13.968 15.848h2.032c0-9.244-7.010-16.863-16-17.879z"></path>
<path d="M7.63 13.089l1.401-1.401 5.639 5.639-1.401 1.401-5.639-5.639z"></path>
<path d="M20.343 10.254l1.401 1.401-7.758 7.758-1.401-1.401 7.758-7.758z"></path>
</svg>
