<!-- Generated by IcoMoon.io -->
<svg version="1.1" xmlns="http://www.w3.org/2000/svg" width="32" height="32" viewBox="0 0 32 32">
<title>DocuWare_Icons-KineticSolutions</title>
<path d="M32 8.99c0 1.683-1.364 3.048-3.048 3.048s-3.048-1.364-3.048-3.048c0-1.683 1.364-3.048 3.048-3.048s3.048 1.364 3.048 3.048z"></path>
<path d="M3.403 9.702l-1.727-0.864c0.61-1.219 1.371-2.387 2.286-3.454l1.473 1.27c-0.813 0.965-1.473 1.981-2.032 3.048z"></path>
<path d="M6.756 5.384l-1.27-1.473c1.067-0.914 2.184-1.676 3.454-2.286l0.864 1.727c-1.117 0.559-2.133 1.27-3.048 2.032z"></path>
<path d="M25.143 5.333c-0.914-0.813-1.93-1.473-3.048-2.032l0.863-1.778c1.219 0.61 2.387 1.371 3.454 2.286l-1.27 1.524z"></path>
<path d="M11.429 2.692l-0.66-1.829c1.321-0.457 2.692-0.711 4.063-0.813l0.152 1.93c-1.168 0.051-2.387 0.305-3.556 0.711z"></path>
<path d="M20.419 2.641c-1.168-0.406-2.337-0.61-3.556-0.711l0.102-1.93c1.371 0.102 2.743 0.356 4.064 0.813l-0.61 1.829z"></path>
<path d="M2.083 14.019c0.102-0.864 0.356-1.778 0.61-2.59l-1.829-0.66c-0.356 1.067-0.61 2.133-0.762 3.251h1.981z"></path>
<path d="M16 27.987c-6.603 0-11.987-5.384-11.987-11.987h-4.013c0 8.838 7.162 16 16 16s16-7.162 16-16h-4.013c0 6.603-5.384 11.987-11.987 11.987z"></path>
<path d="M16 7.975c-4.419 0-8.025 3.606-8.025 8.025h16c0.051-4.419-3.556-8.025-7.975-8.025z"></path>
</svg>
