<!-- Generated by IcoMoon.io -->
<svg version="1.1" xmlns="http://www.w3.org/2000/svg" width="32" height="32" viewBox="0 0 32 32">
<title>DocuWare_Icons-WorkflowManager_WebServices</title>
<path d="M30.222 7.975h-28.546v2.083h28.546v-2.083z"></path>
<path d="M1.981 0h-1.981v26.006h1.981v-26.006z"></path>
<path d="M32 0h-2.032v26.006h2.032v-26.006z"></path>
<path d="M32 0h-32v2.032h32v-2.032z"></path>
<path d="M32 24.025h-11.987v1.981h11.987v-1.981z"></path>
<path d="M11.987 24.025h-11.987v1.981h11.987v-1.981z"></path>
<path d="M32 30.019h-32v1.981h32v-1.981z"></path>
<path d="M14.019 4.013h-10.006v1.981h10.006v-1.981z"></path>
<path d="M17.016 16.406h-2.032v14.578h2.032v-14.578z"></path>
<path d="M16 14.019l-5.435 5.384 1.422 1.422 4.013-4.013 4.013 4.013 1.371-1.422-5.384-5.384z"></path>
</svg>
