<!-- Generated by IcoMoon.io -->
<svg version="1.1" xmlns="http://www.w3.org/2000/svg" width="32" height="32" viewBox="0 0 32 32">
<title>DocuWare_Icons-Stamps-1</title>
<path d="M30.984 21.994h-10.006c-1.676 0-2.997-1.321-2.997-2.997v-7.314c2.337-0.813 4.013-3.048 4.013-5.638 0-3.352-2.692-6.044-5.994-6.044s-5.994 2.692-5.994 5.994c0 2.59 1.676 4.825 4.013 5.638v7.365c0 1.676-1.321 2.997-2.997 2.997h-10.006c-0.559 0-1.016 0.457-1.016 1.016v4.013c0 0.559 0.457 1.016 1.016 1.016h29.968c0.559 0 1.016-0.457 1.016-1.016v-4.013c0-0.559-0.457-1.016-1.016-1.016z"></path>
<path d="M1.981 29.003v1.981c0 0.559 0.457 1.016 1.016 1.016h26.006c0.559 0 1.016-0.457 1.016-1.016v-1.981h-28.038z"></path>
</svg>
