<!-- Generated by IcoMoon.io -->
<svg version="1.1" xmlns="http://www.w3.org/2000/svg" width="32" height="32" viewBox="0 0 32 32">
<title>DocuWare_Icons-WorkflowManager_Condition</title>
<path d="M14.984 11.937h1.981v9.092h-1.981v-9.092z"></path>
<path d="M20.976 27.004l-0.001-1.981 8.584-0.005 0.001 1.981-8.584 0.005z"></path>
<path d="M29.968 2.032v10.006h-27.987v-10.006h27.987zM32 0h-32v14.019h32v-14.019z"></path>
<path d="M27.378 30.578l-1.422-1.422 3.2-3.149-3.2-3.2 1.422-1.422 4.622 4.622z"></path>
<path d="M11.019 25.013l0.001 1.981-8.584 0.005-0.001-1.981 8.584-0.005z"></path>
<path d="M4.571 30.527l-4.571-4.521 4.571-4.571 1.422 1.422-3.149 3.149 3.149 3.098z"></path>
<path d="M16 21.994c2.184 0 4.013 1.778 4.013 4.013s-1.778 4.013-4.013 4.013c-2.184 0-4.013-1.778-4.013-4.013s1.778-4.013 4.013-4.013zM16 20.013c-3.302 0-5.994 2.692-5.994 5.994s2.692 5.994 5.994 5.994c3.302 0 5.994-2.692 5.994-5.994s-2.692-5.994-5.994-5.994v0z"></path>
</svg>
