<!-- Generated by IcoMoon.io -->
<svg version="1.1" xmlns="http://www.w3.org/2000/svg" width="32" height="32" viewBox="0 0 32 32">
<title>DocuWare_Icons-WorkflowManager_AssignTo</title>
<path d="M20.013 1.981c3.251 0 5.892 2.641 5.892 5.892s-2.641 5.892-5.892 5.892c-3.251 0-5.892-2.641-5.892-5.892-0.051-3.251 2.59-5.892 5.892-5.892zM20.013 0c-4.368 0-7.924 3.556-7.924 7.873 0 4.368 3.505 7.873 7.873 7.873s7.873-3.505 7.873-7.873c0.051-4.317-3.505-7.873-7.822-7.873v0z"></path>
<path d="M23.924 17.778c3.352 0 6.044 2.692 6.044 6.044v6.146h-19.962v-6.146c0-3.352 2.692-6.044 6.044-6.044h7.873zM23.924 15.746h-7.873c-4.47 0-8.076 3.606-8.076 8.076v8.178h24.025v-8.178c0-4.419-3.606-8.076-8.076-8.076v0z"></path>
<path d="M0 12.8h7.975v1.981h-7.975v-1.981z"></path>
<path d="M5.435 18.794l-1.422-1.422 3.556-3.606-3.556-3.556 1.422-1.422 4.978 4.978z"></path>
</svg>
