<!-- Generated by IcoMoon.io -->
<svg version="1.1" xmlns="http://www.w3.org/2000/svg" width="32" height="32" viewBox="0 0 32 32">
<title>DocuWare_Icons-CloudStatus-Resolved</title>
<path d="M29.206 16.965c0.762-1.371 1.067-3.048 0.508-4.825-0.559-1.727-1.93-3.098-3.657-3.759-1.778-0.66-3.403-0.406-4.775 0.305-1.27-2.743-4.013-4.673-7.264-4.673-4.419 0-8.025 3.606-8.025 8.025 0 0.102 0 0.203 0.051 0.254-4.064 1.016-6.908 5.181-5.79 9.752 0.864 3.556 4.216 5.841 7.873 5.943v0h17.524c3.2 0 6.044-2.337 6.298-5.537 0.203-2.286-0.965-4.368-2.743-5.486zM18.743 20.673l-1.829 3.454-8.635-4.571 1.829-3.454 5.181 2.743 4.622-8.635 3.454 1.829-4.622 8.635z"></path>
</svg>
