<!-- Generated by IcoMoon.io -->
<svg version="1.1" xmlns="http://www.w3.org/2000/svg" width="32" height="32" viewBox="0 0 32 32">
<title>DocuWare_Icons-Globe</title>
<path d="M16 0.051c-8.736 0-16 7.263-16 15.949s7.263 16 16 16c1.168 0 2.032 0 3.2-0.305-0.305-0.305-0.559-1.727 0-2.59s1.727-3.2 0.559-4.064c-1.168-0.863-1.168-1.168-2.032-2.032s-0.559-1.168-0.559-1.168c-0.305-0.863 0.863-2.032 0.863-2.337s0-0.559 0-0.863c0 0-0.559-0.559-0.863-0.559s-0.305 0.559-0.305 0.559c-0.559-0.305-1.168-0.559-1.473-0.863-0.305 0-0.305-0.559-0.559-0.863s-0.305 0-0.864 0-1.778-0.61-2.946-1.168-1.168-1.168-1.168-1.473-0.559-1.168-0.864-1.727c-0.305-0.559-0.305-0.864-0.559-0.864s0.559 1.727 0.559 1.727-0.305-0.305-0.559-0.864c-0.305-0.559 0.305 0-0.864-2.032s0.305-2.895 0.305-4.064 0.864 0.305 0.305-0.305c-0.559-0.559 0-2.032-0.305-2.59s-1.778 0.863-1.778 0.863c0-0.559 1.473-1.473 2.59-2.337s1.727-0.305 2.59 0c0.864 0.305 0.864 0.305 0.559 0s0-0.305 0.864-0.305 0.864 1.168 2.032 0.863 0 0.305 0.305 0.559-0.203 0.305-0.813 0.61 0 0.559 1.168 1.473 0.863-0.559 0.559-1.168 0.863 0 0.863 0c0.863 0.559 0.559 0 1.168 0.305 0.863 0 1.473 0.559 2.337 1.168-2.032 0.864-0.863 1.168-0.559 1.473s-0.559 0.559-0.559 0.559c-0.305-0.305-0.559 0-0.559 0.305s0 0.559 0 0.559c-1.473 0-1.168 1.473-1.168 1.727s-0.863 0.864-0.863 1.168 0.559 1.473 0.305 1.473-0.863-1.473-2.895-0.864c-0.864 0.305-2.59 0.864-1.727 2.59s2.032-0.305 2.59-0.305 0 1.168 0 1.168c0.864 0 1.473 0.559 1.168 1.473v0c0 1.473 1.727 1.168 2.032 1.168s1.473-0.863 1.727-1.168 0.863-0.305 2.337 0.559c0.863 0.305 1.727 0.863 2.895 1.168 0.559 0.305 0.305 1.168 0.559 1.473s2.337 0 2.895 0.559-2.032 4.673-2.895 5.232-0.863 1.168-1.727 1.727c-0.863 0.863-2.032 1.473-2.895 2.032s-1.168 1.473-1.473 1.727c8.736-2.032 13.968-10.463 12.19-19.149-1.778-6.959-8.178-12.19-15.695-12.19zM19.759 15.136c-0.559 0.305-1.473 0-1.727-0.305-0.559-0.305-1.473-0.559-2.032-0.559 0 0 0-0.305 0.305-0.305 0.863 0 2.337 0.864 2.59 0.864s0.305-0.305 0.863 0c0.559 0.305 0.305 0.051 0 0.305zM14.527 1.473c0 0 0-0.305 0.305-0.305v-0.254c0.305-0.305 1.473-0.559 1.168 0s-1.473 0.864-1.473 0.559v0zM17.117 3.505c-0.305 0-1.168 0-1.168-0.305 0.559-0.559-0.305-0.864-0.864-0.864s-0.559-0.305-0.305-0.305c0.559 0 1.168 0 1.473 0.305 0.305 0 1.473 0.559 1.473 0.864s0 0.61-0.61 0.305v0zM20.622 3.505c-0.305 0.305-1.727-0.864-2.032-1.168-0.863-0.559-1.473-0.864-2.337-0.864-0.305-0.305-0.305-0.559 0.305-0.864 0.559-0.305 1.727 0 2.337 0.305 0.559 0.305 1.422 0.559 1.422 1.168s0.61 1.168 0.305 1.422v0z"></path>
</svg>
