<!-- Generated by IcoMoon.io -->
<svg version="1.1" xmlns="http://www.w3.org/2000/svg" width="32" height="32" viewBox="0 0 32 32">
<title>DocuWare_Icons-WorkflowManager_AfterAction</title>
<path d="M23.975 1.981v16h-16v-16h16zM26.006 0h-20.013v20.013h20.013v-20.013z"></path>
<path d="M17.016 32h-1.981v-1.981h1.981v1.981zM17.016 27.987h-1.981v-1.981h1.981v1.981zM17.016 24.025h-1.981v-1.981h1.981v1.981zM17.016 20.013h-1.981v-1.981h1.981v1.981z"></path>
<path d="M14.476 15.238l-4.47-3.556 1.219-1.575 2.997 2.387 6.298-7.060 1.473 1.321z"></path>
<path d="M1.981 26.006h10.006v1.981h-10.006v-1.981z"></path>
<path d="M0.020 31.998v-10.006h1.981v10.006h-1.981z"></path>
<path d="M30.012 31.97v-10.006h1.981v10.006h-1.981z"></path>
<path d="M20.013 26.006h10.006v1.981h-10.006v-1.981z"></path>
</svg>
