<!-- Generated by IcoMoon.io -->
<svg version="1.1" xmlns="http://www.w3.org/2000/svg" width="32" height="32" viewBox="0 0 32 32">
<title>DocuWare_Icons-BrokenRelations-1</title>
<path d="M12.495 17.473l1.778-3.403-1.778-0.914-1.778 3.454c-0.864-0.305-1.778-0.508-2.743-0.508-4.419-0.051-7.975 3.556-7.975 7.924 0 2.692 1.371 5.079 3.403 6.502v0l0.102 0.051c0.457 0.305 1.016 0.61 1.524 0.813l0.152 0.051c0.864 0.305 1.829 0.508 2.794 0.508 4.419 0 7.975-3.556 7.975-7.975 0-2.641-1.371-5.029-3.454-6.502z"></path>
<path d="M19.098 3.759l-1.168-0.965c-0.914 1.067-1.524 2.336-1.778 3.657v0.051l1.473 0.254c0.254-1.117 0.762-2.133 1.473-2.997z"></path>
<path d="M32 7.263c-0.102-1.371-0.61-2.743-1.422-3.86l-1.219 0.864c0.66 0.914 1.067 2.032 1.117 3.149l1.524-0.152z"></path>
<path d="M29.206 1.879c-1.067-0.864-2.286-1.473-3.606-1.727 0 0 0 0 0 0h-0.102l-0.203 1.473c1.117 0.203 2.133 0.711 2.997 1.422l0.914-1.168z"></path>
<path d="M30.425 9.143c-0.203 1.117-0.711 2.184-1.473 2.997l1.117 0.965c0.914-1.067 1.524-2.336 1.778-3.759l-1.422-0.203z"></path>
<path d="M19.505 1.371l0.863 1.219c0.914-0.66 2.032-1.016 3.149-1.117l-0.152-1.473c-1.371 0.102-2.692 0.61-3.86 1.371z"></path>
<path d="M24.533 14.425l0.102 1.473c1.371-0.102 2.743-0.559 3.911-1.371l-0.863-1.219c-0.914 0.66-2.032 1.016-3.149 1.117z"></path>
<path d="M18.844 14.019c0.254 0.203 0.508 0.406 0.762 0.559l-1.829 3.505 1.778 0.914 1.829-3.505c0.356 0.152 0.762 0.254 1.168 0.305v0l0.254-1.473c-1.117-0.203-2.133-0.711-2.997-1.422l-0.965 1.117z"></path>
<path d="M17.575 8.483l-1.473 0.102c0.102 1.371 0.61 2.743 1.371 3.911l1.219-0.864c-0.61-0.965-1.016-2.032-1.117-3.149z"></path>
</svg>
