<!-- Generated by IcoMoon.io -->
<svg version="1.1" xmlns="http://www.w3.org/2000/svg" width="32" height="32" viewBox="0 0 32 32">
<title>document-processing</title>
<path d="M4.9 21.725h4.1v4.1h-4.1v-4.1z"></path>
<path d="M4.9 27.9h4.1v4.1h-4.1v-4.1z"></path>
<path d="M11.088 21.725h4.1v4.1h-4.1v-4.1z"></path>
<path d="M11.088 27.9h4.1v4.1h-4.1v-4.1z"></path>
<path d="M17.15 21.725h4.1v4.1h-4.1v-4.1z"></path>
<path d="M17.15 27.9h4.1v4.1h-4.1v-4.1z"></path>
<path d="M12.1 0.35l-6.625 6.612h6.625z"></path>
<path d="M27.438 15.537v-15.537h-14.262v8.050h-8.3v7.75h0.025v3.837h4.1v-3.838h2.088v3.838h4.088v-3.838h1.975v3.838h4.1v-3.838h2.087v3.838h4.1v-4.1z"></path>
<path d="M23.337 21.725h4.1v4.1h-4.1v-4.1z"></path>
<path d="M23.337 27.9h4.1v4.1h-4.1v-4.1z"></path>
</svg>
