<!-- Generated by IcoMoon.io -->
<svg version="1.1" xmlns="http://www.w3.org/2000/svg" width="32" height="32" viewBox="0 0 32 32">
<title>DocuWare_Icons-ViewerNotifications</title>
<path d="M24.838 16.66c-0.813-2.235-1.067-3.708-1.27-5.638-0.152-1.93-0.457-3.403-0.914-4.825-0.66-2.184-4.368-3.149-4.368-3.149l0.051-0.66c0-0.66-0.254-1.219-0.711-1.676s-1.016-0.711-1.676-0.711-1.219 0.254-1.676 0.711c-0.457 0.457-0.711 1.016-0.711 1.676l-0.051 0.66c0 0-3.505 0.965-4.165 3.149-0.457 1.422-0.762 2.946-0.914 4.825-0.152 1.93-0.356 3.556-1.27 5.638-0.914 2.133-2.387 3.149-5.181 5.384v4.013h27.987v-4.013c-2.743-2.235-4.317-3.2-5.13-5.384zM27.987 24.025h-23.975v-1.067l0.203-0.152c2.286-1.829 3.81-3.048 4.775-5.384 1.016-2.337 1.219-4.165 1.422-6.248 0.152-1.575 0.406-2.946 0.864-4.419 0.203-0.66 1.625-1.473 2.794-1.829l1.321-0.356h0.914l1.473 0.356c1.219 0.356 2.743 1.168 2.946 1.778 0.457 1.473 0.711 2.844 0.863 4.419 0.152 2.032 0.457 3.708 1.371 6.197 0.863 2.337 2.387 3.556 4.521 5.232 0.152 0.152 0.356 0.254 0.559 0.406v1.067z"></path>
<path d="M13.156 30.984c0.762 0.711 1.727 1.016 2.844 1.016s2.032-0.356 2.844-1.016c0.762-0.711 1.168-1.676 1.168-2.895h-8.025c0 1.219 0.406 2.184 1.168 2.895z"></path>
</svg>
