<!-- Generated by IcoMoon.io -->
<svg version="1.1" xmlns="http://www.w3.org/2000/svg" width="32" height="32" viewBox="0 0 32 32">
<title>DocuWare_Icons-OrganizationSettings</title>
<path d="M9.6 7.010h20.419v-4.013h-20.419c-0.762-1.778-2.54-2.997-4.571-2.997-2.794 0-5.029 2.235-5.029 4.978s2.235 4.978 4.978 4.978c2.083 0.051 3.81-1.168 4.622-2.946zM4.013 4.978c0-0.559 0.457-1.016 1.016-1.016s1.016 0.457 1.016 1.016-0.457 1.016-1.016 1.016c-0.559 0-1.016-0.457-1.016-1.016z"></path>
<path d="M27.022 11.022c-2.032 0-3.81 1.219-4.571 2.997h-20.47v4.013h20.419c0.762 1.778 2.54 2.997 4.571 2.997 2.743 0 4.978-2.235 4.978-4.978s-2.184-5.029-4.927-5.029zM27.022 17.016c-0.559 0-1.016-0.457-1.016-1.016s0.457-1.016 1.016-1.016c0.559 0 1.016 0.457 1.016 1.016-0.051 0.559-0.508 1.016-1.016 1.016z"></path>
<path d="M13.003 21.994c-2.032 0-3.81 1.219-4.571 2.997h-6.451v4.013h6.4c0.762 1.778 2.54 2.997 4.571 2.997s3.81-1.219 4.571-2.997h12.444v-4.013h-12.394c-0.762-1.778-2.54-2.997-4.571-2.997zM13.003 27.987c-0.559 0-1.016-0.457-1.016-1.016s0.457-1.016 1.016-1.016 1.016 0.457 1.016 1.016-0.457 1.016-1.016 1.016z"></path>
</svg>
