<!-- Generated by IcoMoon.io -->
<svg version="1.1" xmlns="http://www.w3.org/2000/svg" width="32" height="32" viewBox="0 0 32 32">
<title>DocuWare_Icons-FileType_XML</title>
<path d="M30.019 8.025v0.051h-28.038v-0.051h-1.981v16h32v-16h-1.981zM7.365 16l2.895 5.994h-2.337l-1.829-3.81-1.93 3.81h-2.133l2.997-5.994h-0.051l-2.895-5.994h2.337l1.829 3.81 1.93-3.81h2.133l-2.997 5.994h0.051zM20.013 21.994h-1.981v-7.975l-1.981 4.013-1.981-4.064v8.076h-1.981v-12.038h1.981l1.981 4.013 1.981-4.013h1.981v11.987zM30.019 22.044h-8.076v-12.038h2.337v9.956h5.74v2.083z"></path>
</svg>
