<!-- Generated by IcoMoon.io -->
<svg version="1.1" xmlns="http://www.w3.org/2000/svg" width="32" height="32" viewBox="0 0 32 32">
<title>DocuWare_Icons-WorkflowManager_AssignData</title>
<path d="M17.016 30.019c-8.279 0-14.984-1.778-14.984-4.013v1.981c0 2.184 6.705 4.013 14.984 4.013s14.984-1.778 14.984-4.013v-1.981c0 2.184-6.705 4.013-14.984 4.013z"></path>
<path d="M17.016 21.994c-8.279 0-14.984-1.778-14.984-4.013v1.981c0 2.184 6.705 4.013 14.984 4.013s14.984-1.778 14.984-3.962v-1.981c0 2.184-6.705 3.962-14.984 3.962z"></path>
<path d="M17.016 2.032c6.654 0 11.022 1.168 12.546 1.981-1.524 0.864-5.892 1.981-12.546 1.981s-11.022-1.117-12.597-1.981c1.575-0.864 5.892-1.981 12.597-1.981zM17.016 0c-8.279 0-15.035 1.778-15.035 4.013 0 2.184 6.705 4.013 14.984 4.013s15.035-1.829 15.035-4.013c0-2.235-6.705-4.013-14.984-4.013v0z"></path>
<path d="M4.013 17.981h-2.032v10.006h2.032v-10.006z"></path>
<path d="M4.013 4.013h-2.032v7.975h2.032v-7.975z"></path>
<path d="M32 3.962h-2.032v24.025h2.032v-24.025z"></path>
<path d="M0 14.019h11.581v1.981h-11.581v-1.981z"></path>
<path d="M8.99 20.013l-1.422-1.422 3.606-3.606-3.606-3.556 1.422-1.422 5.029 4.978z"></path>
<path d="M2.083 10.463c-0.051-0.152-0.102-0.305-0.102-0.457v0.457h0.102z"></path>
<path d="M17.016 14.019c-0.356 0-0.66 0-1.016 0v1.981c0.356 0 0.66 0 1.016 0 8.279 0 14.984-1.778 14.984-4.013v-1.981c0 2.184-6.705 4.013-14.984 4.013z"></path>
</svg>
