<!-- Generated by IcoMoon.io -->
<svg version="1.1" xmlns="http://www.w3.org/2000/svg" width="151" height="32" viewBox="0 0 151 32">
<title>DocuWare_logo</title>
<path d="M0 15.819v15.819l5.652-0.065c6.142-0.065 7.174-0.168 9.497-0.929 2.181-0.71 4.49-2.039 6.374-3.665 0.529-0.452 0.955-0.787 0.981-0.774 0.013 0.026 0.271 0.439 0.581 0.916 0.684 1.071 2.4 2.723 3.497 3.368 0.465 0.271 1.394 0.671 2.065 0.903 1.187 0.387 1.303 0.413 3.355 0.413 1.884 0 2.245-0.039 3.097-0.297 1.794-0.568 3.626-1.69 4.684-2.852l0.452-0.503 0.787 0.761c2.026 1.974 4.723 3.071 7.523 3.084 2.477 0 5.135-0.955 6.581-2.387l0.619-0.606 0.89 0.826c1.548 1.432 3.11 2.026 5.561 2.129 1.355 0.052 1.794 0.026 2.761-0.206 3.097-0.735 5.329-2.942 5.948-5.884 0.155-0.735 0.194-2.206 0.194-7.716v-6.8l-2.284 0.026-2.297 0.039-0.065 6.774c-0.052 4.413-0.116 6.916-0.219 7.174-0.258 0.735-0.542 1.161-1.045 1.626-0.671 0.606-1.29 0.8-2.542 0.8-1.652 0-2.684-0.594-3.394-1.923l-0.348-0.645-0.129-13.806-2.284-0.039-2.284-0.026-0.039 6.477-0.039 6.49-0.348 0.594c-0.477 0.826-1.639 1.845-2.606 2.297-3.458 1.665-7.381-0.245-8.271-4.013-0.232-0.968-0.245-2.413-0.052-3.355 0.374-1.781 1.716-3.548 3.277-4.297 0.684-0.335 0.955-0.387 2.219-0.426 1.394-0.052 1.742 0 2.787 0.426 0.206 0.090 0.219-0.039 0.194-2.077l-0.039-2.168-0.581-0.181c-0.942-0.297-3.832-0.258-5.045 0.077-1.742 0.465-3.626 1.587-4.735 2.787-0.297 0.323-0.581 0.594-0.606 0.594-0.039 0-0.271-0.232-0.529-0.516-1.084-1.187-3.174-2.439-4.89-2.916-0.465-0.129-1.484-0.232-2.516-0.271-2.077-0.077-3.381 0.181-5.11 0.981l-1.071 0.503-0.206-0.723c-1.419-5.006-5.097-8.71-10.361-10.477-2.761-0.916-5.071-1.161-11.148-1.161h-4.49v15.819zM11.458 4.839c4.606 0.723 7.523 2.632 9.252 6.065 0.852 1.703 1.123 2.865 1.123 4.903 0 2.439-0.516 4.194-1.806 6.090-2.348 3.458-6.026 4.981-12.503 5.161l-2.619 0.077v-22.658l2.619 0.077c1.432 0.039 3.2 0.168 3.935 0.284zM33.29 15.097c2.026 0.387 3.535 1.755 4.271 3.871 0.4 1.161 0.413 3.548 0.026 4.735-0.942 2.852-3.497 4.387-6.568 3.948-2.361-0.335-4.116-1.974-4.71-4.426-0.206-0.903-0.206-2.813 0.013-3.742 0.761-3.226 3.613-5.019 6.968-4.387z"></path>
<path d="M73.806 17.097v14.774l2.284-0.026 2.284-0.039 3.819-6.168c2.116-3.394 3.858-6.194 3.897-6.219 0.026-0.039 1.819 2.748 3.961 6.194l3.91 6.258h5.948l-0.348-0.426c-2.129-2.594-3.265-4.929-3.69-7.6-0.103-0.645-0.142-1.729-0.090-3.097 0.077-2.516 0.413-4.013 1.303-5.871l0.581-1.187-0.8-0.439c-1.161-0.645-3.471-1.794-3.51-1.742-0.026 0.026-0.219 0.49-0.439 1.045-0.839 2.116-1.394 5.084-1.277 6.877 0.026 0.452 0.013 0.787-0.039 0.723-0.052-0.052-1.265-2.065-2.697-4.477-1.419-2.413-2.632-4.426-2.697-4.49s-1.806 2.697-4.026 6.413l-3.923 6.542-0.039-10.916-0.026-10.903h-4.387v14.774z"></path>
<path d="M106.813 10.852c-2.039 0.232-3.665 0.994-5.174 2.426-2.181 2.090-3.187 4.606-3.187 8.013 0 3.394 1.123 6.219 3.252 8.206 1.677 1.561 3.342 2.245 5.716 2.335 1.794 0.077 2.619-0.052 3.794-0.606 0.787-0.374 2.103-1.303 2.465-1.755 0.168-0.194 0.206-0.090 0.258 1.058l0.065 1.277 2.297 0.039 2.284 0.026v-20.387h-4.645v2.090l-0.839-0.774c-1.69-1.548-3.884-2.232-6.284-1.948zM110.89 15.458c2.181 1.019 3.303 3.019 3.303 5.871 0 2.71-1.032 4.723-2.942 5.742-2.555 1.368-5.742 0.49-7.174-1.974-1.535-2.606-1.161-6.516 0.8-8.516 1.2-1.213 2.31-1.639 4.052-1.561 0.916 0.039 1.265 0.116 1.961 0.439z"></path>
<path d="M140.555 10.839c-4.813 0.503-7.897 3.897-8.426 9.265-0.503 5.11 1.806 9.484 5.832 11.071 2.348 0.916 5.613 0.929 7.897 0.026 1.561-0.606 3.458-2.168 4.568-3.742l0.426-0.606-1.923-0.968-1.935-0.968-0.594 0.761c-1.097 1.419-2.219 2.026-3.961 2.155-2.71 0.206-4.787-1.29-5.471-3.923-0.103-0.4-0.194-0.903-0.194-1.097v-0.361h14.361l-0.077-1.845c-0.103-2.761-0.735-4.735-2.077-6.503-1.819-2.4-4.968-3.613-8.426-3.265zM142.852 14.968c0.942 0.181 1.677 0.555 2.323 1.2 0.503 0.503 1.277 1.871 1.277 2.245 0 0.129-1.032 0.168-4.723 0.168h-4.71l0.090-0.297c0.335-1.084 1.368-2.413 2.232-2.852 1.006-0.529 2.284-0.697 3.51-0.465z"></path>
<path d="M128.89 11.394c-0.8 0.232-1.626 0.735-2.49 1.523l-0.723 0.658v-2.065l-0.929-0.090c-0.516-0.039-1.497-0.065-2.168-0.039l-1.226 0.039v20.387l2.168 0.039 2.155 0.026v-5.458c0-6.903 0.168-8.297 1.148-9.51 0.723-0.903 2.258-1.329 3.561-0.994 0.374 0.090 0.413 0.065 0.632-0.387 0.4-0.839 1.123-1.832 1.91-2.632 0.723-0.735 0.748-0.8 0.529-0.955-0.761-0.581-3.342-0.89-4.568-0.542z"></path>
</svg>
