<!-- Generated by IcoMoon.io -->
<svg version="1.1" xmlns="http://www.w3.org/2000/svg" width="32" height="32" viewBox="0 0 32 32">
<title>EditIndexEntries</title>
<path d="M21.344 12.949c2.25 0 4.364 0.876 5.955 2.467s2.467 3.706 2.467 5.955c0 2.25-0.876 4.364-2.467 5.955s-3.706 2.467-5.955 2.467-4.364-0.876-5.955-2.467c-1.591-1.591-2.467-3.706-2.467-5.955s0.876-4.364 2.467-5.955c1.591-1.591 3.706-2.467 5.955-2.467M21.344 10.749c-5.866 0-10.622 4.756-10.622 10.622s4.756 10.622 10.622 10.622 10.622-4.756 10.622-10.622c0-5.866-4.756-10.622-10.622-10.622v0z"></path>
<path d="M20.108 16.236h2.57v2.57h-2.57v-2.57zM23.963 26.514h-5.139v-1.285h1.285v-3.854h-1.285v-1.285h3.854v5.139h1.285v1.285z"></path>
<path d="M8 0l-8 8v24h14.104c-0.843-0.574-1.615-1.246-2.297-2h-9.807v-20h8.014v-8h15.954v7.386c0.698 0.27 1.367 0.599 2 0.981v-10.367h-19.969zM3.098 8.058l4.916-4.916v4.916h-4.916z"></path>
</svg>
