<!-- Generated by IcoMoon.io -->
<svg version="1.1" xmlns="http://www.w3.org/2000/svg" width="32" height="32" viewBox="0 0 32 32">
<title>EmailClipped</title>
<path d="M25.010 10.162l-3.505 2.681v3.305l3.505-2.681z"></path>
<path d="M26.234 6.020v-1.721c0-1.249-1.048-2.264-2.337-2.264h-3.316c-1.289 0-2.337 1.016-2.337 2.264v1.721h-18.244v24h32.042v-24h-5.808zM20.581 4.023h3.316c0.183 0 0.337 0.126 0.337 0.276v1.721h-3.99v-1.721h-0c-0-0.149 0.154-0.276 0.337-0.276zM29.542 27.52h-27.042v-17.416l13.525 10.238 0.917-0.701v-3.305l-0.925 0.708-11.26-8.523h13.492v8.647c0 1.249 1.048 2.264 2.337 2.264h5.355c1.302 0 2.336-1.016 2.336-2.264v-6.577l-0.001 0v-1.079h-2.015v1.498l-0.005 0.001 0.015 6.114c0 0.13-0.084 0.318-0.291 0.318h-5.394c-0.183 0-0.337-0.126-0.337-0.276v-8.647l9.293-0.001v1.481l0-0v17.519zM26.27 11.007l-0.007 0.001v-0.001l0.007-0z"></path>
</svg>
