<!-- Generated by IcoMoon.io -->
<svg version="1.1" xmlns="http://www.w3.org/2000/svg" width="32" height="32" viewBox="0 0 32 32">
<title>email_accounts</title>
<path d="M0 4.125v2.075l13.738 7.213 3.288-1.725c0.575-3.15 3.2-5.463 6.45-5.463 1 0 1.925 0.225 2.762 0.612l1.225-0.638v-2.075h-27.462zM17.012 14.175l-3.275 1.725-13.738-7.225v13.15h13.475c0.813-1.725 2.625-3.313 5.225-4.2-0.863-0.925-1.462-2.113-1.688-3.45z"></path>
<path d="M23.475 17.988c2.762 0 4.837-2.238 4.837-5.012v0c0-2.762-2.075-5.013-4.837-5.013s-4.837 2.237-4.837 5.013v0c0 2.762 2.075 5.012 4.837 5.012z"></path>
<path d="M23.363 18.6c-5.438 0-8.637 2.863-8.637 5.212v4.025h17.275l0.013-4.025c-0.013-2.35-3.238-5.212-8.65-5.212z"></path>
</svg>
