<!-- Generated by IcoMoon.io -->
<svg version="1.1" xmlns="http://www.w3.org/2000/svg" width="32" height="32" viewBox="0 0 32 32">
<title>field-mask</title>
<path d="M24.813 21.25v-13.25h-3.012v4.075c-0.425-0.225-0.813-0.387-1.137-0.488s-0.738-0.162-1.238-0.162c-0.563 0-1.087 0.125-1.587 0.363s-0.925 0.575-1.275 0.988c-0.387 0.45-0.688 0.988-0.9 1.6s-0.325 1.338-0.325 2.175c0 1.512 0.325 2.712 0.963 3.625 0.637 0.9 1.512 1.35 2.613 1.35 0.325 0 0.613-0.025 0.837-0.087s0.475-0.137 0.712-0.25c0.188-0.087 0.413-0.225 0.663-0.413s0.475-0.35 0.663-0.512v1h3.025zM21.063 19.025c-0.275 0.1-0.538 0.15-0.8 0.15-0.65 0-1.113-0.212-1.413-0.625-0.288-0.425-0.438-1.1-0.438-2.050 0-0.9 0.188-1.6 0.55-2.1s0.913-0.75 1.625-0.75c0.175 0 0.375 0.025 0.625 0.075s0.438 0.113 0.587 0.188v4.687c-0.225 0.188-0.475 0.325-0.738 0.425z"></path>
<path d="M6.662 8l5.112 16.012h2.463l-5.075-16.012z"></path>
<path d="M2.825 2.538h5.838v-2.538h-8.662v32h8.662v-2.538h-5.838z"></path>
<path d="M23.337 0v2.538h5.837v26.925h-5.837v2.537h8.663v-32z"></path>
</svg>
