<?xml version="1.0" encoding="utf-8"?>
<!-- Generated by IcoMoon.io -->
<!DOCTYPE svg PUBLIC "-//W3C//DTD SVG 1.1//EN" "http://www.w3.org/Graphics/SVG/1.1/DTD/svg11.dtd">
<svg version="1.1" xmlns="http://www.w3.org/2000/svg" xmlns:xlink="http://www.w3.org/1999/xlink" width="32" height="32" viewBox="0 0 32 32">
<path fill="#000000" d="M2.969 0.031v32h12v-32h-12zM8.949 28.584c-0.99 0-1.792-0.802-1.792-1.791 0-0.991 0.802-1.794 1.792-1.794s1.792 0.803 1.792 1.794c0 0.989-0.803 1.791-1.792 1.791zM11.594 20.656h-5.313v-17.688h5.313v17.688z"></path>
<path fill="#000000" d="M7.023 4.658h3.996v1.453h-3.996v-1.453z"></path>
<path fill="#000000" d="M7.023 7.546h3.996v1.453h-3.996v-1.453z"></path>
<path fill="#000000" d="M16.969 0.031v32h12v-32h-12zM22.949 28.584c-0.99 0-1.792-0.802-1.792-1.791 0-0.991 0.802-1.794 1.792-1.794s1.792 0.803 1.792 1.794c0 0.989-0.803 1.791-1.792 1.791zM25.594 20.656h-5.313v-17.688h5.313v17.688z"></path>
<path fill="#000000" d="M21.023 4.658h3.996v1.453h-3.996v-1.453z"></path>
<path fill="#000000" d="M21.023 7.546h3.996v1.453h-3.996v-1.453z"></path>
</svg>
