<!-- Generated by IcoMoon.io -->
<svg version="1.1" xmlns="http://www.w3.org/2000/svg" width="32" height="32" viewBox="0 0 32 32">
<title>FileNavigation</title>
<path d="M26.006 7.994v-3.961h-6.044v-1.768c0-1.249-1.048-2.264-2.337-2.264h-3.316c-1.289 0-2.337 1.016-2.337 2.264v1.768h-7.972v23.974h4v3.993h22.006v-24.006h-4zM13.972 2.264c0-0.149 0.154-0.276 0.337-0.276h3.316c0.183 0 0.337 0.126 0.337 0.276v1.768h-3.99v-1.768zM6 26.007v-19.974h5.972v7.714c0 1.248 1.048 2.264 2.337 2.264h5.355c1.302 0 2.336-1.016 2.336-2.264v-6.167h-2l-0.006 6.124c0 0.13-0.084 0.318-0.291 0.318h-5.394c-0.183 0-0.337-0.126-0.337-0.275v-7.714h10.034v19.974h-18.006zM28.006 30h-18.006v-1.993h16.006v-18.013h2v20.006z"></path>
</svg>
