<!-- Generated by IcoMoon.io -->
<svg version="1.1" xmlns="http://www.w3.org/2000/svg" width="32" height="32" viewBox="0 0 32 32">
<title>fitText</title>
<path d="M0 0v32h32v-32h-32zM30 30h-28v-28h28v28z"></path>
<path d="M23.344 11.754l4.653 4.243-4.653 4.243z"></path>
<path d="M8.621 20.239l-4.653-4.243 4.653-4.243z"></path>
<path d="M9.971 12.938h12.059v2.016h-12.059v-2.016z"></path>
<path d="M9.971 8.875h12.059v2.016h-12.059v-2.016z"></path>
<path d="M9.971 4.938h12.059v2.016h-12.059v-2.016z"></path>
<path d="M9.971 16.938h12.059v2.016h-12.059v-2.016z"></path>
<path d="M9.971 20.938h12.059v2.016h-12.059v-2.016z"></path>
<path d="M9.971 24.938h12.059v2.016h-12.059v-2.016z"></path>
</svg>
