<!-- Generated by IcoMoon.io -->
<svg version="1.1" xmlns="http://www.w3.org/2000/svg" width="32" height="32" viewBox="0 0 32 32">
<title>folder_add</title>
<path d="M12.625 25.65v-2.931c0-2.337 1.9-4.238 4.238-4.238h1.625v-1.625c0-2.338 1.9-4.238 4.238-4.238h2.931c2.337 0 4.238 1.9 4.238 4.238v1.625h1.625c0.163 0 0.325 0.012 0.488 0.031v-14.512h-14.006l-4-4h-14v26h12.637c-0.006-0.113-0.012-0.231-0.012-0.35z"></path>
<path d="M31.512 22.238h-5.375v-5.375c0-0.269-0.219-0.488-0.488-0.488h-2.931c-0.269 0-0.488 0.219-0.488 0.488v5.375h-5.375c-0.269 0-0.488 0.219-0.488 0.488v2.931c0 0.269 0.219 0.488 0.488 0.488h5.375v5.375c0 0.269 0.219 0.488 0.488 0.488h2.931c0.269 0 0.488-0.219 0.488-0.488v-5.369h5.375c0.269 0 0.488-0.219 0.488-0.488v-2.931c0-0.275-0.219-0.494-0.488-0.494z"></path>
</svg>
