<!-- Generated by IcoMoon.io -->
<svg version="1.1" xmlns="http://www.w3.org/2000/svg" width="32" height="32" viewBox="0 0 32 32">
<title>Forward</title>
<path d="M25.978 23.887c-0-0.005-0.001-0.009-0.001-0.014-0.001-0.010-0.003-0.020-0.005-0.030-0.003-0.012-0.006-0.023-0.010-0.035-0.003-0.007-0.006-0.014-0.009-0.021-0.006-0.012-0.012-0.025-0.019-0.036-0.003-0.005-0.006-0.009-0.009-0.014-0.010-0.015-0.022-0.030-0.035-0.043l-7.773-7.773c-0.060-0.060-0.14-0.092-0.221-0.092-0.040 0-0.081 0.008-0.119 0.024-0.117 0.048-0.193 0.162-0.193 0.289v4.84c-0.433 0.019-0.849 0.029-1.24 0.029-2.909 0-4.754-0.511-5.807-1.607-0.883-0.919-1.266-2.291-1.28-4.587-0.001-0.136-0.090-0.257-0.22-0.297-0.030-0.009-0.061-0.014-0.092-0.014-0.101 0-0.197 0.049-0.257 0.134-1.574 2.271-2.055 4.71-1.392 6.86v0c0 0 0 0 0 0.001 0.027 0.088 0.057 0.176 0.088 0.263 0.005 0.013 0.009 0.026 0.014 0.039 0.027 0.074 0.055 0.147 0.085 0.22 0.008 0.020 0.016 0.040 0.024 0.059 0.028 0.067 0.058 0.134 0.088 0.201 0.010 0.021 0.019 0.043 0.029 0.064 0.040 0.085 0.081 0.169 0.125 0.253 0.039 0.074 0.080 0.148 0.122 0.221 0.013 0.023 0.027 0.045 0.040 0.068 0.030 0.052 0.062 0.103 0.094 0.154 0.015 0.024 0.030 0.048 0.045 0.071 0.038 0.059 0.077 0.118 0.118 0.176 0.009 0.013 0.017 0.025 0.026 0.038 0.046 0.066 0.095 0.131 0.143 0.196 0.019 0.026 0.039 0.051 0.059 0.076 0.033 0.042 0.066 0.084 0.1 0.126 0.022 0.027 0.044 0.054 0.066 0.080 0.038 0.046 0.078 0.090 0.117 0.135 0.017 0.020 0.034 0.039 0.051 0.059 0 0 0 0 0 0v0c0.642 0.709 1.447 1.314 2.386 1.786 1.606 0.808 3.536 1.217 5.737 1.217 0.24 0 0.485-0.005 0.731-0.015v4.7c0 0.126 0.076 0.241 0.193 0.289 0.039 0.016 0.079 0.024 0.119 0.024 0.081 0 0.161-0.032 0.221-0.092l7.773-7.773c0.039-0.039 0.064-0.086 0.078-0.135v0c0-0 0-0 0-0 0.011-0.037 0.014-0.075 0.011-0.113zM12.066 25.867c0.295 0.116 0.604 0.221 0.924 0.314-0.321-0.093-0.629-0.198-0.924-0.314zM16.851 26.691c-0.036-0-0.071-0.001-0.107-0.001 0.089 0.001 0.177 0.001 0.267 0-0.053 0.001-0.107 0.001-0.16 0.001z"></path>
<path d="M0 0v24h6.245c-0.094-0.155-0.185-0.312-0.269-0.472-0.337-0.643-0.587-1.324-0.749-2.028h-2.727v-17.416l13.525 10.238 13.517-10.342v17.52h-3.018l0.779 0.779c0.437 0.437 0.678 1.018 0.678 1.635 0 0.029-0.001 0.057-0.002 0.086h4.063v-24h-32.042zM16.017 11.023l-11.26-8.523h22.401l-11.14 8.523z"></path>
</svg>
