<!-- Generated by IcoMoon.io -->
<svg version="1.1" xmlns="http://www.w3.org/2000/svg" width="32" height="32" viewBox="0 0 32 32">
<title>icon_roles_list</title>
<path d="M26.656 17.194c0 1.675-0.356 3.288-1.019 4.681h6.363v-5.625h-5.381c0.025 0.313 0.038 0.625 0.038 0.944z"></path>
<path d="M16.969 0c0.262 0.269 0.506 0.556 0.738 0.875 0.9 1.231 1.5 2.744 1.75 4.375h12.544v-5.25h-15.031z"></path>
<path d="M19.538 8.181c1.044 0 2.056 0.275 2.994 0.819 0.85 0.494 1.606 1.181 2.244 2.056 0.531 0.725 0.962 1.556 1.275 2.444h5.95v-5.625h-12.438c-0.006 0.1-0.019 0.206-0.025 0.306z"></path>
<path d="M23.469 24.706c-1.137 0.869-2.481 1.381-3.938 1.381s-2.8-0.506-3.938-1.381c-4.956 1.019-8.531 3.894-8.531 7.294h24.938c0-3.4-3.575-6.275-8.531-7.294z"></path>
<path d="M14.406 17.194c0 3.875 2.294 7.012 5.125 7.012s5.125-3.137 5.125-7.012-2.294-7.012-5.125-7.012c-2.831 0-5.125 3.137-5.125 7.012z"></path>
<path d="M12.469 14.025c0.131 0 0.262-0.006 0.387-0.019 0.319-1.088 0.806-2.088 1.438-2.956 0.637-0.869 1.387-1.563 2.244-2.056 0.306-0.175 0.619-0.325 0.938-0.444 0.081-0.494 0.125-1.013 0.125-1.544 0-3.875-2.294-7.013-5.125-7.013s-5.125 3.138-5.125 7.013 2.287 7.019 5.119 7.019z"></path>
<path d="M12.406 17.188c0-0.431 0.025-0.863 0.069-1.281 0 0-0.006 0-0.006 0-1.456 0-2.8-0.512-3.938-1.381-4.956 1.019-8.531 3.912-8.531 7.287h13.4c-0.65-1.375-0.994-2.969-0.994-4.625z"></path>
</svg>
