<!-- Generated by IcoMoon.io -->
<svg version="1.1" xmlns="http://www.w3.org/2000/svg" width="32" height="32" viewBox="0 0 32 32">
<title>icon_roles</title>
<path d="M23.469 24.706c-1.137 0.869-2.481 1.381-3.938 1.381s-2.8-0.506-3.938-1.381c-4.956 1.019-8.531 3.894-8.531 7.294h24.938c0-3.4-3.575-6.275-8.531-7.294z"></path>
<path d="M14.406 17.194c0 3.875 2.294 7.012 5.125 7.012s5.125-3.137 5.125-7.012-2.294-7.012-5.125-7.012c-2.831 0-5.125 3.137-5.125 7.012z"></path>
<path d="M12.469 14.025c0.131 0 0.262-0.006 0.387-0.019 0.319-1.088 0.806-2.088 1.438-2.956 0.637-0.869 1.387-1.563 2.244-2.056 0.306-0.175 0.619-0.325 0.938-0.444 0.081-0.494 0.125-1.013 0.125-1.544 0-3.875-2.294-7.013-5.125-7.013s-5.125 3.138-5.125 7.013 2.287 7.019 5.119 7.019z"></path>
<path d="M12.406 17.188c0-0.431 0.025-0.863 0.069-1.281 0 0-0.006 0-0.006 0-1.456 0-2.8-0.512-3.938-1.381-4.956 1.019-8.531 3.912-8.531 7.287h13.4c-0.65-1.375-0.994-2.969-0.994-4.625z"></path>
</svg>
