<!-- Generated by IcoMoon.io -->
<svg version="1.1" xmlns="http://www.w3.org/2000/svg" width="32" height="32" viewBox="0 0 32 32">
<title>icon-DW</title>
<path d="M0 16v16h32v-32h-32v16zM6.96 8.52c1.888 0.096 3.052 0.36 4.336 0.976 1.488 0.716 2.68 1.86 3.38 3.248 0.836 1.66 0.992 3.776 0.404 5.576-0.752 2.312-3.128 4.344-5.764 4.936-1.060 0.236-2.088 0.304-4.664 0.304h-1.892v-15.080h1.712c0.94 0 2.060 0.020 2.488 0.040zM18.892 12.208c0.004 1.48 0 3.824-0.008 5.208-0.012 1.648-0.004 2.508 0.024 2.492 0.020-0.012 0.396-0.624 0.832-1.356 2.436-4.084 2.924-4.88 2.968-4.824 0.024 0.028 0.424 0.7 0.892 1.492s0.944 1.592 1.060 1.78c0.116 0.188 0.312 0.516 0.436 0.728 0.128 0.216 0.232 0.392 0.236 0.392s0.008-0.32 0.008-0.712c0.004-0.78 0.064-1.272 0.264-2.048 0.12-0.46 0.508-1.492 0.552-1.472 0.016 0.008 0.48 0.244 1.036 0.524l1.012 0.512-0.108 0.168c-0.82 1.32-1.092 3.624-0.636 5.332 0.284 1.052 0.796 1.992 1.572 2.884l0.216 0.252h-2.836l-0.22-0.348c-0.336-0.536-1.552-2.484-2.18-3.492-0.312-0.496-0.74-1.176-0.952-1.512l-0.392-0.608-0.296 0.468c-0.164 0.26-1 1.6-1.864 2.984l-1.564 2.508-1.084-0.008-1.080-0.012-0.012-7.012-0.008-7.008h2.12l0.012 2.688z"></path>
<path d="M5.096 10.652c-0.008 0.028-0.012 2.452-0.008 5.388l0.012 5.34 1.12-0.004c1.2-0.008 1.716-0.052 2.58-0.24 0.636-0.136 1.020-0.264 1.58-0.536 1.448-0.7 2.424-1.972 2.748-3.58 0.116-0.572 0.116-1.488-0.004-2.048-0.384-1.844-1.672-3.284-3.464-3.868-0.764-0.248-1.832-0.412-2.88-0.444-0.352-0.012-0.872-0.028-1.152-0.040-0.38-0.012-0.516-0.004-0.532 0.032z"></path>
</svg>
