<!-- Generated by IcoMoon.io -->
<svg version="1.1" xmlns="http://www.w3.org/2000/svg" width="32" height="32" viewBox="0 0 32 32">
<title>icon-processing</title>
<path d="M16 0c-8.838 0-16 7.162-16 16s7.162 16 16 16 16-7.163 16-16c0-8.838-7.163-16-16-16zM16 25.381c-2.581 0-4.863-1.094-6.55-2.781l-2.781 2.781v-6.95h6.95l-2.581 2.581c1.387 1.194 2.975 1.988 4.963 1.988 2.881 0 5.456-1.887 6.45-4.369l2.181 0.794c-1.288 3.475-4.662 5.956-8.631 5.956zM25.331 13.569h-6.95l2.581-2.581c-1.387-1.188-2.975-1.988-4.963-1.988-2.975 0-5.556 1.787-6.55 4.469l-2.181-0.794c1.287-3.475 4.662-5.956 8.637-5.956 2.581 0 4.862 1.094 6.55 2.781l2.881-2.881v6.95z"></path>
</svg>
