<!-- Generated by IcoMoon.io -->
<svg version="1.1" xmlns="http://www.w3.org/2000/svg" width="32" height="32" viewBox="0 0 32 32">
<title>icon-datetime</title>
<path d="M13.334 12.213c0.941-0.825 2-1.488 3.156-1.975 0.059-0.025 0.119-0.050 0.178-0.072v-0.166h-3.334v2.213z"></path>
<path d="M8.334 18.334h1.297c0.15-0.628 0.35-1.244 0.606-1.844 0.219-0.516 0.472-1.012 0.759-1.488h-2.662v3.331z"></path>
<path d="M8.334 10h3.334v3.334h-3.334v-3.334z"></path>
<path d="M3.334 15h3.334v3.334h-3.334v-3.334z"></path>
<path d="M3.334 20h3.334v3.334h-3.334v-3.334z"></path>
<path d="M10.238 25.637c-0.088-0.209-0.172-0.422-0.247-0.637h-8.325v-18.334h21.666v2.866c0.566 0.109 1.122 0.262 1.666 0.456v-9.988h-3.331v1.666h-3.331v-1.666h-11.669v1.666h-3.331v-1.666h-3.334v26.666h10.731c-0.181-0.334-0.347-0.675-0.494-1.028z"></path>
<path d="M8.334 23.334h1.197c-0.147-0.744-0.219-1.5-0.219-2.272 0-0.356 0.016-0.712 0.047-1.063h-1.028v3.334z"></path>
<path d="M24.197 26.131l-4.5-4.503v-6.034h2.734v4.903l3.7 3.7z"></path>
<path d="M21.063 10.125c-6.041 0-10.938 4.897-10.938 10.938s4.897 10.938 10.938 10.938 10.938-4.897 10.938-10.938-4.897-10.938-10.938-10.938zM21.063 29.266c-4.531 0-8.203-3.672-8.203-8.203s3.672-8.203 8.203-8.203 8.203 3.672 8.203 8.203-3.672 8.203-8.203 8.203z"></path>
</svg>
