<!-- Generated by IcoMoon.io -->
<svg version="1.1" xmlns="http://www.w3.org/2000/svg" width="32" height="32" viewBox="0 0 32 32">
<title>icon-multifield_select_list</title>
<path d="M31.775 0.656l-0.475-0.447c-0.144-0.138-0.325-0.209-0.522-0.209s-0.378 0.072-0.522 0.209l-3.425 3.218-3.422-3.215c-0.144-0.138-0.325-0.209-0.522-0.209s-0.378 0.072-0.522 0.209l-0.478 0.444c-0.144 0.137-0.222 0.306-0.222 0.491s0.078 0.356 0.222 0.491l4.421 4.156c0.144 0.138 0.325 0.209 0.522 0.209s0.378-0.072 0.522-0.209l4.418-4.153c0.134-0.125 0.209-0.278 0.219-0.447 0.003-0.016 0.003-0.028 0.003-0.044 0.003-0.187-0.072-0.356-0.219-0.494z"></path>
<path d="M31.775 13.658l-0.475-0.447c-0.144-0.137-0.325-0.209-0.522-0.209s-0.378 0.072-0.522 0.209l-3.425 3.218-3.422-3.215c-0.144-0.137-0.325-0.209-0.522-0.209s-0.378 0.072-0.522 0.209l-0.478 0.444c-0.144 0.137-0.222 0.306-0.222 0.491s0.078 0.356 0.222 0.491l4.421 4.156c0.144 0.137 0.325 0.209 0.522 0.209s0.378-0.072 0.522-0.209l4.418-4.153c0.134-0.125 0.209-0.278 0.219-0.447 0.003-0.016 0.003-0.028 0.003-0.044 0.003-0.187-0.072-0.356-0.219-0.494z"></path>
<path d="M0 0.003h15.998v5.999h-15.998v-5.999z"></path>
<path d="M0 13.002h15.998v5.999h-15.998v-5.999z"></path>
<path d="M0 26.001h31.997v5.999h-31.997v-5.999z"></path>
</svg>
