<!-- Generated by IcoMoon.io -->
<svg version="1.1" xmlns="http://www.w3.org/2000/svg" width="32" height="32" viewBox="0 0 32 32">
<title>icon-linked-documents</title>
<path d="M13.931 30.644l-0.644-0.644h-11.287v-20h8.012v-8h15.956v6.956c0.381-0.094 0.769-0.144 1.169-0.144 0.281 0 0.556 0.025 0.831 0.069v-8.881h-19.969l-8 8v24h16.581c-1-0.163-1.919-0.625-2.65-1.356zM8.012 3.144v4.919h-4.919l4.919-4.919z"></path>
<path d="M18.594 24.094c0.337 0.337 0.9 0.319 1.256-0.038l6.019-6.019c0.356-0.356 0.375-0.919 0.038-1.256s-0.9-0.319-1.256 0.038l-6.019 6.019c-0.356 0.356-0.375 0.919-0.038 1.256zM21.581 23.544c0.087 0.175 0.131 0.363 0.131 0.563 0 0.337-0.131 0.65-0.363 0.881l-3.113 3.113c-0.231 0.231-0.544 0.363-0.881 0.363s-0.65-0.131-0.881-0.363l-1.894-1.894c-0.231-0.231-0.363-0.544-0.363-0.881s0.131-0.65 0.363-0.881l3.113-3.113c0.231-0.231 0.544-0.363 0.881-0.363 0.2 0 0.394 0.044 0.563 0.131l1.244-1.244c-0.531-0.406-1.169-0.613-1.813-0.613-0.762 0-1.525 0.288-2.1 0.869l-3.113 3.113c-1.156 1.156-1.156 3.044 0 4.2l1.894 1.894c0.575 0.575 1.337 0.869 2.1 0.869s1.525-0.288 2.1-0.869l3.113-3.113c1.063-1.063 1.15-2.75 0.256-3.913l-1.238 1.25zM31.131 13.444l-1.894-1.894c-0.575-0.575-1.337-0.869-2.1-0.869s-1.525 0.287-2.1 0.869l-3.113 3.112c-1.063 1.063-1.15 2.75-0.256 3.913l1.244-1.244c-0.087-0.175-0.131-0.363-0.131-0.563 0-0.337 0.131-0.65 0.363-0.881l3.113-3.112c0.231-0.231 0.544-0.363 0.881-0.363s0.65 0.131 0.881 0.363l1.894 1.894c0.231 0.231 0.363 0.544 0.363 0.881s-0.131 0.65-0.363 0.881l-3.113 3.113c-0.231 0.231-0.544 0.363-0.881 0.363-0.2 0-0.394-0.044-0.563-0.131l-1.244 1.244c0.531 0.406 1.169 0.613 1.813 0.613 0.762 0 1.525-0.288 2.1-0.869l3.113-3.113c1.15-1.156 1.15-3.050-0.006-4.206z"></path>
</svg>
