<!-- Generated by IcoMoon.io -->
<svg version="1.1" xmlns="http://www.w3.org/2000/svg" width="32" height="32" viewBox="0 0 32 32">
<title>icon_substitute_list</title>
<path d="M26.656 17.194c0 1.675-0.356 3.288-1.019 4.681h6.363v-5.625h-5.381c0.025 0.313 0.038 0.625 0.038 0.944z"></path>
<path d="M16.969 0c0.262 0.269 0.506 0.556 0.738 0.875 0.9 1.231 1.5 2.744 1.75 4.375h12.544v-5.25h-15.031z"></path>
<path d="M19.538 8.181c1.044 0 2.056 0.275 2.994 0.819 0.85 0.494 1.606 1.181 2.244 2.056 0.531 0.725 0.962 1.556 1.275 2.444h5.95v-5.625h-12.438c-0.006 0.1-0.019 0.206-0.025 0.306z"></path>
<path d="M23.469 24.706c-1.137 0.869-2.481 1.381-3.938 1.381s-2.8-0.506-3.938-1.381c-4.956 1.019-8.531 3.894-8.531 7.294h24.938c0-3.4-3.575-6.275-8.531-7.294z"></path>
<path d="M19.531 24.206c2.831 0 5.125-3.137 5.125-7.012s-2.294-7.012-5.125-7.012c-1.313 0-2.506 0.675-3.413 1.775 0 0-0.006 0.006-0.006 0.006-0.081 0.1-0.162 0.206-0.238 0.313-0.006 0.006-0.006 0.006-0.012 0.012-0.037 0.050-0.075 0.106-0.113 0.162 0 0 0 0 0 0s0 0 0 0c-0.838 1.25-1.35 2.912-1.35 4.744 0.006 3.875 2.3 7.012 5.131 7.012z"></path>
<path d="M12.738 19.938h-10.025c0.987-1.363 2.931-2.525 5.425-3.169 1.306 0.788 2.775 1.206 4.3 1.212-0.019-0.262-0.025-0.519-0.025-0.788 0-0.406 0.019-0.813 0.063-1.213-1.456 0-2.794-0.488-3.938-1.356-4.963 1.012-8.537 3.875-8.537 7.313h13.456c-0.306-0.625-0.544-1.3-0.719-2z"></path>
<path d="M12.469 14.081c0.125 0 0.25-0.006 0.369-0.019 0.3-1.044 0.75-2.006 1.338-2.85-0.387 0.419-0.975 0.869-1.706 0.869-0.963 0-1.675-0.775-2.012-1.231-0.706-0.975-1.113-2.35-1.113-3.781s0.406-2.806 1.119-3.781c0.338-0.462 1.044-1.231 2.013-1.231 0.963 0 1.675 0.775 2.012 1.231 0.706 0.969 1.119 2.35 1.119 3.781 0 1.319-0.344 2.588-0.956 3.537 0.556-0.662 1.194-1.2 1.894-1.606 0.306-0.181 0.625-0.325 0.944-0.45 0.075-0.481 0.113-0.975 0.113-1.481 0-3.875-2.294-7.013-5.125-7.013s-5.125 3.138-5.125 7.013 2.287 7.013 5.119 7.013z"></path>
<path d="M14.175 11.213c0.119-0.131 0.219-0.256 0.3-0.369 0.056-0.075 0.113-0.156 0.162-0.238-0.119 0.144-0.238 0.294-0.35 0.444-0.037 0.056-0.075 0.113-0.113 0.162z"></path>
</svg>
