<!-- Generated by IcoMoon.io -->
<svg version="1.1" xmlns="http://www.w3.org/2000/svg" width="32" height="32" viewBox="0 0 32 32">
<title>icon_user_list</title>
<path d="M22.3 20.569c-0.063 0.087-0.131 0.175-0.194 0.256 1.194 0.275 2.319 0.625 3.363 1.044h6.531v-5.625h-7.762c-0.375 1.606-1.031 3.087-1.938 4.325z"></path>
<path d="M12.469 3.006c1.119-0.65 2.319-0.975 3.563-0.975s2.444 0.331 3.563 0.975c0.95 0.55 1.8 1.306 2.525 2.244h9.881v-5.25h-21.875v5.019c0.688-0.838 1.475-1.513 2.344-2.013z"></path>
<path d="M32 7.875h-8.375c0.644 1.569 0.988 3.331 0.988 5.15 0 0.156 0 0.313-0.006 0.475h7.394v-5.625z"></path>
<path d="M21.081 22.656c-1.462 1.119-3.181 1.775-5.050 1.775s-3.588-0.663-5.050-1.781c-6.356 1.306-10.95 5.038-10.95 9.35h32c0-4.313-4.594-8.038-10.95-9.344z"></path>
<path d="M16.031 22.025c3.631 0 6.575-4.031 6.575-9s-2.944-9-6.575-9c-3.631 0-6.575 4.031-6.575 9s2.944 9 6.575 9z"></path>
</svg>
