<!-- Generated by IcoMoon.io -->
<svg version="1.1" xmlns="http://www.w3.org/2000/svg" width="32" height="32" viewBox="0 0 32 32">
<title>icon-play5</title>
<path d="M15.063 0.044c-2.481 0.25-3.925 0.619-5.75 1.45-1.7 0.775-3.213 1.837-4.6 3.219-2.931 2.938-4.5 6.569-4.688 10.881-0.075 1.644 0.287 3.938 0.894 5.675 1.588 4.575 5.237 8.225 9.813 9.813 1.738 0.606 4.031 0.969 5.675 0.894 4.4-0.194 8.2-1.875 11.106-4.9 2.488-2.594 3.95-5.731 4.363-9.356 0.156-1.413 0.156-2.025 0-3.438-0.425-3.756-1.962-6.944-4.619-9.594-2.606-2.6-5.837-4.144-9.538-4.563-1.012-0.113-2.050-0.144-2.656-0.081zM12.881 9.619c1.525 0.869 2.9 1.662 3.056 1.756s1.069 0.619 2.025 1.162c5.006 2.844 5.944 3.388 5.944 3.463 0 0.044-0.788 0.525-1.75 1.075s-1.863 1.063-2 1.144c-0.137 0.075-1.050 0.6-2.031 1.156s-1.962 1.119-2.188 1.25c-0.225 0.131-1.644 0.944-3.15 1.806-1.994 1.137-2.763 1.55-2.8 1.494-0.056-0.094-0.069-15.675-0.012-15.831 0.025-0.056 0.063-0.094 0.081-0.081 0.025 0.012 1.294 0.731 2.825 1.606z"></path>
</svg>
