<!-- Generated by IcoMoon.io -->
<svg version="1.1" xmlns="http://www.w3.org/2000/svg" width="32" height="32" viewBox="0 0 32 32">
<title>ID</title>
<path d="M31.999 0v32h-31.999v-32h31.999zM7.933 26v-20h-3.934v20h3.934zM19.252 26c1.438-0.002 2.564-0.143 3.41-0.423 1.136-0.382 2.041-0.914 2.707-1.596 0.887-0.9 1.567-2.078 2.045-3.533 0.39-1.191 0.585-2.61 0.585-4.257 0-1.874-0.209-3.449-0.624-4.727-0.417-1.278-1.025-2.358-1.823-3.24s-1.757-1.496-2.877-1.842c-0.834-0.255-2.045-0.382-3.632-0.382h-7.042v20h7.251zM17.585 10c1.585 0.001 2.628 0.065 3.163 0.191 0.721 0.164 1.315 0.477 1.784 0.941 0.467 0.464 0.832 1.11 1.093 1.937s0.39 1.398 0.39 2.944c0 1.546-0.129 2.137-0.39 3.033s-0.596 1.539-1.009 1.93c-0.413 0.391-0.932 0.669-1.555 0.832-0.478 0.127-1.254 0.191-2.331 0.191h-2.877v-12h1.732z"></path>
</svg>
