<!-- Generated by IcoMoon.io -->
<svg version="1.1" xmlns="http://www.w3.org/2000/svg" width="32" height="32" viewBox="0 0 32 32">
<title>ImportDW</title>
<path d="M17.758 10.031c-1.391-0.876-2.82-1.214-5.272-1.214h-2.517v12.527h2.479c2.536 0 3.774-0.277 5.203-1.199 1.852-1.183 2.859-2.936 2.859-5.041 0-2.144-0.961-3.927-2.751-5.072v0zM16.742 18.662c-1.007 0.638-2.396 0.899-4.125 0.899l-0.698-0.019v-8.962l0.698 0.012c1.729 0 3.187 0.261 4.125 0.884 1.214 0.792 1.937 2.121 1.937 3.589 0 1.491-0.699 2.782-1.937 3.597v0z"></path>
<path d="M31.126 14.168l-1.709-0.871c-0.386 0.845-0.598 1.598-0.681 2.656-0.022 0.288 0.010 0.659 0.032 0.935l-0.181-0.313-2.053-3.456-3.146 5.24v-8.688h-1.757v11.671h1.804l3.096-4.966 3.111 4.966 2.358 0.002c-0.933-0.954-1.681-2.366-1.681-4.017 0-1.19 0.238-2.302 0.807-3.159v0z"></path>
<path d="M7.999 14.987l-5.009-5.009v3.13h-2.99v3.757h2.99v3.131z"></path>
</svg>
