<!-- Generated by IcoMoon.io -->
<svg version="1.1" xmlns="http://www.w3.org/2000/svg" width="32" height="32" viewBox="0 0 32 32">
<title>IndividualStamps</title>
<path d="M5.965 30h20.035v2h-20.035v-2z"></path>
<path d="M29.375 18h-10.933c-0.349-1.080-0.581-2.468-0.602-4.248 2.972-0.808 5.158-3.525 5.158-6.753 0-3.865-3.133-6.998-6.998-6.998s-6.998 3.133-6.998 6.998c0 3.201 2.149 5.901 5.084 6.733-0.020 1.79-0.252 3.184-0.602 4.268h-10.933c-0.345 0-0.625 0.305-0.625 0.682v9.542c0 0.376 0.28 0.682 0.625 0.682h26.824c0.345 0 0.625-0.305 0.625-0.682v-9.542c0-0.376-0.28-0.682-0.625-0.682z"></path>
</svg>
