<!-- Generated by IcoMoon.io -->
<svg version="1.1" xmlns="http://www.w3.org/2000/svg" width="32" height="32" viewBox="0 0 32 32">
<title>Invert</title>
<path d="M22 17.375l-4 3-2.246-2.807-11.745 8.804 23.991 0.003z"></path>
<path d="M25 14.375c1.657 0 3-1.343 3-3 0-1.006-0.496-1.897-1.257-2.441l-4.527 3.557c0.443 1.104 1.522 1.884 2.784 1.884z"></path>
<path d="M0 4.375v26h32v-26h-32zM30 28.375h-27.998l2.008-2.003-0.009 0.003 6-16 5.754 7.193 6.461-5.077c-0.138-0.345-0.215-0.722-0.215-1.116 0-1.657 1.343-3 3-3 0.65 0 1.252 0.207 1.743 0.559l3.215-2.559h0.041v22z"></path>
</svg>
