<!-- Generated by IcoMoon.io -->
<svg version="1.1" xmlns="http://www.w3.org/2000/svg" width="32" height="32" viewBox="0 0 32 32">
<title>jpgClipped</title>
<path d="M14.232 20.070h3.756v2.968h-3.756v-2.968z"></path>
<path d="M32 4.045h-6.023v-1.773c-0-1.253-1.049-2.272-2.337-2.272h-3.316c-1.289 0-2.337 1.019-2.337 2.272v1.773h-17.987v27.924h31.969v-15.9h0.031v-12.024zM2.056 30.019v-5.175h2.298v3.119h3.756v-9.949h2.157v12.006h-8.211zM20.144 24.994h-5.913v5.025h-2.298v-12.006h8.211v6.981zM30.021 20.070v0h-5.913v7.892h3.756v-2.968h-2.382v-1.956h4.539v6.981h-8.211v-12.006h8.211v2.057zM19.988 2.272c-0-0.15 0.154-0.276 0.337-0.276h3.316c0.183 0 0.337 0.127 0.337 0.276v1.773h-3.99v-1.773zM2 6.052h15.987v5.735c0 1.253 1.048 2.272 2.337 2.272h5.355c1.302 0 2.337-1.019 2.337-2.272v-3.759h-2l-0.006 3.716c0 0.13-0.084 0.319-0.291 0.319h-5.394c-0.183 0-0.337-0.127-0.337-0.277v-3.767h0v-1.968h10.012v9.979h-28v-9.979z"></path>
</svg>
