<!-- Generated by IcoMoon.io -->
<svg version="1.1" xmlns="http://www.w3.org/2000/svg" width="222" height="32" viewBox="0 0 222 32">
<title>logotype</title>
<path d="M23.641 3.351c-1.657-1.179-3.609-2.062-5.745-2.578s-4.308-0.773-6.481-0.773h-11.416v31.3h11.747c2.136 0 4.235-0.295 6.334-0.884 2.062-0.589 3.977-1.547 5.634-2.835s3.020-2.946 4.014-4.898c1.031-1.988 1.547-4.382 1.547-7.107 0-2.909-0.515-5.413-1.547-7.438-1.031-1.952-2.394-3.572-4.087-4.787zM20.879 15.613c0 1.62-0.258 3.020-0.81 4.124-0.516 1.105-1.252 1.988-2.136 2.614-0.884 0.663-1.952 1.142-3.093 1.436-1.178 0.295-2.43 0.442-3.719 0.442h-3.13v-17.16h3.314c1.215 0 2.43 0.147 3.609 0.405 1.142 0.258 2.173 0.736 3.056 1.399 0.884 0.626 1.583 1.51 2.136 2.578 0.516 1.105 0.773 2.467 0.773 4.161z"></path>
<path d="M54.131 9.611c-1.252-1.105-2.651-1.952-4.272-2.541s-3.351-0.884-5.192-0.884c-1.804 0-3.535 0.295-5.192 0.884s-3.056 1.436-4.272 2.541c-1.215 1.105-2.173 2.467-2.909 4.050-0.7 1.584-1.068 3.388-1.068 5.34 0 1.988 0.368 3.756 1.068 5.376s1.694 2.983 2.909 4.087c1.215 1.105 2.651 1.988 4.272 2.614 1.657 0.626 3.351 0.921 5.192 0.921s3.572-0.295 5.192-0.921c1.62-0.626 3.056-1.473 4.272-2.614 1.215-1.105 2.209-2.467 2.909-4.087s1.068-3.388 1.068-5.376c0-1.988-0.368-3.756-1.068-5.34s-1.694-2.946-2.909-4.050zM50.080 21.321c-0.258 0.736-0.626 1.436-1.105 2.026s-1.105 1.068-1.804 1.436c-0.7 0.368-1.547 0.552-2.467 0.552-0.958 0-1.768-0.184-2.467-0.552s-1.326-0.847-1.804-1.436c-0.479-0.589-0.847-1.289-1.105-2.026s-0.368-1.51-0.368-2.283c0-0.773 0.111-1.547 0.368-2.283s0.589-1.399 1.068-1.989c0.479-0.552 1.068-1.031 1.768-1.399s1.547-0.552 2.467-0.552c0.957 0 1.768 0.184 2.467 0.552s1.326 0.81 1.805 1.399c0.479 0.552 0.847 1.215 1.105 1.989 0.258 0.736 0.405 1.51 0.405 2.283s-0.111 1.51-0.331 2.283z"></path>
<path d="M69.818 14.767c0.479-0.552 1.068-1.031 1.768-1.363s1.436-0.516 2.283-0.516c0.81 0 1.62 0.184 2.394 0.552s1.399 0.81 1.841 1.399l4.64-5.34c-0.479-0.479-1.068-0.921-1.731-1.326s-1.399-0.737-2.209-1.031c-0.81-0.258-1.62-0.479-2.467-0.663-0.847-0.147-1.731-0.258-2.615-0.258-1.878 0-3.645 0.295-5.303 0.884s-3.093 1.473-4.345 2.578c-1.215 1.105-2.173 2.467-2.872 4.051s-1.068 3.388-1.068 5.34c0 2.025 0.368 3.83 1.068 5.413s1.657 2.946 2.872 4.050c1.215 1.105 2.651 1.988 4.345 2.541 1.657 0.589 3.461 0.884 5.376 0.884 1.768 0 3.461-0.295 5.082-0.81 1.584-0.552 2.872-1.326 3.903-2.283l-4.419-5.413c-0.479 0.589-1.142 1.031-1.915 1.326-0.81 0.295-1.583 0.479-2.394 0.479-0.884 0-1.657-0.147-2.357-0.479s-1.289-0.773-1.804-1.326c-0.516-0.552-0.884-1.215-1.142-1.988-0.258-0.736-0.405-1.547-0.405-2.394s0.147-1.657 0.405-2.394c0.184-0.7 0.552-1.363 1.068-1.915z"></path>
<path d="M101.192 20.106c0 1.399-0.368 2.614-1.105 3.646s-1.805 1.547-3.204 1.547c-0.736 0-1.363-0.147-1.804-0.405s-0.81-0.663-1.105-1.142c-0.295-0.479-0.479-1.031-0.552-1.657-0.111-0.626-0.147-1.252-0.147-1.952v-13.146h-8.028v14.987c0 1.252 0.147 2.43 0.479 3.645 0.295 1.178 0.81 2.246 1.51 3.167s1.62 1.694 2.725 2.246c1.105 0.552 2.504 0.884 4.124 0.884 0.847 0 1.657-0.111 2.394-0.331 0.773-0.221 1.473-0.515 2.099-0.884s1.178-0.773 1.657-1.252c0.479-0.479 0.847-0.994 1.142-1.547h0.111v3.351h7.696v-24.267h-7.991z"></path>
<path d="M127.89 31.337l5.818-19.959 5.818 19.959h7.88l8.911-31.3h-8.47l-4.714 19.48-5.155-19.222-0.074-0.258h-8.249l-5.229 19.443-4.603-19.443h-8.727l8.875 31.3z"></path>
<path d="M175.061 9.316c-0.884-1.068-2.025-1.841-3.424-2.32-1.399-0.516-3.13-0.736-5.192-0.736-1.988 0-3.903 0.331-5.818 1.031s-3.572 1.694-5.008 3.056l4.051 4.345c0.736-0.7 1.657-1.252 2.688-1.768 1.068-0.479 2.136-0.737 3.277-0.737 1.215 0 2.283 0.295 3.13 0.847s1.252 1.436 1.252 2.651v0.405c-1.768 0-3.572 0.11-5.413 0.295s-3.535 0.589-5.045 1.178c-1.51 0.589-2.762 1.399-3.682 2.467-0.958 1.068-1.436 2.467-1.436 4.235 0 1.436 0.258 2.614 0.81 3.609 0.552 0.958 1.252 1.768 2.136 2.32 0.847 0.589 1.805 0.994 2.835 1.252s2.062 0.405 3.020 0.405c1.473 0 2.799-0.295 4.051-0.81 1.252-0.552 2.173-1.326 2.799-2.32h0.147v2.578h7.291v-12.226c0-2.209-0.221-4.124-0.626-5.708-0.295-1.657-0.958-3.020-1.841-4.051zM170.311 21.505c0 1.51-0.442 2.725-1.289 3.645-0.847 0.884-2.099 1.326-3.719 1.326-0.405 0-0.81-0.037-1.215-0.11s-0.81-0.221-1.105-0.405c-0.332-0.184-0.589-0.442-0.81-0.773s-0.332-0.7-0.332-1.178c0-0.7 0.221-1.289 0.7-1.731 0.442-0.442 1.031-0.773 1.731-0.994s1.51-0.368 2.394-0.479c0.884-0.074 1.768-0.11 2.651-0.11h1.031v0.81z"></path>
<path d="M194.909 6.297c-1.51 0-2.799 0.405-3.94 1.178s-2.025 1.804-2.614 3.056h-0.111v-3.498h-7.696v24.23h7.991v-12.447c0-0.479 0.111-1.068 0.295-1.694s0.516-1.252 0.957-1.804c0.442-0.552 1.031-1.031 1.768-1.399 0.736-0.405 1.62-0.589 2.688-0.589 0.332 0 0.663 0 0.994 0.037s0.7 0.11 1.031 0.184l0.332-7.070c-0.184-0.074-0.442-0.11-0.736-0.147-0.295 0-0.626-0.037-0.958-0.037z"></path>
<path d="M221.533 13.846c-0.589-1.62-1.436-3.020-2.504-4.124-1.068-1.142-2.357-1.989-3.83-2.614-1.51-0.589-3.13-0.884-4.934-0.884-1.841 0-3.572 0.295-5.155 0.921s-2.983 1.473-4.124 2.614c-1.142 1.142-2.099 2.467-2.762 4.087s-1.031 3.388-1.031 5.376c0 2.062 0.332 3.866 1.031 5.45s1.657 2.946 2.872 4.014c1.215 1.105 2.651 1.915 4.272 2.467s3.351 0.847 5.155 0.847c2.467 0 4.64-0.442 6.518-1.326s3.351-2.173 4.493-3.83l-5.56-3.498c-0.552 0.736-1.252 1.363-2.136 1.841s-1.952 0.7-3.204 0.7c-0.7 0-1.399-0.11-2.062-0.331s-1.252-0.552-1.804-0.958c-0.552-0.405-0.958-0.884-1.326-1.436-0.332-0.552-0.552-1.178-0.626-1.841h17.565c0.037-0.295 0.037-0.589 0.037-0.921s0-0.663 0-0.958c0-2.099-0.295-3.977-0.884-5.597zM204.815 16.35c0.037-0.626 0.184-1.215 0.479-1.768s0.7-1.068 1.179-1.473c0.479-0.405 1.068-0.736 1.694-0.994s1.363-0.368 2.136-0.368c1.584 0 2.799 0.442 3.572 1.363 0.81 0.921 1.179 1.989 1.179 3.277h-10.237z"></path>
</svg>
