<!-- Generated by IcoMoon.io -->
<svg version="1.1" xmlns="http://www.w3.org/2000/svg" width="32" height="32" viewBox="0 0 32 32">
<title>logo</title>
<path d="M21.043 15.981c0 1.632-0.63 3.152-1.78 4.301s-2.688 1.78-4.301 1.78h-0.019v-4.023h-4.060v-4.079h4.060v-4.060h0.019c3.356 0 6.081 2.725 6.081 6.081z"></path>
<path d="M27.309 4.691c-2.892-2.892-6.897-4.691-11.309-4.691-8.825 0-16 7.156-16 16 0 4.413 1.798 8.417 4.691 11.309s6.897 4.691 11.309 4.691c4.413 0 8.417-1.78 11.309-4.691 2.892-2.892 4.691-6.897 4.691-11.309 0-4.431-1.798-8.417-4.691-11.309zM22.211 23.249c-1.947 1.947-4.524 3.003-7.268 3.003v0-4.171h-4.060v-4.042h-4.060v-4.079h4.060v-4.060h4.060v-4.171h0.019c5.655 0 10.271 4.598 10.271 10.271 0 2.744-1.075 5.321-3.022 7.249z"></path>
</svg>
