<!-- Generated by IcoMoon.io -->
<svg version="1.1" xmlns="http://www.w3.org/2000/svg" width="32" height="32" viewBox="0 0 32 32">
<title>logout</title>
<path d="M18.15 0h-4.262v17.075h4.262v-17.075zM22.387 3.625v4.938c0.413 0.3 0.8 0.637 1.163 1.012 2.012 2.012 3.113 4.688 3.113 7.525s-1.113 5.512-3.113 7.525c-2.012 2.012-4.688 3.113-7.525 3.113s-5.512-1.113-7.525-3.113c-2.013-2.012-3.112-4.688-3.112-7.525s1.1-5.512 3.112-7.525c0.363-0.363 0.75-0.7 1.162-1.012v-4.938c-5.050 2.388-8.537 7.525-8.537 13.475 0 8.225 6.675 14.9 14.9 14.9s14.9-6.675 14.9-14.9c0-5.95-3.488-11.088-8.538-13.475z"></path>
</svg>
