<!-- Generated by IcoMoon.io -->
<svg version="1.1" xmlns="http://www.w3.org/2000/svg" width="32" height="32" viewBox="0 0 32 32">
<title>mail_services</title>
<path d="M13.5 0v15.938h10.469v13.438h8.031v-29.375h-18.5zM22.919 12.734c-0.709 0-1.281-0.575-1.281-1.281 0-0.709 0.575-1.281 1.281-1.281 0.709 0 1.281 0.575 1.281 1.281s-0.575 1.281-1.281 1.281zM29.219 8.188h-13.063v-1.531h13.063v1.531zM29.219 4.625h-13.063v-1.563h13.063v1.563z"></path>
<path d="M0 17.494v1.7l11.262 5.916 11.262-5.916v-1.7h-22.525zM0 21.225v10.775h22.534v-10.775l-11.272 5.916-11.262-5.916z"></path>
</svg>
