<!-- Generated by IcoMoon.io -->
<svg version="1.1" xmlns="http://www.w3.org/2000/svg" width="32" height="32" viewBox="0 0 32 32">
<title>mapping</title>
<path d="M24.083 20.874v-3.969l7.938 5.953-7.938 5.953v-3.969h-5.705c-0.781 0-1.55-0.397-2.009-1.029l-9.178-12.849h-6.908v-3.969h7.69c0.781 0 1.55 0.397 2.009 1.029l9.178 12.849h4.924z"></path>
<path d="M7.178 20.874l2.096-2.927 2.443 3.411-1.749 2.456c-0.459 0.633-1.228 1.029-2.009 1.029h-7.69v-3.969h6.908z"></path>
<path d="M15.364 11.423l2.456-3.436c0.459-0.633 1.228-1.029 2.009-1.029h4.254v-3.969l7.938 5.953-7.938 5.953v-3.969h-3.497l-2.791 3.907z"></path>
</svg>
