<!-- Generated by IcoMoon.io -->
<svg version="1.1" xmlns="http://www.w3.org/2000/svg" width="32" height="32" viewBox="0 0 32 32">
<title>markAsRead</title>
<path d="M20.351 22.574l11.649 8.035v-18.497l-11.649 10.462zM0 12.112v18.497l11.649-8.036-11.649-10.461zM16 24.031l-2.781-0.048-13.219 8.017h32l-13.219-8.017-2.781 0.048z"></path>
<path d="M9.969 10.031h8v1.875h-8v-1.875z"></path>
<path d="M9.969 13.813h12v1.875h-12v-1.875z"></path>
<path d="M9.969 17.594h12v1.875h-12v-1.875z"></path>
<path d="M27.114 8.461v2.335l7.804 5.958 1.398-1.267z"></path>
<path d="M13.4 4.344l2.632-2.009 2.632 2.009h3.058l-5.69-4.344-5.69 4.344z"></path>
<path d="M4.948 8.461l-9.202 7.025 1.398 1.267 7.804-5.958z"></path>
<path d="M26.094 4.969h-20.125v11.063l2 1.938v-11h16v11l2.125-1.875v-9.125h0z"></path>
</svg>
