<!-- Generated by IcoMoon.io -->
<svg version="1.1" xmlns="http://www.w3.org/2000/svg" width="32" height="32" viewBox="0 0 32 32">
<title>membership</title>
<path d="M32 4.145v23.709h-32v-23.709h32zM14.601 22.046v-1.173c0-1.917-1.251-3.472-2.793-3.472h-5.587c-1.542 0-2.793 1.555-2.793 3.472v1.173h11.173zM28.245 20.54v-1.636h-11.373v1.636h11.373zM28.245 16.818v-1.636h-11.373v1.636h11.373zM9.014 9.954c-1.761 0-3.191 1.43-3.191 3.191s1.43 3.191 3.191 3.191c1.761 0 3.191-1.43 3.191-3.191s-1.43-3.191-3.191-3.191zM28.245 13.095v-1.636h-11.373v1.636h11.373z"></path>
</svg>
