<!-- Generated by IcoMoon.io -->
<svg version="1.1" xmlns="http://www.w3.org/2000/svg" width="32" height="32" viewBox="0 0 32 32">
<title>monitoring_status</title>
<path d="M18.056 18.288h-18.056v4.572h15.697c0.341-1.753 1.178-3.328 2.359-4.572zM15.978 27.431h-15.978v4.572h19.284c-1.534-1.131-2.706-2.725-3.306-4.572z"></path>
<path d="M0 0.003v4.572h15.994c0.616-1.859 1.809-3.453 3.366-4.572h-19.359zM0 9.144v4.572h18.003c-1.169-1.25-1.991-2.825-2.316-4.572h-15.688z"></path>
<path d="M24.709 0.197c-4.009 0-7.259 3.25-7.259 7.259s3.25 7.259 7.259 7.259 7.259-3.25 7.259-7.259-3.25-7.259-7.259-7.259zM21.972 6.766l1.509 1.919 4.734-3.862 0.587 0.588-5.322 6.141-2.712-3.531 1.203-1.253z"></path>
<path d="M24.709 17.344c-4.009 0-7.259 3.25-7.259 7.259s3.25 7.259 7.259 7.259 7.259-3.25 7.259-7.259-3.25-7.259-7.259-7.259zM28.628 27.259l-1.203 1.203-2.7-2.7-2.7 2.7-1.203-1.203 2.7-2.7-2.725-2.725 1.203-1.203 2.725 2.725 2.725-2.725 1.203 1.203-2.725 2.725 2.7 2.7z"></path>
</svg>
