<!-- Generated by IcoMoon.io -->
<svg version="1.1" xmlns="http://www.w3.org/2000/svg" width="32" height="32" viewBox="0 0 32 32">
<title>more_vertical</title>
<path d="M16 10.667c1.473 0 2.667-1.193 2.667-2.667s-1.193-2.667-2.667-2.667-2.667 1.193-2.667 2.667 1.193 2.667 2.667 2.667zM16 13.333c-1.473 0-2.667 1.193-2.667 2.667s1.193 2.667 2.667 2.667 2.667-1.193 2.667-2.667-1.193-2.667-2.667-2.667zM16 21.333c-1.473 0-2.667 1.193-2.667 2.667s1.193 2.667 2.667 2.667 2.667-1.193 2.667-2.667-1.193-2.667-2.667-2.667z"></path>
</svg>
