<!-- Generated by IcoMoon.io -->
<svg version="1.1" xmlns="http://www.w3.org/2000/svg" width="32" height="32" viewBox="0 0 32 32">
<title>move2</title>
<path d="M12.831 17.36c0.059 0.086 0.156 0.134 0.257 0.134 0.031 0 0.062-0.005 0.092-0.014 0.13-0.040 0.219-0.16 0.22-0.297 0.014-2.296 0.397-3.668 1.28-4.587 1.053-1.096 2.898-1.607 5.807-1.607 0.391 0 0.807 0.009 1.24 0.029v4.84c0 0.126 0.076 0.24 0.193 0.289 0.039 0.016 0.079 0.024 0.119 0.024 0.081 0 0.161-0.032 0.221-0.092l7.773-7.773c0.122-0.122 0.122-0.32 0-0.442l-7.773-7.773c-0.060-0.060-0.14-0.092-0.221-0.092-0.040 0-0.081 0.008-0.119 0.024-0.117 0.048-0.193 0.162-0.193 0.289v4.699c-0.246-0.010-0.491-0.015-0.731-0.015-2.2 0-4.13 0.41-5.736 1.217-1.509 0.759-2.674 1.86-3.367 3.186-1.252 2.391-0.91 5.292 0.939 7.96z"></path>
<path d="M28.231 13.644l-2.209 2.209 1.985 4.121h-3.958l-3.331 4.244h-9.147l-3.554-4.244h-4.039l4.662-9.74 0.939-2.316h-2.949l-6.631 13.188v10.894h31.985l-0.001-10.894z"></path>
</svg>
