<!-- Generated by IcoMoon.io -->
<svg version="1.1" xmlns="http://www.w3.org/2000/svg" width="32" height="32" viewBox="0 0 32 32">
<title>notification-unsubscribed</title>
<path d="M15.963 32c1.737 0 3.15-1.15 3.15-3.15h-6.313c0.012 2 1.425 3.15 3.162 3.15z"></path>
<path d="M18.438 3.050h-0.15v-0.725c0-1.288-1.050-2.325-2.325-2.325s-2.325 1.038-2.325 2.325v0.725h-0.088c-8.262 2.325-1.637 10.688-8.9 18.938l18.050-15.2c-0.563-1.713-1.688-3.013-4.262-3.737z"></path>
<path d="M32 3.5h-1.712l-7.087 5.975c0 0 0 0 0 0l-23.2 19.538v1.738h1.625l4.45-3.75h23.475v-2.875c-4.825-4-5.738-8.162-6.1-11.75l8.55-7.213v-1.663z"></path>
</svg>
