<!-- Generated by IcoMoon.io -->
<svg version="1.1" xmlns="http://www.w3.org/2000/svg" width="32" height="32" viewBox="0 0 32 32">
<title>numeric</title>
<path d="M9.694 21.68h-7.507v-1.984h2.396v-6.004h-2.396v-1.854c0.351 0 0.699-0.023 1.045-0.069s0.623-0.119 0.832-0.221c0.244-0.122 0.434-0.286 0.568-0.492s0.212-0.462 0.233-0.767h2.487v9.407h2.342v1.984z"></path>
<path d="M20.147 21.68h-8.347v-1.854c0.707-0.559 1.341-1.088 1.903-1.587s1.057-0.971 1.484-1.419c0.554-0.585 0.956-1.099 1.205-1.541s0.374-0.898 0.374-1.366c0-0.529-0.158-0.935-0.473-1.217s-0.755-0.423-1.32-0.423c-0.29 0-0.563 0.036-0.82 0.107s-0.518 0.163-0.782 0.275c-0.259 0.117-0.481 0.236-0.664 0.359s-0.32 0.214-0.412 0.275h-0.221v-2.48c0.32-0.153 0.821-0.309 1.503-0.469s1.338-0.24 1.968-0.24c1.348 0 2.369 0.3 3.063 0.9s1.041 1.445 1.041 2.533c0 0.671-0.158 1.329-0.473 1.972s-0.839 1.334-1.572 2.071c-0.458 0.453-0.903 0.856-1.335 1.209s-0.745 0.604-0.938 0.752h4.814v2.144z"></path>
<path d="M29.813 18.239c0 0.554-0.103 1.060-0.309 1.518s-0.507 0.847-0.904 1.167c-0.402 0.32-0.874 0.566-1.415 0.736s-1.202 0.256-1.98 0.256c-0.885 0-1.644-0.074-2.277-0.221s-1.148-0.313-1.545-0.496v-2.464h0.275c0.417 0.265 0.907 0.493 1.469 0.687s1.074 0.29 1.537 0.29c0.275 0 0.573-0.024 0.896-0.073s0.594-0.154 0.813-0.317c0.173-0.127 0.311-0.284 0.416-0.469s0.156-0.449 0.156-0.79c0-0.336-0.074-0.594-0.221-0.774s-0.343-0.311-0.587-0.393c-0.244-0.086-0.537-0.135-0.877-0.145s-0.641-0.015-0.9-0.015h-0.488v-1.999h0.45c0.346 0 0.664-0.015 0.954-0.046s0.537-0.092 0.74-0.183c0.203-0.097 0.362-0.231 0.477-0.404s0.172-0.407 0.172-0.702c0-0.229-0.053-0.416-0.16-0.561s-0.239-0.258-0.397-0.339c-0.183-0.092-0.397-0.153-0.641-0.183s-0.453-0.046-0.626-0.046c-0.28 0-0.565 0.033-0.855 0.099s-0.572 0.15-0.847 0.252c-0.214 0.081-0.438 0.187-0.671 0.317s-0.407 0.228-0.519 0.294h-0.237v-2.434c0.392-0.168 0.919-0.329 1.583-0.484s1.341-0.233 2.033-0.233c0.676 0 1.263 0.059 1.759 0.175s0.919 0.287 1.27 0.511c0.387 0.239 0.676 0.543 0.87 0.912s0.29 0.785 0.29 1.247c0 0.646-0.187 1.212-0.561 1.698s-0.866 0.8-1.476 0.942v0.107c0.27 0.041 0.533 0.109 0.79 0.206s0.507 0.254 0.751 0.473c0.229 0.198 0.418 0.454 0.568 0.767s0.225 0.685 0.225 1.118z"></path>
</svg>
