<!-- Generated by IcoMoon.io -->
<svg version="1.1" xmlns="http://www.w3.org/2000/svg" width="32" height="32" viewBox="0 0 32 32">
<title>OCR</title>
<path d="M3.019 22.868h-3.019v9.132h9.132v-3.019h-6.113v-6.113zM3.019 3.019h6.113v-3.019h-9.132v9.132h3.019v-6.113zM32 0h-9.132v3.019h6.113v6.113h3.019v-9.132zM28.981 28.981h-6.113v3.019h9.132v-9.132h-3.019v6.113z"></path>
<path d="M23.623 7.094v4.151h-1.132c-0.226-0.981-0.528-1.66-0.83-2.038s-0.679-0.755-1.208-0.981c-0.302-0.151-0.755-0.226-1.509-0.226h-1.132v13.66c0 0.755 0.075 1.283 0.151 1.434 0.075 0.226 0.226 0.377 0.528 0.528s0.604 0.226 1.057 0.226h0.528v1.132h-8.075v-1.132h0.528c0.453 0 0.83-0.075 1.057-0.226 0.226-0.075 0.377-0.302 0.453-0.528 0.075-0.151 0.151-0.679 0.151-1.434v-13.736h-1.132c-1.057 0-1.811 0.226-2.264 0.679-0.679 0.604-1.057 1.509-1.208 2.642h-1.132v-4.151h15.17z"></path>
</svg>
