<!-- Generated by IcoMoon.io -->
<svg version="1.1" xmlns="http://www.w3.org/2000/svg" width="32" height="32" viewBox="0 0 32 32">
<title>OneClickIndexing_V1</title>
<path d="M0 15.908l3.886-13.989h3.866l3.808 13.989h-3.089l-0.777-3.1h-4.003l-0.797 3.1h-2.895zM5.654 4.613h-0.039l-1.341 6.045h2.798l-1.418-6.045z"></path>
<path d="M11.973 15.908v-13.989h5.207c2.235 0 4.080 0.639 4.080 3.623 0 1.608-0.797 2.771-2.39 3.081v0.039c2.079 0.291 2.623 1.627 2.623 3.546 0 3.546-3.089 3.701-4.333 3.701h-5.188zM14.907 7.635h1.962c0.641 0 1.535-0.426 1.535-1.782 0-1.027-0.699-1.782-1.69-1.782h-1.807v3.565zM14.907 13.758h1.632c0.622 0 2.021-0.019 2.021-1.976 0-1.24-0.466-1.996-1.943-1.996h-1.71v3.972z"></path>
<path d="M22.927 8.914c0-3.701-0.006-7.039 4.832-7.039 2.992 0 4.203 1.459 4.087 4.462h-2.876c0-1.86-0.33-2.558-1.205-2.558-1.651 0-1.865 1.55-1.865 5.134s0.214 5.134 1.865 5.134c1.36 0 1.302-1.744 1.341-2.848h2.895c0 3.739-1.496 4.941-4.236 4.941-4.838 0-4.838-3.565-4.838-7.227z"></path>
<path d="M26.847 21.687l-14.764-11.073v18.455l4.608-4.345 3.685 7.273 4.838 0.004-4.608-9.234 6.241-1.079z"></path>
</svg>
