<!-- Generated by IcoMoon.io -->
<svg version="1.1" xmlns="http://www.w3.org/2000/svg" width="32" height="32" viewBox="0 0 32 32">
<title>original_size</title>
<path d="M2 2h28v28h-28v-28zM0 32h32v-32h-32v32z"></path>
<path d="M9.575 20.988h-1.938v-7.3c-0.713 0.662-1.537 1.15-2.5 1.463v-1.762c0.513-0.162 1.050-0.475 1.65-0.938 0.588-0.463 1-1 1.225-1.613h1.575v10.15z"></path>
<path d="M15.738 12.45c-0.238 0-0.438 0.075-0.625 0.225s-0.325 0.412-0.425 0.8c-0.137 0.5-0.2 1.338-0.2 2.525s0.063 2 0.175 2.45 0.275 0.738 0.45 0.887c0.175 0.15 0.387 0.225 0.625 0.225s0.438-0.075 0.625-0.225c0.188-0.15 0.325-0.413 0.425-0.8 0.137-0.5 0.2-1.337 0.2-2.525s-0.063-2-0.175-2.438c-0.125-0.438-0.275-0.738-0.45-0.887-0.188-0.162-0.387-0.238-0.625-0.238zM15.738 10.838c0.975 0 1.738 0.35 2.3 1.050 0.65 0.825 0.988 2.2 0.988 4.112s-0.325 3.288-1 4.125c-0.55 0.688-1.313 1.038-2.287 1.038-0.988 0-1.775-0.375-2.375-1.137-0.6-0.75-0.9-2.1-0.9-4.037 0-1.9 0.325-3.275 1-4.112 0.537-0.688 1.3-1.037 2.275-1.037z"></path>
<path d="M23.587 12.45c-0.238 0-0.438 0.075-0.625 0.225s-0.325 0.412-0.425 0.8c-0.137 0.5-0.2 1.338-0.2 2.525s0.063 2 0.175 2.45c0.113 0.438 0.275 0.738 0.45 0.887s0.387 0.225 0.625 0.225 0.438-0.075 0.625-0.225 0.325-0.413 0.425-0.8c0.137-0.5 0.2-1.337 0.2-2.525s-0.063-2-0.175-2.438c-0.125-0.438-0.275-0.738-0.45-0.887-0.188-0.162-0.387-0.238-0.625-0.238zM23.587 10.838c0.975 0 1.738 0.35 2.3 1.050 0.65 0.825 0.988 2.2 0.988 4.112s-0.325 3.288-1 4.125c-0.55 0.688-1.313 1.038-2.288 1.038-0.988 0-1.775-0.375-2.375-1.137-0.6-0.75-0.9-2.1-0.9-4.037 0-1.9 0.325-3.275 1-4.112 0.538-0.688 1.3-1.037 2.275-1.037z"></path>
</svg>
