<!-- Generated by IcoMoon.io -->
<svg version="1.1" xmlns="http://www.w3.org/2000/svg" width="32" height="32" viewBox="0 0 32 32">
<title>otherFileClipped</title>
<path d="M32 4.045h-6.023v-1.773c-0-1.253-1.049-2.272-2.337-2.272h-3.316c-1.289 0-2.337 1.019-2.337 2.272v1.773h-17.987v11.986h-0.031v15.938h32v-15.9h0.031zM19.988 2.272c-0-0.15 0.154-0.276 0.337-0.276h3.316c0.183 0 0.337 0.127 0.337 0.276v1.773h-3.99zM2 6.052h15.987v5.735c0 1.253 1.048 2.272 2.337 2.272h5.355c1.302 0 2.337-1.019 2.337-2.272v-3.759h-2l-0.006 3.716c0 0.13-0.084 0.319-0.291 0.319h-5.394c-0.183 0-0.337-0.127-0.337-0.277v-3.767h0v-1.968h10.012v9.979h-28zM9.891 26.989h-5.984v-0.859h5.984zM18.867 26.989h-5.984v-0.859h5.984zM27.844 26.989h-5.984v-0.859h5.984z"></path>
</svg>
