<!-- Generated by IcoMoon.io -->
<svg version="1.1" xmlns="http://www.w3.org/2000/svg" width="32" height="32" viewBox="0 0 32 32">
<title>Overlays_3</title>
<path d="M8.688 4.625l1.625-1.625h9.75l1.625 1.625-1.625 1.625h-9.75l-1.625-1.625zM21.688 15.188l-1.625-1.625v-6.5l1.625-1.625 1.625 1.625v6.5l-1.625 1.625zM21.688 26.563l-1.625-1.625v-6.5l1.625-1.625 1.625 1.625v6.5l-1.625 1.625zM8.688 16l1.625-1.625h9.75l1.625 1.625-1.625 1.625h-9.75l-1.625-1.625zM8.688 27.375l1.625-1.625h9.75l1.625 1.625-1.625 1.625h-9.75l-1.625-1.625z"></path>
</svg>
