<!-- Generated by IcoMoon.io -->
<svg version="1.1" xmlns="http://www.w3.org/2000/svg" width="50" height="32" viewBox="0 0 50 32">
<title>parallel_tasks</title>
<path d="M12.799 7.986h-2.532v-1.266c0-0.696-0.57-1.266-1.266-1.266h-2.532c-0.696 0-1.266 0.57-1.266 1.266v1.266h-2.532v2.532h10.129v-2.532zM9.001 7.986h-2.532v-1.264c0.001-0.001 0.001-0.001 0.002-0.002h2.527c0.001 0.001 0.002 0.001 0.002 0.002v1.264z"></path>
<path d="M14.83 7.986h-1.405v1.266h0.387v14.946h-12.175v-14.946h0.401v-1.266h-1.405c-0.348 0-0.633 0.285-0.633 0.633v16.709c0 0.348 0.285 0.633 0.633 0.633h14.144c0.019 0 0.034-0.005 0.046-0.014l0.007 0.014c0.348 0 0.633-0.285 0.633-0.633v-16.709c-0-0.348-0.285-0.633-0.633-0.633z"></path>
<path d="M12.451 12.703c-0.005-0.002-0.009-0.003-0.014-0.005-0.010-0.003-0.019-0.007-0.029-0.009-0.005-0.001-0.010-0.003-0.016-0.004-0.009-0.002-0.018-0.004-0.027-0.005-0.005-0.001-0.010-0.002-0.015-0.002-0.010-0.001-0.020-0.002-0.030-0.002-0.003 0-0.006-0.001-0.009-0.001-0.001 0-0.001 0-0.002 0-0.015 0-0.029 0.001-0.043 0.003-0.004 0-0.007 0.001-0.011 0.002-0.011 0.002-0.022 0.004-0.033 0.007-0.004 0.001-0.008 0.002-0.012 0.003-0.014 0.004-0.027 0.008-0.041 0.014-0.001 0.001-0.002 0.001-0.003 0.002-0.012 0.005-0.024 0.011-0.036 0.017-0.004 0.002-0.007 0.004-0.011 0.006-0.010 0.006-0.021 0.012-0.031 0.019-0.003 0.002-0.005 0.003-0.008 0.005-0.012 0.008-0.024 0.017-0.036 0.027-0.003 0.002-0.006 0.005-0.009 0.007-0.009 0.008-0.018 0.015-0.027 0.024-0.003 0.003-0.007 0.006-0.010 0.009-0.011 0.011-0.022 0.021-0.033 0.033-0.163 0.171-0.365 0.384-0.594 0.624-0.367 0.385-0.804 0.843-1.265 1.325-1.672 1.749-3.646 3.808-3.646 3.808s-1.771-0.707-2.613-1.186c-0.010-0.005-0.021-0.012-0.032-0.018-0.003-0.001-0.005-0.003-0.008-0.004-0.024-0.013-0.051-0.027-0.080-0.041-0.003-0.002-0.007-0.003-0.010-0.005-0.015-0.007-0.030-0.014-0.045-0.020-0.001-0-0.001-0-0.002-0.001-0.015-0.006-0.030-0.012-0.045-0.017-0.004-0.001-0.008-0.003-0.012-0.004-0.016-0.005-0.032-0.010-0.049-0.014-0.001-0-0.002-0-0.003-0.001-0.015-0.004-0.031-0.006-0.046-0.009-0.004-0.001-0.009-0.001-0.013-0.002-0.016-0.002-0.033-0.004-0.049-0.004-0 0-0.001 0-0.001 0-0.008 0-0.016 0.001-0.024 0.001-0.004 0-0.008 0-0.012 0.001-0.009 0.001-0.018 0.003-0.027 0.004-0.003 0.001-0.006 0.001-0.009 0.002-0.010 0.002-0.020 0.005-0.030 0.008-0.002 0.001-0.004 0.001-0.006 0.002-0.012 0.004-0.023 0.009-0.034 0.015-0.184 0.093-0.242 0.293-0.128 0.445l3.319 4.725 6.148-9.326c0.104-0.156 0.030-0.343-0.156-0.439-0.015-0.007-0.029-0.014-0.044-0.020z"></path>
<path d="M29.336 7.986h-2.532v-1.266c0-0.696-0.57-1.266-1.266-1.266h-2.532c-0.696 0-1.266 0.57-1.266 1.266v1.266h-2.532v2.532h10.129v-2.532zM25.538 7.986h-2.532v-1.264c0.001-0.001 0.001-0.001 0.002-0.002h2.527c0.001 0.001 0.002 0.001 0.002 0.002v1.264z"></path>
<path d="M31.367 7.986h-1.405v1.266h0.387v14.946h-12.175v-14.946h0.401v-1.266h-1.405c-0.348 0-0.633 0.285-0.633 0.633v16.709c0 0.348 0.285 0.633 0.633 0.633h14.144c0.019 0 0.034-0.005 0.046-0.014l0.007 0.014c0.348 0 0.633-0.285 0.633-0.633v-16.709c-0-0.348-0.285-0.633-0.633-0.633z"></path>
<path d="M28.987 12.703c-0.005-0.002-0.009-0.003-0.014-0.005-0.010-0.003-0.019-0.007-0.029-0.009-0.005-0.001-0.010-0.003-0.016-0.004-0.009-0.002-0.018-0.004-0.027-0.005-0.005-0.001-0.010-0.002-0.015-0.002-0.010-0.001-0.020-0.002-0.030-0.002-0.003 0-0.006-0.001-0.009-0.001-0.001 0-0.001 0-0.002 0-0.015 0-0.029 0.001-0.043 0.003-0.004 0-0.007 0.001-0.011 0.002-0.011 0.002-0.022 0.004-0.033 0.007-0.004 0.001-0.008 0.002-0.012 0.003-0.014 0.004-0.027 0.008-0.041 0.014-0.001 0.001-0.002 0.001-0.003 0.002-0.012 0.005-0.024 0.011-0.036 0.017-0.004 0.002-0.007 0.004-0.011 0.006-0.010 0.006-0.021 0.012-0.031 0.019-0.003 0.002-0.005 0.003-0.008 0.005-0.012 0.008-0.024 0.017-0.036 0.027-0.003 0.002-0.006 0.005-0.009 0.007-0.009 0.008-0.018 0.015-0.027 0.024-0.003 0.003-0.006 0.006-0.010 0.009-0.011 0.011-0.022 0.021-0.033 0.033-0.163 0.171-0.365 0.384-0.594 0.624-0.367 0.385-0.804 0.843-1.265 1.325-1.672 1.749-3.646 3.808-3.646 3.808s-1.771-0.707-2.613-1.186c-0.010-0.005-0.020-0.012-0.032-0.018-0.003-0.001-0.005-0.003-0.008-0.004-0.024-0.013-0.051-0.027-0.080-0.041-0.003-0.002-0.007-0.003-0.010-0.005-0.015-0.007-0.030-0.014-0.045-0.020-0.001-0-0.001-0-0.002-0.001-0.015-0.006-0.030-0.012-0.045-0.017-0.004-0.001-0.008-0.003-0.012-0.004-0.016-0.005-0.032-0.010-0.049-0.014-0.001-0-0.002-0-0.003-0.001-0.015-0.004-0.031-0.006-0.046-0.009-0.004-0.001-0.009-0.001-0.013-0.002-0.016-0.002-0.033-0.004-0.049-0.004-0 0-0.001 0-0.001 0-0.008 0-0.016 0.001-0.024 0.001-0.004 0-0.008 0-0.012 0.001-0.009 0.001-0.018 0.003-0.027 0.004-0.003 0.001-0.006 0.001-0.009 0.002-0.010 0.002-0.020 0.005-0.030 0.008-0.002 0.001-0.004 0.001-0.006 0.002-0.012 0.004-0.023 0.009-0.034 0.015-0.184 0.093-0.242 0.293-0.128 0.445l3.319 4.725 6.148-9.326c0.104-0.156 0.030-0.343-0.156-0.439-0.015-0.007-0.029-0.014-0.044-0.020z"></path>
</svg>
