<!-- Generated by IcoMoon.io -->
<svg version="1.1" xmlns="http://www.w3.org/2000/svg" width="32" height="32" viewBox="0 0 32 32">
<title>pngClipped</title>
<path d="M4.355 20.019h3.756v2.968h-3.756v-2.968z"></path>
<path d="M31.984 4.031h-6.023v-1.767c-0-1.249-1.049-2.264-2.337-2.264h-3.316c-1.289 0-2.337 1.016-2.337 2.264v1.767h-17.987v11.98h0.016v15.906h31.969v-15.903h0.016v-11.982zM10.268 24.943h-5.913v5.025h-2.298v-12.006h8.211v6.981zM20.144 29.967h-2.157l-3.756-6.931v6.931h-2.298v-12.006h2.298l3.756 6.73v-6.73h2.157v12.005zM30.021 20.019v0h-5.913v7.892h3.756v-2.968h-2.382v-1.956h4.539v6.981h-8.211v-12.006h8.211v2.057zM19.972 2.264c-0-0.149 0.154-0.276 0.337-0.276h3.316c0.183 0 0.337 0.126 0.337 0.276v1.767h-3.99v-1.767zM17.972 6.031v5.715c0 1.248 1.048 2.264 2.337 2.264h5.355c1.302 0 2.337-1.016 2.337-2.264v-3.747h-2l-0.006 3.704c0 0.13-0.084 0.318-0.291 0.318h-5.394c-0.183 0-0.337-0.126-0.337-0.275v-3.754h0v-1.961h10.012v9.948h-28v-9.948h15.987z"></path>
</svg>
