<!-- Generated by IcoMoon.io -->
<svg version="1.1" xmlns="http://www.w3.org/2000/svg" width="32" height="32" viewBox="0 0 32 32">
<title>pptClipped</title>
<path d="M14.232 20.070h3.756v2.968h-3.756v-2.968z"></path>
<path d="M4.355 20.070h3.756v2.968h-3.756v-2.968z"></path>
<path d="M25.977 4.036v-1.769c-0-1.25-1.048-2.267-2.337-2.267h-3.316c-1.289 0-2.337 1.017-2.337 2.267v1.769h-17.987v11.994l6.681 0.001h-6.681v15.938h31.969v-15.935h0.031v-11.997h-6.023zM19.988 2.267c-0-0.15 0.154-0.276 0.337-0.276h3.316c0.183 0 0.337 0.126 0.337 0.276v1.769h-3.99v-1.769zM2 16.031v-9.992h15.987v5.722c0 1.25 1.048 2.267 2.337 2.267h5.355c1.302 0 2.337-1.017 2.337-2.267v-3.751h-2l-0.006 3.708c0 0.13-0.084 0.319-0.291 0.319h-5.394c-0.183 0-0.337-0.126-0.337-0.276v-3.759h0v-1.964h10.012v9.992h-28zM10.268 24.994h-5.913v5.025h-2.298v-12.006h8.211v6.981zM20.144 24.994h-5.913v5.025h-2.298v-12.006h8.211v6.981zM30.021 20.070v0h-2.806v9.949h-2.299v-9.949h-3.106v-2.057h8.211v2.057z"></path>
</svg>
