<!-- Generated by IcoMoon.io -->
<svg version="1.1" xmlns="http://www.w3.org/2000/svg" width="32" height="32" viewBox="0 0 32 32">
<title>Question</title>
<path d="M16 0c-8.837 0-16 7.163-16 16s7.163 16 16 16 16-7.163 16-16-7.163-16-16-16zM16.091 25.438h-3.75v-3.75h3.75v3.75zM21.716 14.188c0 2.068-1.683 3.75-3.75 3.75h-1.872c-0.001 0.001-0.002 0.002-0.003 0.004v1.871h-3.75v-1.875c0-2.068 1.682-3.75 3.75-3.75h1.872c0.001-0.001 0.002-0.002 0.003-0.003v-3.743c-0.001-0.001-0.002-0.002-0.003-0.003h-7.525v-3.75h7.528c2.067 0 3.75 1.682 3.75 3.75v3.75z"></path>
</svg>
