<!-- Generated by IcoMoon.io -->
<svg version="1.1" xmlns="http://www.w3.org/2000/svg" width="32" height="32" viewBox="0 0 32 32">
<title>quickCopy</title>
<path d="M0 0v24h2.438l2-2h-2.438v-20h10v6h6v3.531l2 2v-3.531h4v6h6v14h-16v-2.313h-2v4.313h20v-18l-6-6h-6v-2l-6-6zM14 2.813l3.188 3.188h-3.188zM26 10.813l3.188 3.188h-3.188z"></path>
<path d="M16.321 22.219v-3.571h-11.224v-2.041h11.224v-3.571l4.592 4.592-4.592 4.592zM10.199 22.729h11.224v2.041h-11.224v3.571l-4.592-4.592 4.592-4.592v3.571z"></path>
</svg>
