<!-- Generated by IcoMoon.io -->
<svg version="1.1" xmlns="http://www.w3.org/2000/svg" width="32" height="32" viewBox="0 0 32 32">
<title>radio-checked-unchecked</title>
<path d="M16.144 10.419c1.569 0 2.844-1.275 2.844-2.844s-1.275-2.844-2.844-2.844-2.844 1.275-2.844 2.844 1.275 2.844 2.844 2.844z"></path>
<path d="M16.144 15.156c4.188 0 7.581-3.394 7.581-7.581s-3.394-7.581-7.581-7.581-7.581 3.4-7.581 7.588c0 4.181 3.394 7.575 7.581 7.575zM16.144 1.894c3.137 0 5.681 2.544 5.681 5.681s-2.544 5.687-5.681 5.687-5.681-2.544-5.681-5.688c0-3.138 2.544-5.681 5.681-5.681z"></path>
<path d="M15.9 16.844c-4.188 0-7.581 3.394-7.581 7.581s3.394 7.581 7.581 7.581 7.581-3.394 7.581-7.581c-0.006-4.188-3.4-7.581-7.581-7.581zM15.9 30.106c-3.138 0-5.681-2.544-5.681-5.688s2.544-5.681 5.681-5.681c3.138 0 5.681 2.544 5.681 5.681s-2.544 5.688-5.681 5.688z"></path>
</svg>
