<!-- Generated by IcoMoon.io -->
<svg version="1.1" xmlns="http://www.w3.org/2000/svg" width="32" height="32" viewBox="0 0 32 32">
<title>ReadInfo</title>
<path d="M0 16.557h1.998v4.526h-1.998v-4.526z"></path>
<path d="M1.998 22.376h-1.998v4.619h4.402v-1.998h-2.404z"></path>
<path d="M0 10.836h1.998v4.526h-1.998v-4.526z"></path>
<path d="M32 22.42h-2.016v2.576h-1.855v1.998h3.871v-1.998z"></path>
<path d="M29.984 16.59h2.016v4.534h-2.017v-4.534z"></path>
<path d="M29.984 10.847h2.016v4.534h-2.017v-4.534z"></path>
<path d="M5.651 4.915h4.371v1.998h-4.371v-1.998z"></path>
<path d="M0.031 5.017h-0.031v4.526h1.998v-2.63h2.404v-1.998h-4.371z"></path>
<path d="M16.89 4.915h4.371v1.998h-4.371v-1.998z"></path>
<path d="M22.509 4.915h4.371v1.998h-4.371v-1.998z"></path>
<path d="M28.129 4.915v1.998h1.855v2.638h2.016v-4.636z"></path>
<path d="M11.27 4.915h4.371v1.998h-4.371v-1.998z"></path>
<path d="M16.89 24.997h4.371v1.998h-4.371v-1.998z"></path>
<path d="M11.27 24.997h4.371v1.998h-4.371v-1.998z"></path>
<path d="M5.651 24.997h4.371v1.998h-4.371v-1.998z"></path>
<path d="M22.509 24.997h4.371v1.998h-4.371v-1.998z"></path>
<path d="M25.969 11.078v9.953h-20v-9.953h20zM27.969 9.078h-24v13.953h24v-13.953z"></path>
<path d="M8.071 19.403l1.946-7.006h1.936l1.907 7.006h-1.547l-0.389-1.553h-2.005l-0.399 1.553h-1.45zM10.902 13.746h-0.020l-0.671 3.028h1.401l-0.71-3.028z"></path>
<path d="M14.067 19.403v-7.006h2.608c1.119 0 2.043 0.32 2.043 1.815 0 0.805-0.399 1.388-1.197 1.543v0.019c1.041 0.146 1.314 0.815 1.314 1.776 0 1.776-1.547 1.853-2.17 1.853h-2.598zM15.536 15.26h0.983c0.321 0 0.769-0.213 0.769-0.893 0-0.514-0.35-0.893-0.847-0.893h-0.905v1.785zM15.536 18.326h0.817c0.311 0 1.012-0.010 1.012-0.99 0-0.621-0.234-0.999-0.973-0.999h-0.856v1.989z"></path>
<path d="M19.553 15.9c0-1.853-0.003-3.525 2.42-3.525 1.499 0 2.105 0.731 2.047 2.235h-1.44c0-0.931-0.165-1.281-0.603-1.281-0.827 0-0.934 0.776-0.934 2.571s0.107 2.571 0.934 2.571c0.681 0 0.652-0.873 0.671-1.426h1.45c0 1.873-0.749 2.474-2.121 2.474-2.423 0-2.423-1.785-2.423-3.619z"></path>
</svg>
