<!-- Generated by IcoMoon.io -->
<svg version="1.1" xmlns="http://www.w3.org/2000/svg" width="32" height="32" viewBox="0 0 32 32">
<title>ReassignTask</title>
<path d="M13.979 11.048l-6.99-6.99v4.368h-6.99v5.242h6.99v4.368l6.99-6.99z"></path>
<path d="M22.578 20.001c3.633 0.001 6.579-4.028 6.579-8.999 0-0.001 0-0.002 0-0.003 0.001-4.97-2.944-9.001-6.577-9.001s-6.578 4.028-6.579 8.999c0 0.001 0 0.002 0 0.003-0.001 4.971 2.944 9.001 6.577 9.001z"></path>
<path d="M32.099 22.078c-1.344-0.614-2.85-1.102-4.47-1.435-1.461 1.119-3.181 1.77-5.049 1.77s-3.589-0.652-5.050-1.77c-6.359 1.305-10.95 4.997-10.95 9.356h25.519l-0-7.922z"></path>
</svg>
