<!-- Generated by IcoMoon.io -->
<svg version="1.1" xmlns="http://www.w3.org/2000/svg" width="32" height="32" viewBox="0 0 32 32">
<title>RectangleTransparentAnnotiation</title>
<path d="M31.195 0h-31.195v32h32v-32h-0.805zM2 2h4.481l-4.481 4.481v-4.481zM2 8.248l6.248-6.248h3.911l-10.159 10.159v-3.911zM2 13.927l11.927-11.927h3.911l-15.838 15.838v-3.911zM2 19.605l17.605-17.605h3.911l-21.516 21.516v-3.911zM2 25.284l23.284-23.284h3.911l-27.195 27.195v-3.911zM30 30h-4.233l4.233-4.233v4.233zM30 23.999l-6.001 6.001h-3.956l9.957-9.957v3.956zM30 18.275l-11.725 11.725h-3.911l15.635-15.636v3.911zM30 12.597l-17.403 17.403h-3.956l21.359-21.359v3.956zM30 6.873l-23.127 23.127h-3.911l27.038-27.038v3.911z"></path>
</svg>
