<!-- Generated by IcoMoon.io -->
<svg version="1.1" xmlns="http://www.w3.org/2000/svg" width="32" height="32" viewBox="0 0 32 32">
<title>relations</title>
<path d="M27.284 11.056c1.748-1.748 1.748-4.592 0-6.341-1.748-1.747-4.592-1.747-6.34 0-1.748 1.748-1.748 4.592-0 6.34 1.748 1.748 4.593 1.748 6.341 0.001zM2.319 29.682c-3.092-3.091-3.092-8.102 0-11.194 2.762-2.761 7.053-3.048 10.141-0.875l5.201-5.201c-2.159-3.076-1.872-7.358 0.875-10.105 3.076-3.076 8.081-3.076 11.157 0s3.077 8.082 0 11.158c-2.747 2.748-7.028 3.034-10.104 0.874l-5.202 5.201c2.174 3.089 1.888 7.38-0.874 10.142-3.091 3.091-8.102 3.091-11.193 0z"></path>
</svg>
