<!-- Generated by IcoMoon.io -->
<svg version="1.1" xmlns="http://www.w3.org/2000/svg" width="32" height="32" viewBox="0 0 32 32">
<title>ReplyAll</title>
<path d="M10.823 21.5l1.872-1.859c0.059-0.059 0.092-0.139 0.092-0.222v-3.442c0-0.126-0.076-0.24-0.193-0.289s-0.251-0.022-0.341 0.068l-7.823 7.823c-0.059 0.059-0.091 0.138-0.091 0.221 0 0.074 0.027 0.144 0.074 0.2 0.006 0.007 0.011 0.015 0.017 0.021l7.823 7.823c0.060 0.060 0.14 0.092 0.221 0.092 0.040 0 0.081-0.008 0.12-0.024 0.117-0.048 0.193-0.162 0.193-0.289v-3.607c0-0.084-0.034-0.165-0.094-0.224l-4.139-4.038 2.269-2.254z"></path>
<path d="M27.202 21.5c0.683-2.161 0.206-4.618-1.378-6.904-0.059-0.086-0.156-0.134-0.257-0.134-0.031 0-0.062 0.005-0.092 0.014-0.13 0.040-0.219 0.16-0.22 0.297-0.014 2.296-0.397 3.668-1.28 4.587-0.809 0.843-2.088 1.339-3.956 1.524v-4.742c0-0.126-0.076-0.241-0.193-0.289-0.039-0.016-0.079-0.024-0.119-0.024-0.081 0-0.161 0.032-0.221 0.092l-7.773 7.773c-0.083 0.083-0.108 0.201-0.078 0.306 0.014 0.049 0.039 0.096 0.078 0.135l7.773 7.773c0.060 0.060 0.14 0.092 0.221 0.092 0.040 0 0.081-0.008 0.119-0.024 0.117-0.048 0.193-0.162 0.193-0.289v-4.9c1.243-0.191 2.374-0.54 3.377-1.045 0.919-0.462 1.71-1.052 2.345-1.742 0.407-0.442 0.751-0.926 1.023-1.444 0.179-0.342 0.325-0.695 0.439-1.056z"></path>
<path d="M32.042 0h-32.042v24h2.506c-0.006-0.066-0.006-2.5-0.006-2.5v-17.416l13.838 10.238 13.204-10.341v20.020h2.5v-24zM16.017 11.023l-11.26-8.523h22.401l-11.14 8.523z"></path>
<path d="M11.68 24.097c0.009 0.013 0.020 0.026 0.032 0.038l2.635 2.635c-0.087-0.132-0.188-0.255-0.302-0.366l-2.365-2.308z"></path>
<path d="M12.777 27.94c-0.014-0.056-0.042-0.107-0.084-0.148l-2.43-2.371c0.026 0.029 0.052 0.057 0.079 0.084l2.435 2.435z"></path>
</svg>
