<!-- Generated by IcoMoon.io -->
<svg version="1.1" xmlns="http://www.w3.org/2000/svg" width="32" height="32" viewBox="0 0 32 32">
<title>Reply</title>
<path d="M23.105 14.505c-0.031 0-0.062 0.005-0.092 0.014-0.13 0.040-0.219 0.16-0.22 0.297-0.014 2.296-0.397 3.668-1.28 4.587-1.053 1.096-2.898 1.607-5.807 1.607-0.391 0-0.807-0.010-1.24-0.029v-4.84c0-0.126-0.076-0.24-0.193-0.289-0.039-0.016-0.079-0.024-0.12-0.024-0.081 0-0.161 0.032-0.221 0.092l-7.773 7.773c-0.122 0.122-0.122 0.32-0 0.442l7.773 7.773c0.060 0.060 0.14 0.092 0.221 0.092 0.040 0 0.081-0.008 0.12-0.024 0.117-0.048 0.193-0.162 0.193-0.289v-4.699c0.246 0.010 0.491 0.015 0.731 0.015 2.2 0 4.13-0.41 5.737-1.217 1.509-0.759 2.674-1.86 3.367-3.186 1.252-2.391 0.91-5.292-0.939-7.96-0.059-0.086-0.156-0.135-0.257-0.135zM15.197 26.691c-0.053 0-0.106-0.001-0.16-0.001 0.090 0.001 0.178 0.001 0.267 0-0.036 0-0.071 0.001-0.107 0.001zM19.059 26.181c0.321-0.093 0.629-0.198 0.924-0.314-0.295 0.116-0.604 0.221-0.924 0.314z"></path>
<path d="M0 0v24h4.070c-0.001-0.029-0.002-0.057-0.002-0.086 0-0.618 0.241-1.199 0.678-1.635l0.779-0.779h-3.025v-17.416l13.525 10.238 13.517-10.342v17.52h-2.72c-0.162 0.704-0.412 1.385-0.749 2.028-0.084 0.16-0.175 0.317-0.269 0.472h6.238v-24h-32.042zM16.017 11.023l-11.26-8.523h22.401l-11.14 8.523z"></path>
</svg>
