<!-- Generated by IcoMoon.io -->
<svg version="1.1" xmlns="http://www.w3.org/2000/svg" width="32" height="32" viewBox="0 0 32 32">
<title>revision-history</title>
<path d="M18.371 3.58c0.169 0.019 0.338 0.040 0.506 0.064 1.37 0.194 2.711 0.563 3.973 1.093 1.516 0.636 2.917 1.503 4.135 2.554 1.26 1.088 2.322 2.371 3.126 3.783 0.687 1.207 1.185 2.506 1.471 3.845 0.329 1.536 0.381 3.123 0.157 4.675-0.209 1.448-0.661 2.865-1.337 4.185-0.792 1.547-1.888 2.957-3.217 4.146-1.376 1.231-2.998 2.221-4.763 2.902-0.959 0.37-1.958 0.648-2.979 0.83-0.616 0.11-1.239 0.184-1.864 0.222v-0.015h-3.485v-2.99h3.534v0.009c0.431-0.035 0.859-0.092 1.283-0.17 0.779-0.143 1.542-0.358 2.275-0.641 1.395-0.538 2.677-1.322 3.764-2.294 1.051-0.94 1.918-2.055 2.544-3.278 0.522-1.020 0.875-2.113 1.044-3.23 0.189-1.25 0.151-2.531-0.114-3.769-0.216-1.012-0.585-1.994-1.093-2.912-0.643-1.164-1.508-2.221-2.54-3.113-0.944-0.815-2.029-1.491-3.201-1.991-1.016-0.433-2.096-0.733-3.2-0.89l-0.019-0.003v3.377l-6.058-4.984 6.058-4.984v3.58zM8.647 31.865h-8.647v-8.639h8.647v8.639zM8.647 20.242h-8.647v-8.639h8.647v8.639zM8.647 8.639h-8.647v-8.639h8.647v8.639z"></path>
</svg>
