<!-- Generated by IcoMoon.io -->
<svg version="1.1" xmlns="http://www.w3.org/2000/svg" width="32" height="32" viewBox="0 0 32 32">
<title>scan</title>
<path d="M28.569 8.486c0.215 0.592-0.091 1.245-0.683 1.46l-24.159 8.765c-0.592 0.215-1.245-0.091-1.46-0.683v0c-0.215-0.591 0.091-1.245 0.683-1.46l24.159-8.765c0.592-0.215 1.245 0.091 1.46 0.683v0z"></path>
<path d="M3.66 19.474c-0.911 0-1.649 0-1.649 0v4.867c0 0.911 0.738 1.649 1.649 1.649h24.68c0.911 0 1.649-0.738 1.649-1.649v-4.867h-26.33zM27.469 24.107c-0.759 0-1.375-0.616-1.375-1.375s0.616-1.375 1.375-1.375 1.375 0.616 1.375 1.375-0.616 1.375-1.375 1.375z"></path>
</svg>
