<!-- Generated by IcoMoon.io -->
<svg version="1.1" xmlns="http://www.w3.org/2000/svg" width="32" height="32" viewBox="0 0 32 32">
<title>search3</title>
<path d="M18.948 21.786l9.566 9.588 0.014-0.014c0.012 0.014 0.024 0.026 0.036 0.038 0.782 0.78 2.050 0.78 2.832 0s0.782-2.046 0-2.824c-0.086-0.088-0.18-0.164-0.278-0.232l-9.348-9.368c3.356-4.686 2.93-11.254-1.28-15.462-4.682-4.684-12.286-4.684-16.97 0s-4.684 12.288 0 16.97c4.198 4.198 10.744 4.634 15.428 1.304zM4.934 4.93c3.902-3.902 10.24-3.904 14.144 0 3.902 3.902 3.9 10.24-0.002 14.142s-10.238 3.902-14.14 0c-3.904-3.904-3.904-10.24-0.002-14.142z"></path>
</svg>
