<!-- Generated by IcoMoon.io -->
<svg version="1.1" xmlns="http://www.w3.org/2000/svg" width="32" height="32" viewBox="0 0 32 32">
<title>search_continue</title>
<path d="M23.715 17.777l5.938-5.938c0.464-0.464 0.464-1.216 0-1.679l-5.938-5.938c-0.464-0.464-1.216-0.464-1.679 0s-0.464 1.216 0 1.679l3.91 3.91h-11.383c-0.656 0-1.188 0.532-1.188 1.188s0.532 1.188 1.188 1.188h11.383l-3.91 3.91c-0.232 0.232-0.348 0.536-0.348 0.84s0.116 0.608 0.348 0.84c0.464 0.464 1.216 0.464 1.679 0z"></path>
<path d="M24.256 29.328l-7.159-10.519c1.62-1.283 2.779-2.977 3.418-4.84h-3.674c-0.59 1.089-1.468 2.039-2.603 2.721-3.388 2.035-7.801 0.935-9.836-2.453s-0.934-7.8 2.453-9.835c3.387-2.036 7.799-0.935 9.834 2.453 0.217 0.361 0.398 0.734 0.545 1.115h3.54c-0.247-0.982-0.639-1.944-1.187-2.855-2.996-4.986-9.488-6.604-14.474-3.61-4.985 2.996-6.604 9.489-3.609 14.474 2.701 4.496 8.248 6.253 12.967 4.357l5.946 11.299c0.184 0.351 0.613 0.47 0.952 0.267l2.674-1.608c0.34-0.204 0.435-0.638 0.212-0.966z"></path>
</svg>
