<!-- Generated by IcoMoon.io -->
<svg version="1.1" xmlns="http://www.w3.org/2000/svg" width="32" height="32" viewBox="0 0 32 32">
<title>search_DocuWare</title>
<path d="M24.792 26.91l4.478 4.486 0.014-0.014c0.046 0.062 0.096 0.122 0.152 0.178 0.586 0.584 1.538 0.584 2.124 0 0.586-0.586 0.586-1.534 0-2.12-0.056-0.054-0.114-0.106-0.176-0.15l0.010-0.012-4.486-4.494c1.724-2.708 1.406-6.344-0.958-8.708-2.732-2.73-7.17-2.73-9.902 0-2.732 2.732-2.732 7.168 0 9.898 2.374 2.372 6.032 2.684 8.744 0.936zM17.462 17.49c1.952-1.952 5.12-1.952 7.072 0 1.952 1.95 1.952 5.118 0 7.070-1.952 1.95-5.12 1.95-7.072 0-1.952-1.952-1.952-5.12 0-7.070zM12.142 17.94v1.494c-0.4 2.236 0.050 4.596 1.35 6.556-0.164 0.006-0.328 0.010-0.492 0.010-3.586 0-6.838-1.462-9.188-3.812s-3.812-5.602-3.812-9.188c0-7.186 5.83-13 13-13 3.586 0 6.838 1.462 9.188 3.812s3.812 5.588 3.812 9.188c0 0.178-0.004 0.356-0.010 0.534-1.666-1.11-3.62-1.606-5.542-1.488-0.476-4.16-4.016-7.392-8.292-7.392h-0.014v3.39h-3.3v3.298h-3.298v3.316h3.298v3.282h3.3zM12.156 17.926h-0.014v-3.268h-3.3v-3.316h3.3v-3.298h0.014c2.704 0 4.904 2.176 4.94 4.87-0.89 0.428-1.724 1.010-2.46 1.748-0.95 0.948-1.642 2.056-2.078 3.238-0.132 0.012-0.264 0.022-0.402 0.026z"></path>
</svg>
