<!-- Generated by IcoMoon.io -->
<svg version="1.1" xmlns="http://www.w3.org/2000/svg" width="32" height="32" viewBox="0 0 32 32">
<title>SendInquiry</title>
<path d="M10.819 3.99c1.753 0 3.179 1.426 3.179 3.179v3.179c0 1.753-1.426 3.179-3.179 3.179h-1.587c-0.001 0.001-0.002 0.002-0.003 0.003v1.586h-3.179v-1.589c0-1.753 1.426-3.179 3.179-3.179h1.587c0.001-0.001 0.002-0.002 0.003-0.003v-3.173c-0.001-0.001-0.002-0.002-0.003-0.003h-6.379v-3.179h6.382zM6.051 16.706h3.179v3.179h-3.179v-3.179z"></path>
<path d="M22.578 20.002c3.633 0.001 6.579-4.028 6.579-8.999 0-0.001 0-0.002 0-0.003 0.001-4.97-2.944-9.001-6.577-9.001s-6.578 4.028-6.579 8.999c0 0.001 0 0.002 0 0.003-0.001 4.971 2.944 9.001 6.577 9.002z"></path>
<path d="M32.098 22.078c-1.344-0.614-2.85-1.102-4.47-1.435-1.461 1.119-3.181 1.77-5.049 1.77s-3.589-0.652-5.050-1.77c-6.359 1.305-10.95 4.997-10.95 9.356h25.519l-0-7.922z"></path>
</svg>
