<!-- Generated by IcoMoon.io -->
<svg version="1.1" xmlns="http://www.w3.org/2000/svg" width="32" height="32" viewBox="0 0 32 32">
<title>SetAsRead</title>
<path d="M31.92 9.589l-5.795-3.569v-4.020h0v-2h-20.125v5.984l-5.92 3.604-0.080-0.062v19.106l11.566-10.154-3.566-2.76v-13.719h16v13.726l-3.574 2.769 11.574 10.15v-19.118l-0.080 0.062zM1.772 10.899l4.228-2.56v5.833l-4.228-3.272zM26.125 14.080v-5.715l4.104 2.535-4.104 3.18z"></path>
<path d="M0 7.946v0.001l0.001-0.001z"></path>
<path d="M16.009 21.918l-2.43-1.881-13.555 11.9h31.939l-13.549-11.883z"></path>
<path d="M10 4.047h7.992v2h-7.992v-2z"></path>
<path d="M10 7.984h11.985v2h-11.985v-2z"></path>
<path d="M10 11.975h11.985v2h-11.985v-2z"></path>
</svg>
