<!-- Generated by IcoMoon.io -->
<svg version="1.1" xmlns="http://www.w3.org/2000/svg" width="32" height="32" viewBox="0 0 32 32">
<title>shoe-print</title>
<path d="M26.775 25.86l-7.065-1.871c0 0-3.307 6.685 1.082 7.828 1.913 0.499 3.397-0.053 4.348-1.417 1.229-1.764 1.635-4.54 1.635-4.54zM4.694 23.351l7.127-1.62c0 0 3.069 6.798-1.358 7.785-1.93 0.431-3.392-0.173-4.295-1.57-1.143-1.772-1.463-4.491-1.474-4.595zM27.136 2.529c-4.062-0.522-6.311 3.957-6.895 8.414-0.63 4.822 0.577 9.675 0.577 9.675l6.823 1.871c0 0 2.96-3.589 3.948-8.099 1.12-5.122 0.048-11.274-4.453-11.861zM5.154 0.022c4.079-0.378 6.169 4.177 6.595 8.652 0.461 4.842-0.918 9.649-0.918 9.649l-6.884 1.629c0 0-2.833-3.69-3.659-8.232-0.939-5.159 0.346-11.271 4.866-11.699z"></path>
</svg>
