<!-- Generated by IcoMoon.io -->
<svg version="1.1" xmlns="http://www.w3.org/2000/svg" width="32" height="32" viewBox="0 0 32 32">
<title>showVersionHistory</title>
<path d="M8 0l-8 8v24h14.104c-0.843-0.574-1.615-1.246-2.297-2h-9.807v-20h8.014v-8h15.954v7.386c0.698 0.27 1.367 0.599 2 0.981v-10.367h-19.969zM3.098 8.058l4.916-4.916v4.916h-4.916z"></path>
<path d="M22.469 13c-5.23 0-9.469 4.239-9.469 9.469s4.239 9.469 9.469 9.469c5.229 0 9.469-4.239 9.469-9.469s-4.239-9.469-9.469-9.469zM25.183 26.856l-3.897-3.897v-5.225h2.367v4.244l3.204 3.204-1.674 1.674z"></path>
</svg>
