<!-- Generated by IcoMoon.io -->
<svg version="1.1" xmlns="http://www.w3.org/2000/svg" width="32" height="32" viewBox="0 0 32 32">
<title>SmartConnect</title>
<path d="M13.349 19.784c0.373-0.373 0.373-0.978 0-1.351l-2.191-2.191 5.084-5.084 2.191 2.191c0.373 0.373 0.978 0.373 1.351 0s0.373-0.978 0-1.351l-2.191-2.191 2.341-2.341c0.373-0.373 0.373-0.978 0-1.351s-0.978-0.373-1.351 0l-1.683 1.683-3.346-3.346c-2.12-2.12-5.351-2.451-7.819-0.994l-2.988-2.988c-0.628-0.628-1.647-0.628-2.275 0-0.314 0.314-0.471 0.726-0.471 1.137s0.157 0.823 0.471 1.137l2.988 2.988c-1.457 2.467-1.126 5.699 0.994 7.819l3.346 3.346-1.684 1.684c-0.186 0.186-0.28 0.431-0.28 0.675s0.093 0.489 0.28 0.675c0.373 0.373 0.978 0.373 1.351-0l2.341-2.341 2.191 2.191c0.373 0.373 0.978 0.373 1.351 0z"></path>
<path d="M20.81 15.726l-8.775 8.775c-0.373 0.373-0.373 0.978-0 1.351s0.978 0.373 1.351 0l1.683-1.683 3.346 3.346c2.12 2.12 5.351 2.451 7.819 0.994l3.020 3.020c0.628 0.628 1.647 0.628 2.275 0 0.314-0.314 0.471-0.726 0.471-1.138s-0.157-0.823-0.471-1.137l-3.020-3.020c1.457-2.467 1.126-5.699-0.994-7.819l-3.346-3.346 1.683-1.684c0.186-0.186 0.28-0.431 0.28-0.675s-0.093-0.489-0.28-0.675c-0.373-0.373-0.978-0.373-1.351 0l-3.692 3.692z"></path>
</svg>
