<!-- Generated by IcoMoon.io -->
<svg version="1.1" xmlns="http://www.w3.org/2000/svg" width="32" height="32" viewBox="0 0 32 32">
<title>stamp_workflow</title>
<path d="M11.925 13.8c0 0.113-0.012 0.225-0.012 0.338l4.475 3.987c0.025-0.025 0.063-0.063 0.087-0.087h-0.012c-0.313-1.1-0.625-2.512-0.625-4.238 2.975-0.787 5.175-3.613 5.175-6.75 0-3.925-3.137-7.063-7.063-7.063s-7.050 3.15-7.050 7.075c0 3.138 2.2 5.963 5.025 6.737z"></path>
<path d="M21.875 28.863h5.575c0.313 0 0.625-0.313 0.625-0.625v-8.2c-2.025 2.613-4.113 5.525-6.2 8.825z"></path>
<path d="M7.2 22.425l-2.275-2.163 2.112-2.225h-6.412c-0.313 0-0.625 0.313-0.625 0.625v9.563c0 0.475 0.313 0.625 0.625 0.625h12.788c-2.075-2.225-4.8-5.1-6.213-6.425z"></path>
<path d="M31.012 9.425c-7.4 5.525-14.475 13.037-14.475 13.037l-5.075-4.525-2.1 2.212c2.1 1.988 6.963 7.175 8.612 9.063 4.637-7.738 9.387-13.475 13.913-18.663l-0.875-1.125z"></path>
<path d="M20.663 30.813l-0.712 1.188h4.2v-2.038h-2.962c-0.163 0.288-0.35 0.563-0.525 0.85z"></path>
<path d="M15.625 31.275c-0.287-0.337-0.713-0.8-1.188-1.313h-10.363v2.038h12.188l-0.637-0.725z"></path>
</svg>
