<!-- Generated by IcoMoon.io -->
<svg version="1.1" xmlns="http://www.w3.org/2000/svg" width="32" height="32" viewBox="0 0 32 32">
<title>staple</title>
<path d="M28.235 24.211c-0.056 0.029-26.63 0.020-26.667 0-0.652-0.362 0.737-4.343 1.768-4.343h25.636c0.488 0 0.884 0.449 0.884 1.002-0 0-0.295 2.652-1.621 3.341z"></path>
<path d="M29.722 10.703c0 0-21.179-6.655-26.52 0-1.822 2.271-0.488 7.418 0 7.418h6.575c0 0 8.941-8.215 20.829-3.491 0.092 0.037 0-2.536 0-2.536-0-0.768-0.396-1.391-0.884-1.391z"></path>
<path d="M28.655 14.686v1.832c0 0.395-0.196 0.715-0.436 0.715h-15.443l-1.519 0.923h16.962c0.584 0 1.060-0.735 1.060-1.639v-1.681l-0.623-0.151z"></path>
</svg>
