<!-- Generated by IcoMoon.io -->
<svg version="1.1" xmlns="http://www.w3.org/2000/svg" width="32" height="32" viewBox="0 0 32 32">
<title>subscribe_to_notifications</title>
<path d="M2.962 14.463c0.613 0 1.137 0.225 1.6 0.662 0.45 0.438 0.675 0.975 0.675 1.613 0 0.613-0.225 1.137-0.675 1.575s-0.987 0.663-1.6 0.663c-0.613 0-1.137-0.225-1.6-0.663-0.45-0.438-0.675-0.962-0.675-1.575 0-0.637 0.225-1.175 0.675-1.613 0.45-0.45 0.987-0.662 1.6-0.662zM0.688 8.563c2.9 0 5.362 1.012 7.4 3.050s3.050 4.488 3.050 7.35h-2.363c0-2.2-0.787-4.1-2.375-5.675-1.575-1.575-3.487-2.375-5.725-2.375v-2.35zM0.688 3.813c4.175 0 7.738 1.487 10.7 4.45s4.45 6.525 4.45 10.7h-2.35c0-3.537-1.25-6.55-3.75-9.025-2.5-2.487-5.513-3.725-9.050-3.725v-2.4z"></path>
<path d="M17.775 32c1.725 0 3.125-1.637 3.125-3.125h-6.262c0.012 1.488 1.413 3.125 3.137 3.125zM20.238 3.025h-0.15v-0.725c0-1.275-1.038-2.313-2.313-2.313s-2.313 1.038-2.313 2.313v0.725h-0.088c-1.938 0.538-3.050 1.425-3.713 2.55 0.475 0.388 0.938 0.8 1.375 1.25 3.387 3.387 5.050 7.463 5.050 12.238v2.337h-11.175c-0.7 0.863-1.55 1.712-2.575 2.563v2.863h26.925v-2.863c-10.637-8.838-2.1-18.425-11.025-20.938z"></path>
</svg>
