<!-- Generated by IcoMoon.io -->
<svg version="1.1" xmlns="http://www.w3.org/2000/svg" width="32" height="32" viewBox="0 0 32 32">
<title>Table</title>
<path d="M0 19.551h1.998v4.526h-1.998v-4.526z"></path>
<path d="M1.998 25.37h-1.998v4.526h0.031v0.093h4.371v-1.998h-2.404z"></path>
<path d="M0 13.733h1.998v4.526h-1.998v-4.526z"></path>
<path d="M0 7.914h1.998v4.526h-1.998v-4.526z"></path>
<path d="M32 25.414h-2.016v2.577h-1.855v1.998h3.871v-1.998z"></path>
<path d="M29.984 19.585h2.016v4.534h-2.017v-4.534z"></path>
<path d="M29.984 7.925h2.016v4.534h-2.017v-4.534z"></path>
<path d="M29.984 13.755h2.016v4.534h-2.017v-4.534z"></path>
<path d="M5.651 1.994h4.371v1.998h-4.371v-1.998z"></path>
<path d="M0.031 2.096h-0.031v4.526h1.998v-2.63h2.404v-1.998h-4.371z"></path>
<path d="M16.89 1.994h4.371v1.998h-4.371v-1.998z"></path>
<path d="M22.509 1.994h4.371v1.998h-4.371v-1.998z"></path>
<path d="M28.129 1.994v1.998h1.855v2.638h2.016v-4.636z"></path>
<path d="M11.27 1.994h4.371v1.998h-4.371v-1.998z"></path>
<path d="M16.89 27.991h4.371v1.998h-4.371v-1.998z"></path>
<path d="M11.27 27.991h4.371v1.998h-4.371v-1.998z"></path>
<path d="M5.651 27.991h4.371v1.998h-4.371v-1.998z"></path>
<path d="M22.509 27.991h4.371v1.998h-4.371v-1.998z"></path>
<path d="M27.993 7.816v-1.75h-23.986v19.796h0.13v0.032l23.833-0v-0.031h0.023v-18.046zM25.993 18.749h-5.135v-3.402h5.135v3.402zM18.858 18.749h-5.757v-3.402h5.757v3.402zM6.007 15.347h5.095v3.402h-5.095v-3.402zM13.101 13.347v-3.531h5.757v3.531h-5.757zM11.101 13.347h-5.095v-3.531h5.095v3.531zM6.007 20.749h5.095v3.144l-5.095 0v-3.144zM13.101 20.749h5.757v3.144l-5.757 0v-3.144zM20.858 20.749h5.135v3.144l-5.135 0v-3.144zM25.993 13.347h-5.135v-3.531h5.135v3.531z"></path>
</svg>
