<!-- Generated by IcoMoon.io -->
<svg version="1.1" xmlns="http://www.w3.org/2000/svg" width="35" height="32" viewBox="0 0 35 32">
<title>task_list</title>
<path d="M34.965 9.563v-3.005l-2.295-0.383c-0.093-0.284-0.207-0.558-0.339-0.821l1.352-1.893-2.125-2.125-1.889 1.35c-0.264-0.134-0.54-0.248-0.825-0.342l-0.382-2.29h-3.005l-0.382 2.29c-0.285 0.094-0.561 0.209-0.825 0.343l-1.89-1.35-2.125 2.125 1.352 1.893c-0.132 0.263-0.246 0.537-0.339 0.821l-2.295 0.383v3.005l2.301 0.383c0.093 0.281 0.207 0.553 0.338 0.814l-1.357 1.899 2.125 2.125 1.902-1.359c0.26 0.131 0.53 0.243 0.81 0.335l0.384 2.306h3.005l0.384-2.306c0.28-0.092 0.55-0.205 0.81-0.335l1.902 1.359 2.125-2.125-1.356-1.899c0.132-0.261 0.245-0.533 0.338-0.814l2.301-0.383zM26.959 10.062c-1.105 0-2.002-0.896-2.002-2.002s0.896-2.002 2.002-2.002c1.106 0 2.002 0.896 2.002 2.002s-0.896 2.002-2.002 2.002z"></path>
<path d="M15.663 8.088c0-1.293 0.217-2.536 0.617-3.693h-16.253v6.901h16.098c-0.3-1.017-0.462-2.094-0.462-3.208z"></path>
<path d="M26.986 19.41c-3.764 0-7.099-1.837-9.158-4.664h-17.801v6.901h27.579v-2.255c-0.205 0.011-0.412 0.017-0.62 0.017z"></path>
<path d="M0.027 25.099h27.579v6.901h-27.579v-6.901z"></path>
</svg>
