<!-- Generated by IcoMoon.io -->
<svg version="1.1" xmlns="http://www.w3.org/2000/svg" width="32" height="32" viewBox="0 0 32 32">
<title>text-singleline</title>
<path d="M0 22.094h32v4h-32v-4z"></path>
<path d="M3.694 16.837h4l0.775 3.1h3.094l-3.813-13.988h-3.869l-3.881 13.988h2.894l0.8-3.1zM5.612 8.644h0.037l1.419 6.044h-2.8l1.344-6.044z"></path>
<path d="M21.494 16.238c0-1.919-0.544-3.256-2.625-3.544v-0.037c1.594-0.313 2.387-1.475 2.387-3.081 0-2.981-1.844-3.625-4.081-3.625h-5.206v13.988h5.188c1.25 0 4.338-0.15 4.338-3.7zM14.906 8.1h1.806c0.994 0 1.688 0.756 1.688 1.781 0 1.356-0.894 1.781-1.538 1.781h-1.956v-3.563zM14.906 17.788v-3.969h1.712c1.475 0 1.944 0.756 1.944 1.994 0 1.956-1.4 1.975-2.019 1.975h-1.637z"></path>
<path d="M27.762 20.175c2.738 0 4.238-1.2 4.238-4.944h-2.894c-0.038 1.106 0.019 2.85-1.337 2.85-1.65 0-1.863-1.55-1.863-5.131s0.212-5.131 1.863-5.131c0.875 0 1.206 0.7 1.206 2.556h2.875c0.119-3-1.094-4.463-4.087-4.463-4.837 0-4.831 3.338-4.831 7.037-0.006 3.656-0.006 7.225 4.831 7.225z"></path>
</svg>
