<!-- Generated by IcoMoon.io -->
<svg version="1.1" xmlns="http://www.w3.org/2000/svg" width="32" height="32" viewBox="0 0 32 32">
<title>tiffClipped</title>
<path d="M32 4.038h-6.023v-1.773c-0-1.253-1.049-2.272-2.337-2.272h-3.316c-1.289 0-2.337 1.019-2.337 2.272v1.773h-17.987v27.93h31.969v-15.907h0.031v-12.024zM9.157 20.070h-2.462v9.949h-2.016v-9.949h-2.725v-2.057h7.203v2.057zM12.634 30.019h-2.016v-12.006h2.016v12.006zM21.298 20.070h-5.187v2.968h5.187v1.956h-5.187v5.025h-2.016v-12.006h7.203v2.057zM29.962 20.070h-5.187v2.968h5.187v1.956h-5.187v5.025h-2.016v-12.006h7.203v2.057zM19.988 2.265c-0-0.15 0.154-0.276 0.337-0.276h3.316c0.183 0 0.337 0.127 0.337 0.276v1.773h-3.99v-1.773zM2 6.045h15.987v5.735c0 1.253 1.048 2.272 2.337 2.272h5.355c1.302 0 2.337-1.019 2.337-2.272v-3.759h-2l-0.006 3.716c0 0.13-0.084 0.319-0.291 0.319h-5.394c-0.183 0-0.337-0.127-0.337-0.276v-3.767h0v-1.968h10.012v9.986h-28v-9.986z"></path>
</svg>
