<!-- Generated by IcoMoon.io -->
<svg version="1.1" xmlns="http://www.w3.org/2000/svg" width="26" height="32" viewBox="0 0 26 32">
<title>touch</title>
<path fill="#000" d="M14.905 13.926c2.011-1.372 3.332-3.686 3.332-6.306 0-4.217-3.417-7.637-7.633-7.637s-7.634 3.42-7.634 7.637c0 2.637 1.341 4.964 3.376 6.334v0.041l-0.020-4.569c-0.237-0.557-0.368-1.167-0.368-1.806 0-2.568 2.083-4.648 4.647-4.648 2.567 0 4.645 2.080 4.645 4.648 0 0.631-0.132 1.236-0.361 1.785l0.017 4.52z"></path>
<path fill="#000" d="M24.482 28.895c0 0.885-0.744 1.588-1.616 1.657v0.005h-11.287c-1.392 0-2.647-0.585-3.535-1.519l0.121 0.123-6.339-6.426-0.128-0.187c-0.15-0.254-0.237-0.549-0.237-0.867 0-0.939 0.762-1.701 1.703-1.701 0.412 0 0.788 0.146 1.084 0.387l0.005 0.005 3.949 3.979c0.063 0.059 0.146 0.095 0.239 0.095 0.191 0 0.346-0.154 0.346-0.346h0.005v-16.675c0-0.972 0.789-1.76 1.758-1.76 0.971 0 1.76 0.788 1.76 1.76v9.376h0.002c0 0.221 0.181 0.398 0.402 0.398 0.128 0 0.241-0.062 0.316-0.156 0.336-0.577 0.963-0.967 1.682-0.967 0.978 0.003 1.788 0.723 1.932 1.662h0.005c0.051 0.133 0.182 0.228 0.333 0.228 0.156 0 0.287-0.098 0.338-0.236v0c0.28-0.58 0.878-0.983 1.565-0.983 0.929 0 1.688 0.729 1.737 1.642h-0.002c0.033 0.164 0.18 0.287 0.351 0.287 0.167 0 0.305-0.11 0.346-0.259 0.277-0.546 0.842-0.919 1.493-0.919 0.923 0 1.673 0.749 1.673 1.67l-0 9.725zM22.72 16.063c-0.506 0-0.983 0.116-1.406 0.323-0.585-0.657-1.439-1.070-2.389-1.070-0.621 0-1.195 0.175-1.685 0.48v-0.002c-0.587-0.711-1.476-1.165-2.472-1.165-0.355 0-0.581 0.021-0.899 0.128l-0.115 0.036v-7.352c0-1.768-1.434-3.202-3.202-3.202-1.769 0-3.203 1.434-3.203 3.202v13.996l-1.626-1.724c-0.587-0.728-1.489-1.195-2.497-1.195-1.769 0-3.203 1.437-3.203 3.204 0 0.716 0.237 1.378 0.634 1.911l0.254 0.3 6.131 6.172c1.122 1.157 2.694 1.875 4.432 1.875l0.092 0.008h11.154c1.767 0 3.201-1.437 3.201-3.204v-9.52c-0-1.767-1.434-3.201-3.201-3.201z"></path>
</svg>
