<!-- Generated by IcoMoon.io -->
<svg version="1.1" xmlns="http://www.w3.org/2000/svg" width="32" height="32" viewBox="0 0 32 32">
<title>transfer</title>
<path d="M0 16.474h8.583v-7.056l11.29 11.289-11.29 11.29v-7.056h-8.583v-8.467zM16.939 27.619c1.244 0.152 2.598 0.235 4.013 0.235l0.071-0c6.066-0.012 10.977-1.554 10.977-3.457v4.143c0 1.903-4.911 3.445-10.977 3.457h-0.071c-2.884 0-5.511-0.346-7.479-0.913l3.466-3.466zM22.971 21.587c5.135-0.297 9.029-1.705 9.029-3.4v4.143c0 1.903-4.911 3.445-10.977 3.457h-0.071c-0.724 0-1.433-0.022-2.118-0.064l4.137-4.137zM13.852 10.71c1.921-0.505 4.398-0.809 7.1-0.809l0.071 0c6.066 0.012 10.977 1.554 10.977 3.457v2.763c0 1.727-4.042 3.156-9.32 3.416l-8.828-8.828zM1.377 13.662h-1.375v-9.537c0-2.278 4.924-4.125 10.999-4.125h0.071c6.042 0.014 10.928 1.855 10.928 4.125v3.79c-0.284-0.007-0.568-0.011-0.852-0.012l-0.122-0h-0.151l-0.125 0-0.125 0.001v-1.78c-0.007 0.005-0.015 0.010-0.022 0.015l-0 0-0.007 0.005-0.014 0.009-0 0-0 0-0.008 0.005-0.012 0.008-0.001 0.001-0.001 0-0.009 0.006-0.012 0.008-0.001 0.001-0.001 0.001-0.009 0.006-0.011 0.007-0.003 0.002-0.009 0.006-0.011 0.007-0.002 0.001-0.002 0.001-0.009 0.005-0.010 0.006-0.002 0.001-0.002 0.001-0.009 0.005-0.010 0.006-0.002 0.001-0.002 0.001-0.018 0.011-0.003 0.002-0.002 0.002-0.009 0.005-0.009 0.006-0.003 0.002-0.003 0.002-0.008 0.005-0.009 0.006-0.003 0.002-0.003 0.002-0.008 0.005-0.009 0.005-0.007 0.004-0.024 0.014-0.008 0.005-0.008 0.005-0.004 0.003-0.004 0.002-0.008 0.004-0.008 0.005-0.004 0.003-0.004 0.003-0.007 0.004-0.008 0.005-0.005 0.003-0.005 0.003-0.007 0.004-0.008 0.004-0.005 0.003-0.005 0.003-0.007 0.004-0.007 0.004-0.005 0.003-0.005 0.003-0.007 0.004-0.007 0.004-0.006 0.003-0.006 0.003-0.006 0.003-0.007 0.004-0.006 0.003-0.006 0.003-0.006 0.003-0.006 0.004-0.006 0.003-0.006 0.003-0.006 0.003-0.006 0.003-0.007 0.004-0.006 0.004-0.006 0.003-0.020 0.011-0.005 0.003-0.006 0.003-0.008 0.004-0.007 0.004-0.005 0.003-0.005 0.003-0.008 0.004-0.007 0.004-0.005 0.003-0.005 0.003-0.008 0.004-0.008 0.004-0.005 0.002-0.005 0.003-0.009 0.005-0.008 0.004-0.004 0.002-0.004 0.002-0.009 0.005-0.012 0.006-0.004 0.002-0.018 0.009-0.004 0.002-0.004 0.002-0.018 0.010-0.003 0.002-0.004 0.002-0.010 0.005-0.009 0.005-0.006 0.003-0.011 0.005-0.010 0.005-0.006 0.003-0.011 0.005-0.010 0.005-0.003 0.001-0.003 0.001-0.021 0.011-0.002 0.001-0.002 0.001-0.026 0.013-0.012 0.006-0.011 0.005-0.002 0.001-0.002 0.001-0.013 0.006-0.011 0.005-0.001 0.001-0.002 0.001-0.014 0.007-0.011 0.005-0.002 0.001-0.015 0.007-0.011 0.005-0.001 0-0.017 0.008-0.010 0.005-0 0-0 0-0.021 0.010-0.006 0.003h-0l-0 0-0.027 0.013-0.026 0.012-0.001 0-0 0c-0.017 0.008-0.035 0.016-0.053 0.024l-0.002 0.001-0.001 0c-0.017 0.008-0.035 0.016-0.052 0.024l-0.003 0.001-0.001 0c-0.017 0.008-0.035 0.015-0.052 0.023l-0.005 0.002c-0.017 0.008-0.034 0.015-0.052 0.022l-0.006 0.002c-0.017 0.008-0.034 0.015-0.051 0.022l-0.004 0.002-0.003 0.001c-0.015 0.006-0.030 0.013-0.045 0.019l-0.031 0.013-0.019 0.008-0.009 0.004-0.010 0.004-0.021 0.009-0.020 0.008-0.009 0.003-0.009 0.004-0.022 0.009-0.037 0.015-0.023 0.009-0.021 0.009-0.007 0.003-0.008 0.003-0.024 0.010-0.029 0.011-0.007 0.003-0.049 0.019-0.006 0.002-0.006 0.002-0.027 0.010-0.024 0.009-0.005 0.002-0.006 0.002-0.028 0.011-0.029 0.011-0.005 0.002-0.029 0.011-0.025 0.009-0.008 0.003-0.059 0.021-0.003 0.001-0.063 0.022-0.064 0.022-0.064 0.022-0.064 0.022c-0.022 0.007-0.044 0.015-0.066 0.022l-0 0-0.067 0.022-0.025 0.008-0.038 0.012-0.002 0.001-0.002 0.001-0.027 0.008-0.035 0.011-0.003 0.001-0.003 0.001-0.027 0.008-0.041 0.013-0.069 0.021-0.027 0.008-0.031 0.009-0.006 0.002-0.032 0.010-0.030 0.009-0.013 0.004-0.027 0.008-0.029 0.009-0.007 0.002-0.007 0.002-0.026 0.008-0.037 0.011-0.008 0.002-0.053 0.015-0.090 0.025-0.072 0.020-0.024 0.006-0.025 0.007-0.012 0.003-0.059 0.016-0.013 0.003-0.013 0.003-0.023 0.006-0.024 0.006-0.014 0.003-0.014 0.003-0.022 0.006-0.023 0.006-0.015 0.004-0.015 0.004-0.043 0.011-0.016 0.004-0.015 0.004-0.058 0.014-0.074 0.018-0.017 0.004-0.019 0.005-0.020 0.005-0.037 0.009-0.018 0.004-0.093 0.022-0.021 0.005-0.020 0.005-0.017 0.004-0.017 0.004-0.022 0.005-0.021 0.005-0.016 0.003-0.016 0.004-0.023 0.005-0.022 0.005-0.015 0.003-0.015 0.003-0.024 0.005-0.023 0.005-0.015 0.003-0.014 0.003-0.025 0.005-0.128 0.027-0.077 0.016-0.056 0.011-0.011 0.002-0.011 0.002-0.138 0.027-0.009 0.002-0.009 0.002-0.032 0.006-0.031 0.006-0.008 0.002-0.008 0.002-0.079 0.015-0.034 0.006-0.033 0.006-0.007 0.001-0.006 0.001-0.16 0.028-0.038 0.006-0.039 0.007-0.003 0-0.081 0.013-0.041 0.007-0.037 0.006-0.002 0-0.001 0-0.081 0.013-0.118 0.018-0.049 0.007-0.162 0.024-0.003 0-0.004 0.001-0.038 0.005-0.039 0.005-0.004 0-0.005 0.001-0.085 0.012-0.086 0.012-0.071 0.009-0.007 0.001-0.008 0.001-0.077 0.010-0.096 0.012-0.174 0.021-0.032 0.004-0.144 0.016-0.030 0.003-0.028 0.003-0.086 0.009-0.015 0.002-0.017 0.002-0.028 0.003-0.027 0.003-0.123 0.012-0.026 0.002-0.024 0.002-0.019 0.002-0.020 0.002-0.18 0.016-0.045 0.004-0.022 0.002-0.024 0.002-0.022 0.002-0.021 0.002-0.023 0.002-0.025 0.002-0.091 0.007-0.020 0.001-0.071 0.005-0.019 0.001-0.072 0.005-0.018 0.001-0.016 0.001-0.027 0.002-0.062 0.004-0.028 0.002-0.031 0.002-0.016 0.001-0.014 0.001-0.029 0.002-0.033 0.002-0.028 0.002-0.030 0.002-0.034 0.002-0.149 0.008-0.037 0.002-0.022 0.001-0.182 0.008-0.183 0.007-0.092 0.003-0.092 0.003-0.127 0.003-0.087 0.002c-0.179 0.004-0.358 0.006-0.539 0.007l-0.097 0c-1.869 0-3.63-0.175-5.171-0.484l-0.060-0.012c-0.171-0.035-0.339-0.071-0.505-0.109l-0.003-0-0.007-0.002-0.127-0.030-0.076-0.018-0.027-0.007-0.009-0.002-0.010-0.003-0.029-0.007-0.075-0.019-0.009-0.002-0.066-0.016-0.011-0.003c-0.017-0.004-0.034-0.009-0.051-0.013l-0.012-0.003-0.012-0.003c-0.017-0.005-0.035-0.009-0.052-0.014l-0.023-0.006c-0.018-0.005-0.035-0.010-0.053-0.014l-0.021-0.006-0.018-0.005-0.12-0.033-0.053-0.015-0.012-0.003-0.007-0.002c-0.018-0.005-0.036-0.010-0.054-0.015l-0.011-0.003-0.009-0.003c-0.018-0.005-0.036-0.010-0.054-0.016l-0.019-0.005c-0.018-0.005-0.036-0.011-0.054-0.016l-0.006-0.002-0.010-0.003c-0.019-0.005-0.037-0.011-0.056-0.017l-0.004-0.001-0.010-0.003-0.023-0.007-0.029-0.009-0.008-0.002-0.006-0.002-0.067-0.021c-0.018-0.006-0.037-0.012-0.055-0.018l-0.009-0.003-0.006-0.002c-0.018-0.006-0.036-0.012-0.054-0.017l-0.008-0.003-0.007-0.002c-0.018-0.006-0.036-0.012-0.054-0.018l-0.014-0.005c-0.018-0.006-0.037-0.012-0.055-0.018l-0.012-0.004c-0.019-0.006-0.038-0.013-0.057-0.019l-0.002-0.001-0.006-0.002-0.028-0.009-0.027-0.009-0.006-0.002-0.002-0.001c-0.019-0.006-0.038-0.013-0.056-0.020l-0.007-0.002-0.004-0.002c-0.018-0.006-0.036-0.013-0.054-0.019l-0.007-0.003-0.005-0.002c-0.018-0.006-0.036-0.013-0.054-0.019l-0.006-0.002-0.006-0.002c-0.018-0.006-0.036-0.013-0.054-0.019l-0.004-0.002-0.006-0.002c-0.018-0.007-0.037-0.013-0.055-0.020l-0.002-0.001-0.006-0.002-0.058-0.022-0.002-0.001-0.032-0.012-0.024-0.009-0.005-0.002-0.002-0.001c-0.018-0.007-0.036-0.014-0.054-0.021l-0.006-0.002-0.004-0.002c-0.018-0.007-0.035-0.014-0.053-0.021l-0.006-0.002-0.005-0.002c-0.017-0.007-0.035-0.014-0.052-0.021l-0.005-0.002-0.005-0.002c-0.018-0.007-0.035-0.014-0.052-0.021l-0.003-0.001-0.025-0.010-0.002-0.001-0.003-0.001-0.021-0.009-0.006-0.003-0.001-0c-0.021-0.009-0.042-0.018-0.063-0.027l-0.001-0-0.005-0.002-0.023-0.010-0.003-0.001-0.002-0.001-0.008-0.003-0.017-0.008-0.004-0.002-0.003-0.001-0.008-0.004-0.014-0.006-0.005-0.002-0.004-0.002-0.008-0.003-0.019-0.008-0.005-0.002-0.007-0.003-0.010-0.005-0.008-0.003-0.006-0.003-0.015-0.007-0.009-0.004-0.007-0.003-0.006-0.003-0.007-0.003-0.011-0.005-0.008-0.003-0.005-0.002-0.006-0.003-0.012-0.005-0.008-0.004-0.003-0.002-0.004-0.002-0.014-0.006-0.011-0.005-0.003-0.002-0.026-0.012-0.002-0.001-0.027-0.013-0-0c-0.010-0.005-0.020-0.009-0.029-0.014l-0.001-0-0.026-0.013-0.002-0.001-0.002-0.001-0.008-0.004-0.019-0.009-0.003-0.001-0.009-0.004-0.013-0.006-0.004-0.002-0.004-0.002-0.008-0.004-0.011-0.005-0.006-0.003-0.005-0.002-0.007-0.004-0.010-0.005-0.013-0.006-0.006-0.003-0.008-0.004-0.014-0.007-0.006-0.003-0.007-0.003-0.009-0.005-0.007-0.004-0.005-0.002-0.006-0.003-0.011-0.005-0.008-0.004-0.004-0.002-0.004-0.002-0.012-0.006-0.009-0.004-0.002-0.001-0.003-0.002-0.014-0.008-0.009-0.004-0.002-0.001-0.002-0.001-0.018-0.010-0.006-0.003-0.001-0c-0.009-0.005-0.018-0.010-0.027-0.014l-0-0-0.005-0.003-0.020-0.011-0.002-0.001-0.001-0.001-0.036-0.019-0.012-0.007-0.004-0.002-0.003-0.002-0.008-0.004-0.010-0.006-0.005-0.003-0.004-0.002-0.007-0.004-0.009-0.005-0.011-0.006-0.006-0.003-0.008-0.004-0.013-0.007-0.006-0.003-0.006-0.003-0.008-0.005-0.007-0.004-0.005-0.003-0.005-0.003-0.017-0.010-0.004-0.002-0.004-0.002-0.011-0.006-0.008-0.005-0.003-0.002-0.003-0.002-0.013-0.007-0.008-0.005-0.002-0.001-0.002-0.001-0.016-0.009-0.007-0.004-0.001-0c-0.008-0.005-0.017-0.010-0.025-0.015l-0-0-0.003-0.002-0.022-0.013-0.001-0.001-0.008-0.005-0.014-0.008-0.002-0.001-0.002-0.001-0.008-0.005-0.012-0.007-0.003-0.002-0.003-0.002-0.007-0.005-0.010-0.006-0.004-0.003-0.004-0.002-0.007-0.004-0.008-0.005-0.005-0.003-0.005-0.003-0.006-0.004-0.007-0.005-0.012-0.007-0.005-0.003-0.006-0.004-0.007-0.005-0.006-0.004-0.004-0.003-0.005-0.003-0.008-0.005-0.007-0.004-0.004-0.002-0.004-0.003-0.017-0.011-0.003-0.002-0.003-0.002-0.011-0.007-0.008-0.005-0.002-0.001-0.002-0.001-0.014-0.009-0.007-0.005-0.001-0c-0.008-0.005-0.016-0.010-0.023-0.015l-0.022-0.015v7.539zM11.068 6.874c1.389-0.003 2.735-0.106 4-0.307 1.219-0.193 2.305-0.467 3.229-0.813 0.227-0.085 0.432-0.17 0.618-0.254 1.379-0.623 1.711-1.202 1.711-1.375 0-0.196-0.428-0.916-2.329-1.629-0.924-0.346-2.010-0.62-3.229-0.813-1.265-0.201-2.61-0.304-4-0.307h-0.066c-1.413 0-2.781 0.103-4.066 0.307-1.219 0.193-2.305 0.467-3.229 0.813-1.901 0.713-2.329 1.433-2.329 1.629 0 0.173 0.333 0.752 1.711 1.375 0.187 0.084 0.392 0.169 0.618 0.254l0.068 0.025 0.11 0.040 0.067 0.024 0.056 0.019 0.054 0.019 0.004 0.001 0.067 0.023 0.057 0.019 0.055 0.018 0.005 0.002 0.067 0.022 0.042 0.013 0.015 0.005 0.056 0.018 0.006 0.002 0.051 0.016 0.017 0.005 0.044 0.013 0.079 0.023 0.052 0.015 0.016 0.005 0.060 0.017 0.066 0.019 0.069 0.019 0.061 0.017 0.067 0.018 0.070 0.018 0.062 0.016 0.069 0.017 0.057 0.014 0.014 0.003 0.063 0.016 0.069 0.017 0.072 0.017 0.060 0.014 0.005 0.001 0.069 0.016 0.074 0.017 0.066 0.014c0.373 0.081 0.762 0.154 1.165 0.218 0.978 0.155 2.005 0.252 3.063 0.29l0.065 0.002 0.111 0.003 0.249 0.006 0.16 0.003 0.032 0 0.034 0 0.066 0.001 0.158 0.001 0.196 0z"></path>
</svg>
