<!-- Generated by IcoMoon.io -->
<svg version="1.1" xmlns="http://www.w3.org/2000/svg" width="32" height="32" viewBox="0 0 32 32">
<title>unclip</title>
<path d="M28.031 22v7.735c0 0.149-0.154 0.276-0.337 0.276h-9.323c-0.183 0-0.337-0.126-0.337-0.276h0v-0.986l-0.003 0v-9.208h0.003v-17.278h-0.008c-0-1.248-1.048-2.264-2.337-2.264h-11.35c-1.289 0-2.337 1.016-2.337 2.264v1.768h-0.003v2h0.003v17.714c0 1.248 1.048 2.264 2.337 2.264h5.355c1.171 0 2.125-0.822 2.305-1.895v-18.131h-1.969l-0.006 17.719c0 0.13-0.084 0.319-0.291 0.319h-5.394c-0.183 0-0.337-0.126-0.337-0.276v-17.278h-0.003v-3.219l0.003 0v-0.986h-0c0-0.149 0.154-0.276 0.337-0.276h11.35c0.183 0 0.337 0.126 0.337 0.276v1.736h0.008v15.978h-0.003v7.989h0.003v1.768c0 1.249 1.048 2.264 2.337 2.264h9.323c1.289 0 2.337-1.016 2.337-2.264v-7.735h-2z"></path>
</svg>
