<!-- Generated by IcoMoon.io -->
<svg version="1.1" xmlns="http://www.w3.org/2000/svg" width="32" height="32" viewBox="0 0 32 32">
<title>Unstaple</title>
<path d="M14.551 20.537l-0.545-0.545v0.014z"></path>
<path d="M23.637 2.452h-9.415l-0.586 0.586-6.225 5.939h-7.411v13.887h7.411l6.811 6.627h9.414l6.375-4.988-0.010-7.607h-2v2.004h-2.9l-3.405 3.082h-5.249l-5.294-5.341v-1.421l5.294-5.256h5.249l3.405 3.031h2.9v1.942h2l0.010-1.942v-5.603l-6.375-4.938zM22.524 7.962h-6.906l-6.465 6.428v3.078l6.465 6.513h6.906l3.405-3.082h2.082v2.774l-5.203 3.817h-7.758l-6.811-6.627h-6.24v0.074-9.961h6.24l6.811-6.524h7.758l5.203 3.767v2.774h-2.082l-3.405-3.031z"></path>
</svg>
