<!-- Generated by IcoMoon.io -->
<svg version="1.1" xmlns="http://www.w3.org/2000/svg" width="32" height="32" viewBox="0 0 32 32">
<title>user_contour</title>
<path d="M16.006 3.925c2.525 0 4.656 3.244 4.656 7.084 0 3.838-2.134 7.078-4.659 7.078s-4.656-3.244-4.656-7.084c0.003-3.838 2.134-7.078 4.659-7.078v0zM10.553 22.709c1.669 1.069 3.537 1.631 5.456 1.631s3.788-0.563 5.456-1.631c4.044 0.994 7.081 3.034 8.178 5.378h-27.269c1.097-2.347 4.134-4.384 8.178-5.378zM16.006 2.003c-3.631 0-6.578 4.028-6.578 9 0 0 0 0.003 0 0.003 0 4.972 2.944 9 6.578 9 0 0 0 0 0 0 3.631 0 6.578-4.028 6.578-9 0 0 0-0.003 0-0.003 0-4.969-2.944-8.997-6.578-9 0.003 0 0 0 0 0v0zM21.056 20.65c-1.462 1.119-3.181 1.769-5.050 1.769s-3.588-0.653-5.050-1.769c-6.359 1.303-10.95 4.997-10.95 9.356h32c0-4.359-4.591-8.053-10.95-9.356v0z"></path>
</svg>
