<!-- Generated by IcoMoon.io -->
<svg version="1.1" xmlns="http://www.w3.org/2000/svg" width="32" height="32" viewBox="0 0 32 32">
<title>UserVoice</title>
<path d="M10.755 10.333l-8.845 2.367c-0.267 0.071-0.416 0.374-0.335 0.677l2.335 8.701c0.081 0.302 0.362 0.489 0.629 0.418l8.845-2.367c0.265-0.071 0.416-0.374 0.335-0.676l-2.335-8.701c-0.081-0.302-0.364-0.489-0.629-0.419z"></path>
<path d="M12.286 22.5l-5.433 1.456c-0.303 0.081-0.49 0.37-0.417 0.646l1.803 6.731c0.074 0.275 0.381 0.432 0.684 0.351l5.433-1.456c0.301-0.081 0.487-0.37 0.413-0.645l-1.804-6.731c-0.074-0.275-0.379-0.432-0.68-0.352z"></path>
<path d="M24.662 0.142c-0.168-0.046-0.353 0.004-0.477 0.126l-10.794 9.873c-0.019 0.018-0.014 0.045-0.029 0.063-0.039 0.051-0.052 0.105-0.070 0.166-0.016 0.062-0.034 0.115-0.024 0.179 0.001 0.023-0.016 0.043-0.009 0.067l2.007 7.489c0.008 0.030 0.039 0.042 0.051 0.068 0.048 0.159 0.144 0.3 0.32 0.345l14.187 2.791c0.084 0.021 0.173 0.019 0.255-0.003 0.081-0.022 0.16-0.065 0.221-0.127 0.127-0.125 0.177-0.304 0.131-0.472l-5.419-20.223c-0.045-0.167-0.177-0.298-0.35-0.343z"></path>
</svg>
