<!-- Generated by IcoMoon.io -->
<svg version="1.1" xmlns="http://www.w3.org/2000/svg" width="32" height="32" viewBox="0 0 32 32">
<title>user_management</title>
<path d="M11.613 13.825c-6.737 0.188-10.675 3.738-10.675 6.713v5.175h5.975c0.625-2.712 3.287-5.412 7.475-6.662-1.5-1.313-2.512-3.15-2.775-5.225zM11.55 12.975c0-0.063 0-0.125 0-0.188 0-4.112 3.025-7.525 6.95-8.188-0.813-2.663-3.287-4.6-6.225-4.6-3.588 0-6.513 2.913-6.513 6.5v0c0 3.35 2.538 6.113 5.788 6.475z"></path>
<path d="M19.788 20.1c-7.063 0-11.225 3.663-11.225 6.725v5.175h22.425l0.012-5.175c0-3.063-4.175-6.725-11.213-6.725z"></path>
<path d="M19.9 19.3c3.6 0 6.512-2.913 6.512-6.5v0c0-3.588-2.913-6.513-6.5-6.513-3.6 0-6.512 2.913-6.512 6.5v0c0 3.6 2.913 6.512 6.5 6.512z"></path>
</svg>
