<!-- Generated by IcoMoon.io -->
<svg version="1.1" xmlns="http://www.w3.org/2000/svg" width="32" height="32" viewBox="0 0 32 32">
<title>wave</title>
<path d="M26 10h4v12c0 1.078-0.212 2.126-0.63 3.115-0.403 0.953-0.979 1.808-1.713 2.542s-1.589 1.31-2.542 1.713c-0.989 0.418-2.037 0.63-3.115 0.63s-2.126-0.212-3.115-0.63c-0.953-0.403-1.808-0.979-2.542-1.713s-1.31-1.589-1.713-2.542c-0.418-0.989-0.63-2.037-0.63-3.115v-12c0-2.209-1.791-4-4-4s-4 1.791-4 4v12h-4v-12c0-1.078 0.212-2.126 0.63-3.115 0.403-0.953 0.979-1.808 1.713-2.542s1.589-1.31 2.542-1.713c0.989-0.418 2.037-0.63 3.115-0.63s2.126 0.212 3.115 0.63c0.953 0.403 1.808 0.979 2.542 1.713s1.31 1.589 1.713 2.542c0.418 0.989 0.63 2.037 0.63 3.115v12c0 2.209 1.791 4 4 4s4-1.791 4-4v-12z"></path>
</svg>
