<!-- Generated by IcoMoon.io -->
<svg version="1.1" xmlns="http://www.w3.org/2000/svg" width="36" height="32" viewBox="0 0 36 32">
<title>web_service</title>
<path d="M21.125 6.947c2.337 2.337 3.625 5.445 3.625 8.751s-1.287 6.413-3.625 8.75c-2.337 2.337-5.445 3.625-8.751 3.625s-6.413-1.287-8.75-3.625c-2.337-2.337-3.625-5.445-3.625-8.75s1.287-6.413 3.625-8.751c2.337-2.337 5.445-3.625 8.75-3.625s6.413 1.287 8.751 3.625zM20.032 23.354c1.524-1.524 2.538-3.423 2.955-5.488-0.326 0.48-0.637 0.657-0.83-0.416-0.199-1.75-1.806-0.632-2.816-1.253-1.064 0.717-3.454-1.394-3.048 0.987 0.627 1.074 3.384-1.437 2.010 0.835-0.877 1.586-3.206 5.098-2.903 6.919 0.038 2.652-2.71 0.553-3.657-0.327-0.637-1.762-0.217-4.843-1.883-5.706-1.808-0.078-3.36-0.243-4.060-2.264-0.422-1.446 0.449-3.599 1.998-3.931 2.268-1.425 3.079 1.669 5.206 1.726 0.661-0.691 2.461-0.911 2.61-1.686-1.396-0.246 1.771-1.174-0.134-1.701-1.051 0.124-1.728 1.089-1.169 1.909-2.036 0.475-2.101-2.946-4.058-1.867-0.050 1.706-3.196 0.553-1.088 0.207 0.724-0.316-1.181-1.233-0.152-1.066 0.506-0.027 2.207-0.624 1.747-1.025 0.948-0.588 1.744 1.409 2.672-0.045 0.67-1.118-0.281-1.325-1.12-0.758-0.473-0.53 0.836-1.674 1.99-2.169 0.385-0.165 0.752-0.255 1.033-0.229 0.582 0.672 1.657 0.788 1.713-0.081-1.44-0.69-3.028-1.054-4.672-1.054-2.36 0-4.604 0.75-6.461 2.136 0.499 0.229 0.782 0.513 0.302 0.877-0.374 1.113-1.889 2.607-3.22 2.396-0.691 1.191-1.146 2.504-1.34 3.88 1.114 0.369 1.371 1.098 1.132 1.343-0.568 0.495-0.917 1.197-1.097 1.966 0.363 2.22 1.406 4.265 3.028 5.887 2.045 2.045 4.764 3.171 7.657 3.171s5.611-1.126 7.657-3.171z"></path>
<path d="M0.5 18.76c0 0 4.813 18 31.188 5.5 0.063 0.063 1.875 2.875 1.875 2.875l2.563-8.938-8.813-2.813 2.25 3.563c0 0-18.188 12.5-27.813-0.438l-1.25 0.25z"></path>
</svg>
