<!-- Generated by IcoMoon.io -->
<svg version="1.1" xmlns="http://www.w3.org/2000/svg" width="32" height="32" viewBox="0 0 32 32">
<title>windows8</title>
<path d="M21.79 3.2l-7.751 1.133-0.019 5.833-0.012 5.833h15.938v-13.946l-0.199 0.006c-0.112 0-3.692 0.517-7.956 1.139z"></path>
<path d="M10.303 4.856c-0.921 0.125-3.605 0.492-5.958 0.816l-4.283 0.579v9.749h11.953v-5.697c0-3.132-0.006-5.697-0.012-5.69-0.012 0.006-0.772 0.112-1.7 0.243z"></path>
<path d="M0.062 22.91v4.918l0.143 0.025c0.212 0.050 11.574 1.594 11.704 1.594 0.1 0 0.106-0.311 0.106-5.728v-5.728h-11.953v4.918z"></path>
<path d="M14.008 23.863v5.871l7.863 1.102c4.321 0.61 7.907 1.102 7.969 1.102 0.1 0 0.106-0.374 0.106-6.973v-6.973h-15.938v5.871z"></path>
</svg>
