<!-- Generated by IcoMoon.io -->
<svg version="1.1" xmlns="http://www.w3.org/2000/svg" width="32" height="32" viewBox="0 0 32 32">
<title>workflow_task</title>
<path fill="#000" d="M24.028 4h-4v-2c0-1.1-0.9-2-2-2h-4c-1.1 0-2 0.9-2 2v2h-4v4h16v-4zM18.028 4h-4v-1.996c0.001-0.001 0.002-0.002 0.004-0.004h3.993c0.001 0.001 0.003 0.002 0.004 0.004v1.996z"></path>
<path fill="#000" d="M27.236 4h-2.219v2h1v23.75h-19.99v-23.75h1v-2h-2.219c-0.55 0-1 0.45-1 1v26c0 0.55 0.45 1 1 1h22.344c0.031 0 0.054-0.008 0.072-0.021l0.011 0.021c0.55 0 1-0.45 1-1v-26c-0-0.55-0.45-1-1-1z"></path>
<path fill="#000" d="M23.477 11.057c-0.007-0.003-0.015-0.005-0.022-0.008-0.015-0.005-0.031-0.010-0.046-0.015-0.008-0.002-0.017-0.004-0.025-0.006-0.014-0.003-0.029-0.006-0.043-0.008-0.008-0.001-0.016-0.002-0.023-0.003-0.016-0.002-0.031-0.003-0.047-0.003-0.005-0-0.009-0.001-0.014-0.001-0.001 0-0.002 0-0.003 0-0.023 0-0.046 0.002-0.069 0.005-0.006 0.001-0.012 0.002-0.017 0.003-0.018 0.003-0.035 0.007-0.052 0.011-0.006 0.002-0.012 0.003-0.018 0.005-0.022 0.006-0.043 0.014-0.064 0.022-0.002 0.001-0.004 0.002-0.005 0.002-0.019 0.008-0.039 0.017-0.058 0.027-0.006 0.003-0.012 0.006-0.017 0.010-0.016 0.009-0.033 0.019-0.048 0.030-0.004 0.003-0.008 0.005-0.012 0.008-0.019 0.013-0.038 0.027-0.057 0.042-0.005 0.004-0.009 0.007-0.013 0.011-0.015 0.012-0.029 0.024-0.043 0.037-0.005 0.005-0.010 0.009-0.015 0.014-0.018 0.017-0.035 0.034-0.052 0.052-0.257 0.271-0.576 0.606-0.938 0.986-0.58 0.608-1.271 1.331-1.998 2.092-2.642 2.763-5.759 6.016-5.759 6.016s-2.798-1.117-4.128-1.873c-0.015-0.009-0.032-0.018-0.050-0.028-0.004-0.002-0.008-0.005-0.012-0.007-0.038-0.021-0.081-0.043-0.126-0.065-0.005-0.003-0.011-0.005-0.016-0.008-0.023-0.011-0.047-0.022-0.072-0.032-0.001-0-0.002-0.001-0.003-0.001-0.023-0.009-0.047-0.018-0.071-0.026-0.007-0.002-0.013-0.004-0.019-0.006-0.025-0.008-0.051-0.016-0.077-0.022-0.002-0-0.004-0.001-0.006-0.001-0.024-0.006-0.048-0.010-0.073-0.014-0.007-0.001-0.014-0.002-0.020-0.003-0.026-0.003-0.052-0.005-0.078-0.005-0.001 0-0.001-0-0.002-0-0.012 0-0.025 0.001-0.037 0.002-0.006 0-0.012 0-0.019 0.001-0.014 0.001-0.028 0.004-0.043 0.007-0.005 0.001-0.010 0.001-0.015 0.002-0.016 0.003-0.031 0.008-0.047 0.013-0.003 0.001-0.006 0.002-0.009 0.003-0.018 0.007-0.037 0.015-0.054 0.024-0.29 0.148-0.382 0.463-0.202 0.703l5.243 7.464 9.712-14.732c0.164-0.247 0.047-0.542-0.246-0.693-0.023-0.012-0.046-0.022-0.069-0.031z"></path>
</svg>
