<!-- Generated by IcoMoon.io -->
<svg version="1.1" xmlns="http://www.w3.org/2000/svg" width="32" height="32" viewBox="0 0 32 32">
<title>wrench</title>
<path d="M31.743 4.257l-3.743 3.743-4-4 3.743-3.743c-0.552-0.167-1.137-0.257-1.743-0.257-3.314 0-6 2.686-6 6 0 0.606 0.090 1.191 0.257 1.743l-12.515 12.515c-0.552-0.167-1.136-0.257-1.743-0.257-3.314 0-6 2.686-6 6 0 0.606 0.090 1.191 0.257 1.743l3.743-3.743 4 4-3.743 3.743c0.552 0.167 1.137 0.257 1.743 0.257 3.314 0 6-2.686 6-6 0-0.606-0.090-1.191-0.257-1.743l12.515-12.515c0.552 0.167 1.137 0.257 1.743 0.257 3.314 0 6-2.686 6-6 0-0.606-0.090-1.191-0.257-1.743z"></path>
</svg>
