<!-- Generated by IcoMoon.io -->
<svg version="1.1" xmlns="http://www.w3.org/2000/svg" width="32" height="32" viewBox="0 0 32 32">
<title>xlsClipped</title>
<path d="M32 4.045h-6.023v-1.773c-0-1.253-1.049-2.272-2.337-2.272h-3.316c-1.289 0-2.337 1.019-2.337 2.272v1.773h-17.987v27.942h31.969v-15.918h0.031v-12.024zM7.353 24.026v0l2.898 6.003h-2.298l-1.857-3.812-1.899 3.812h-2.157l3.006-5.994h-0.075l-2.898-6.003h2.298l1.857 3.812 1.899-3.812h2.157l-3.006 5.994h0.075zM20.16 30.037h-8.211v-12.006h2.298v9.949h5.913v2.057zM30.037 20.088h-5.913v2.968h5.913v6.981h-8.211v-2.057h6.054v-2.968h-6.054v-6.981h8.211v2.057zM19.988 2.272c-0-0.15 0.154-0.276 0.337-0.276h3.316c0.183 0 0.337 0.127 0.337 0.276v1.773h-3.99v-1.773zM2 6.052h15.987v5.735c0 1.253 1.048 2.272 2.337 2.272h5.355c1.302 0 2.337-1.019 2.337-2.272v-3.759h-2l-0.006 3.716c0 0.13-0.084 0.319-0.291 0.319h-5.394c-0.183 0-0.337-0.127-0.337-0.277v-3.767h0v-1.968h10.012v9.997h-28v-9.997z"></path>
</svg>
