<!-- Generated by IcoMoon.io -->
<svg version="1.1" xmlns="http://www.w3.org/2000/svg" width="32" height="32" viewBox="0 0 32 32">
<title>zoomArea</title>
<path d="M30.167 30.162l-4.923-7.234c2.814-2.228 3.609-6.261 1.712-9.418-2.060-3.429-6.525-4.542-9.954-2.482s-4.541 6.525-2.482 9.954c1.857 3.092 5.672 4.3 8.918 2.996l4.089 7.77c0.127 0.241 0.421 0.323 0.655 0.184l1.839-1.105c0.234-0.14 0.299-0.439 0.146-0.664zM23.277 21.471c-2.33 1.4-5.364 0.643-6.764-1.687s-0.643-5.364 1.687-6.763c2.329-1.4 5.363-0.643 6.763 1.687s0.643 5.364-1.686 6.764z"></path>
<path d="M1.969 1.969h4v2h-4v-2z"></path>
<path d="M7.969 1.969h4v2h-4v-2z"></path>
<path d="M13.969 1.969h4v2h-4v-2z"></path>
<path d="M1.969 21.969h4v2h-4v-2z"></path>
<path d="M7.969 21.969h4v2h-4v-2z"></path>
<path d="M13.969 21.969h4v2h-4v-2z"></path>
<path d="M19.969 1.969h4v2h-4v-2z"></path>
<path d="M22.031 1.969h2v4h-2v-4z"></path>
<path d="M22.031 7.969h2v4h-2v-4z"></path>
<path d="M1.969 1.969h2v4h-2v-4z"></path>
<path d="M1.969 7.969h2v4h-2v-4z"></path>
<path d="M1.969 13.969h2v4h-2v-4z"></path>
<path d="M1.969 19.969h2v4h-2v-4z"></path>
</svg>
